<svg transform="scale(1)" version="1.1" id="Layer_1" xmlns="http://www.w3.org/2000/svg" xmlns:xlink="http://www.w3.org/1999/xlink" x="0px" y="0px" viewBox="0 0 500 500" xml:space="preserve" class="show_show__wrapper__graphic__5Waiy "><title>React</title><style type="text/css">
	.st0{fill:#FFFFFF;}
	.st1{fill:#111111;}
	.st2{fill:#8A0B24;}
</style><g id="board"><path class="st0" d="M62.1,61.6c-5.4,9-6.6,19.8-7.6,30.2c-3.9,43.5-4.1,87.2-0.8,130.7c1.2,15.9,3.3,32.7,13.2,45.3
		c8.2,10.5,20.9,16.6,33.9,19.5s26.4,2.6,39.7,2.4l280.7-5c9-0.2,18.4-0.4,26.5-4.2c10.3-4.9,17.4-15.1,21-25.9
		c3.6-10.8,4.3-22.4,4.9-33.8c1.9-35,3.9-70.1,5.8-105.1c1-18.5,1.5-38.8-9.8-53.5c-10.5-13.6-28.5-18.7-45.3-21.9
		c-49.8-9.4-100.8-8.9-151.1-5.5c-51.1,3.5-102,9.8-153.3,12C100.1,47.4,74.5,40.9,62.1,61.6z"></path><path class="st1" d="M129.6,290.5c-9.6,0-19.4-0.5-28.9-2.5c-10.4-2.2-24.7-7.5-34.3-19.7c-10-12.8-12.1-29.6-13.3-45.7
		c-3.4-43.6-3.1-87.3,0.8-130.8c1-10.9,2.3-21.5,7.7-30.5c10-16.7,27.9-16.1,45.3-15.5c4.6,0.2,9,0.3,13.2,0.1
		c30.2-1.3,60.9-4.1,90.5-6.8c20.6-1.9,41.8-3.8,62.8-5.2c42-2.8,97.1-4.8,151.3,5.5c16.6,3.1,35,8.2,45.8,22.2
		c11.1,14.4,11.1,33.8,10,54l-5.8,105.1c-0.6,11.3-1.3,23-5,34c-4.1,12.3-11.9,21.9-21.4,26.4c-8.5,4-18.2,4.2-26.8,4.3l-280.7,5
		C137,290.4,133.3,290.5,129.6,290.5z M62.1,61.6l0.6,0.4c-5.2,8.7-6.5,19-7.5,29.8c-3.9,43.4-4.1,87.1-0.8,130.6
		c1.2,15.9,3.3,32.4,13,44.9c9.3,11.9,23.3,17,33.4,19.2c13,2.8,26.5,2.6,39.6,2.3l280.7-5c8.5-0.1,18.1-0.3,26.2-4.2
		c9.1-4.3,16.6-13.6,20.6-25.5c3.6-10.8,4.3-22.4,4.9-33.6l5.8-105.1c1.1-19.9,1.2-38.9-9.6-53c-10.5-13.6-28.6-18.6-44.9-21.7
		c-54.1-10.2-109.1-8.3-151-5.5c-20.9,1.4-42.2,3.4-62.7,5.2c-29.6,2.7-60.3,5.5-90.6,6.8c-4.2,0.2-8.6,0-13.3-0.1
		C89.8,46.6,72.3,46,62.8,62L62.1,61.6z"></path><path class="st1" d="M452.6,91.9L452.6,91.9c-115-5.2-231.7-6.8-346.8-4.8c-0.3,0-0.5-0.2-0.5-0.5c0,0,0,0,0,0
		c0-0.3,0.2-0.5,0.5-0.5c0,0,0,0,0,0c115.1-2,231.9-0.4,346.9,4.8c0.3,0,0.5,0.2,0.5,0.5S452.9,91.9,452.6,91.9L452.6,91.9z"></path><path class="st1" d="M297.6,162.3c-0.3,0-0.5-0.2-0.5-0.5c-2.5-33-1.7-66.1,2.6-98.9c0-0.3,0.3-0.5,0.6-0.4c0.3,0,0.5,0.3,0.4,0.6
		c-4.3,32.7-5.2,65.8-2.6,98.6C298.2,162,298,162.3,297.6,162.3C297.7,162.3,297.7,162.3,297.6,162.3L297.6,162.3z"></path><path class="st1" d="M452,114.4L452,114.4l-130.5-5.3c-0.3,0-0.5-0.2-0.5-0.5c0-0.3,0.2-0.5,0.5-0.5c0,0,0,0,0,0l130.5,5.3
		c0.3,0,0.5,0.2,0.5,0.5S452.3,114.4,452,114.4z"></path><path class="st1" d="M441.3,138.1L441.3,138.1c-39.2-5.4-78.6-8.5-118.1-9.2c-0.3,0-0.5-0.2-0.5-0.5c0-0.3,0.2-0.5,0.5-0.5
		c39.5,0.7,79,3.8,118.2,9.2c0.3,0,0.5,0.3,0.4,0.5c0,0,0,0,0,0C441.8,138,441.6,138.1,441.3,138.1z"></path><path class="st1" d="M449.6,162.9L449.6,162.9c-43.6-8.4-88-10.9-132.2-7.3c-0.3,0-0.5-0.2-0.5-0.5c0-0.3,0.2-0.5,0.5-0.5
		c44.3-3.6,88.8-1.1,132.4,7.4c0.3,0,0.4,0.3,0.4,0.6c0,0,0,0,0,0C450.1,162.7,449.8,162.9,449.6,162.9z"></path><path class="st1" d="M270.9,104.3L270.9,104.3l-162.8-0.1c-0.3,0-0.5-0.2-0.5-0.5s0.2-0.5,0.5-0.5l0,0l162.8,0.1
		c0.3,0,0.5,0.2,0.5,0.5S271.2,104.3,270.9,104.3z"></path><path class="st1" d="M115.1,128.1c-0.3,0-0.5-0.2-0.5-0.5s0.2-0.5,0.5-0.5c50.9-1.5,102.5-2.1,153.5-1.7c0.3,0,0.5,0.2,0.5,0.5
		c0,0.3-0.2,0.5-0.5,0.5C217.6,126,166,126.5,115.1,128.1L115.1,128.1z"></path><path class="st1" d="M258.5,147.1L258.5,147.1l-157-2c-0.3,0-0.5-0.2-0.5-0.5c0-0.3,0.2-0.5,0.5-0.5c0,0,0,0,0,0l157,2
		c0.3,0,0.5,0.2,0.5,0.5S258.8,147.1,258.5,147.1L258.5,147.1z"></path></g><g id="stars"><path class="st2" d="M430,15.7c4.5,4,8.3,8.7,11.3,14c5.4-1.5,11.1-1.4,16.4,0.3c-7.4,9.1-8.6,21.7-2.9,32c-4.7-1-9-3.1-12.6-6.3
		L431.6,69c-2.7-5.4-3.5-11.5-2.2-17.4c-5.7,0.4-11.4-1-16.2-4c-1.7-1.1,12.9-10.5,13.9-11.5C431.1,31.5,429.7,21.5,430,15.7z"></path><path class="st2" d="M243.5,349.9l-0.9,16c5.4,2.3,9.8,6.2,12.7,11.3c-4.1,0.3-8.1-0.5-11.7-2.4c0.6,5.2,0,10.6-1.5,15.6
		c-3.2-3.5-5.2-7.9-5.8-12.7c-4,2.9-8.4,5.2-13.1,6.7c2-3.9,4.5-7.6,7.4-10.8c-4.7-1.5-8.7-4.8-11-9.2c0.4,0.8,8.4,1.3,9.6,1.3
		c2.1,0,3.2-0.3,4.6-1.9C237.6,359.8,239.7,354.1,243.5,349.9z"></path><path class="st2" d="M46.8,47.4l-9,8.3c1.7,4.1,2.1,8.7,0.9,13c-2.4-2-4.2-4.6-5.2-7.6c-2.5,3.2-5.6,5.9-9.2,7.8
		c0.1-3.7,1.3-7.2,3.5-10.1c-3.7-0.5-7.4-1.6-10.8-3.3c3.2-1.1,6.5-1.8,9.9-2c-1.8-3.3-2.2-7.3-1.1-10.9c-0.2,0.6,3.9,5.2,4.6,5.8
		c0.9,1,2.2,1.6,3.6,1.4C38.3,49.7,42.5,47.7,46.8,47.4z"></path></g><g id="character-2"><path class="st0" d="M86.4,319.5c-2.4,8.3-1.2,17.2,1.8,25.3s7.9,15.3,13,22.2c2.5,3.4,5.1,6.8,8.7,9s8.4,2.8,11.9,0.5
		c4-2.6,5.1-8.1,3.8-12.7s-4.6-8.2-8.1-11.5s-7.2-6.2-9.8-10.1c-4-5.9-5.2-13.6-3.9-20.6c1.4-7.1,4.7-13.7,9.5-19.1
		c1.9-2.3,8.2-7.6,5.5-10.9c-3-3.6-9.3,1-11.7,2.7C98.2,300.7,89.6,308.7,86.4,319.5z"></path><path class="st1" d="M116.7,378.7c-2.5,0-5-0.7-7.2-2.1c-3.7-2.2-6.3-5.6-8.9-9.1c-4.9-6.7-9.9-14.1-13.1-22.4
		c-2.4-6.3-4.7-16-1.8-25.8l0,0c3.5-12,13.6-20.3,21-25.6c2.6-1.9,9.3-6.6,12.7-2.6c2.7,3.2-1.6,7.7-4.2,10.4c-0.5,0.5-1,1-1.3,1.4
		c-4.7,5.3-7.9,11.8-9.3,18.7c-1.4,6.9,0,14.2,3.8,20.1c2.2,3,4.7,5.6,7.6,8l2.2,2c3.3,3.1,6.8,6.9,8.3,11.8
		c1.3,4.5,0.3,10.6-4.1,13.5C120.6,378.2,118.7,378.7,116.7,378.7z M87.2,319.8c-2.7,9.4-0.5,18.7,1.8,24.8c3.1,8.1,8,15.4,12.9,22
		c2.5,3.4,5.1,6.7,8.5,8.8c3.8,2.3,8.1,2.5,11.1,0.5c3.8-2.5,4.7-7.8,3.5-11.8c-1.3-4.5-4.7-8.2-7.9-11.1c-0.7-0.7-1.4-1.3-2.2-2
		c-2.9-2.4-5.5-5.2-7.8-8.3c-4.1-6.3-5.5-13.9-4.1-21.2c1.5-7.2,4.8-13.9,9.7-19.4c0.3-0.4,0.8-0.9,1.3-1.5c2.2-2.3,6-6.2,4.2-8.4
		c-2.5-3-8.4,1.2-10.6,2.8C100.4,300.1,90.5,308.2,87.2,319.8L87.2,319.8z"></path><path class="st1" d="M115.2,180c1.9,7.9,5.2,15.4,6.6,23.4s0.7,16.9-4.6,23.1c-3.5,4.1-9,7.1-10,12.4c-0.8,4.1,1.6,8.4,5.1,10.7
		s7.8,3.1,12,3.1c10.4,0.2,20.6-3.2,28.8-9.6c4.9-3.8,9-8.6,14.5-11.4c6.8-3.5,14.7-3.6,22.1-5.5c5.8-1.4,11.4-4.1,15.2-8.7
		s5.7-11.1,3.6-16.6c-1.7-4.6-5.7-7.8-9.3-11.1c-7.7-7.3-14-16-18.5-25.7c-3.3-7.1-6.1-15.2-12.9-19c-6.3-3.6-14.2-2.3-21.4-0.9
		c-8.6,1.7-22.1,2.9-28.6,9.6C111.9,160.2,113.4,172.5,115.2,180z"></path><path class="st0" d="M162.7,228.3c3,3.4,6.2,6.8,10.3,8.7s9.2,2.3,13-0.1c4.9-3.1,6.3-9.6,6.8-15.5c1-11.5,0.6-23.2,0.1-34.7
		l-1.6-41.3c-0.1-2.3-0.3-4.9-1.8-6.6c-2.4-2.8-6.8-2.2-10.3-1.3c-8.6,2.3-16.8,5.4-24.7,9.4c-6.4,3.2-16.3,7.5-20,13.9
		c-3.1,5.3-0.4,12.1,1.1,17.5c2.5,8.6,5.8,16.9,9.9,24.8C150.3,212.2,156.1,220.6,162.7,228.3z"></path><path class="st1" d="M179.8,239.4c-2.5,0-4.9-0.6-7.1-1.7c-4.2-2-7.6-5.5-10.6-8.9l0,0c-6.7-7.7-12.5-16.2-17.2-25.3
		c-4.2-8-7.5-16.3-10-24.9c-0.2-0.6-0.4-1.3-0.6-1.9c-1.5-5-3.4-11.2-0.5-16.1c3.4-5.9,11.4-9.8,17.9-13l2.5-1.2
		c7.9-4,16.3-7.2,24.9-9.5c5.3-1.4,8.9-0.9,11.1,1.5c1.6,1.9,1.9,4.4,2,7.1l1.6,41.3c0.4,11.4,0.9,23.2-0.1,34.8
		c-0.5,5.7-1.8,12.6-7.1,16C184.5,238.8,182.2,239.4,179.8,239.4z M184.2,137.6c-1.6,0-3.2,0.3-4.8,0.7c-8.5,2.2-16.8,5.4-24.6,9.4
		l-2.5,1.2c-6.2,3.1-14,6.9-17.2,12.4c-2.6,4.4-0.9,10,0.6,15c0.2,0.7,0.4,1.3,0.6,1.9c2.5,8.5,5.8,16.8,9.9,24.6
		c4.7,9,10.4,17.4,17,25l0,0c2.9,3.3,6.1,6.6,10.1,8.6c4.3,2.1,9,2,12.3-0.1c4.8-3.1,5.9-9.6,6.4-14.9c1-11.5,0.6-23.3,0.1-34.6
		l-1.6-41.3c-0.1-2.4-0.3-4.6-1.6-6.1C187.7,138.1,186,137.4,184.2,137.6L184.2,137.6z"></path><path class="st1" d="M203.1,147.6c5.6-4.6,11-11.1,10-18.2c-1-6.3-6.8-10.8-12.8-12.9c-10.5-3.7-22.4-2.2-32.4,2.8
		s-18.1,13-24.6,22.2c-11.6-4-24.3,2.2-28.3,13.8c-0.5,1.4-0.8,2.9-1,4.4c-1.1,8.4,2.7,16.9,8.4,23.2c5.7,6.3,13,10.9,20.1,15.4
		c-3.1-1.9,2.4-19.9,4-22.6c2.9-5.2,8.5-5.3,13.8-6.6C176.1,165.3,190.7,158,203.1,147.6z"></path><path class="st2" d="M132.4,160.5c1.4,7.6,5.3,14.6,11,19.8c-2.1-10.1-1.9-20.5,0.4-30.6c0.6-2,0.9-4.1,1-6.3
		c0.1-2.2-0.8-4.2-2.4-5.7C132.6,129.7,131.7,156.3,132.4,160.5z"></path><path class="st1" d="M175.4,185.3c0.6,0.6,1.3,1.3,2.1,1.1c0.5-0.2,0.9-0.6,1-1.1c0.1-0.5,0.1-1,0-1.6c-0.2-1.2-1.1-5-2.9-4.2
		C174.3,180.2,174.7,184.5,175.4,185.3z"></path><path class="st1" d="M176.4,219.1c-0.4,1.5-0.9,3.1-2.1,4c-1.4,0.8-3.2,0.8-4.6,0c-1.4-0.6-5.1-4.4-1.4-4.5c1.3,0,2.8,0.8,4.1,0.9
		C172.8,219.7,176.2,219.7,176.4,219.1z"></path><path class="st2" d="M127.2,268.2c-4,1.1-8,2.1-11.7,3.9s-7.1,4.7-8.4,8.6c-1.8,5.1,0.2,11,3.8,15.1s8.4,6.8,13.2,9.5
		c6.2,3.4,13.7,6.9,20.1,3.9c4.3-2.1,6.9-6.8,7.9-11.5s0.7-9.6,0.9-14.4c0.2-5.1,1.1-10.1,2.5-15c0.9-3.1,4.6-10-0.8-11.2
		c-3.2-0.8-9.6,4.4-12.6,5.7C137.2,264.9,132.3,266.7,127.2,268.2z"></path><path class="st1" d="M272.3,162.4c8.3-2.7,17.9-5.2,25.1-0.4c-2.8,6.6-10.5,9.4-17.4,11.4l-52.3,15.3c-3.7,1.1-12.7,2.1-11.2-4.4
		c1.2-4.9,9.9-7,13.8-8.2L272.3,162.4z"></path><path class="st1" d="M144.4,269c-5.2,12.4-6.3,26-9.5,39c-9.3,38.3-37.2,71.7-73.3,87.6c-5.6,2.5-11.4,4.5-16.4,8
		s-9.3,8.5-10.1,14.5c-1.1,8.3,4.5,16.1,11,21.4s14.2,9.1,20.1,15.1c4.3,4.5,7.5,10.1,12.5,13.7c12.4,9.1,30.3,2.8,44.9,7.5
		c7.1,2.2,13.7,7.1,21.2,7.1s14.1-5,21.6-6c8.8-1.2,18.6,3,26.3-1.5c5.4-3.1,8-9.8,7.9-16s-2.4-12.2-4.6-18l-24.4-62.9
		c-5-12.9-9.9-28.1-2.6-39.9c6.9-11.2,22.6-14.9,28.9-26.5c5.6-10.3,1.7-23-2.9-33.7c-3.2-7.4-6.7-14.7-10.5-21.8
		c-2.6-4.8-5.6-11-11.7-11.9C160,243,148.5,259.1,144.4,269z"></path><path class="st2" d="M167.8,342.8l-2.7,12.2c-11.8,3.1-24.3,1.5-34.9-4.5c-3.8-2.2-7.5-5.3-8.6-9.5c-0.8-3.4,0.7-14.2,5.6-13
		c1.5,0.4,3.9,4,5.2,5.1c2,1.7,4.1,3.2,6.4,4.5c4.4,2.5,9.2,4.3,14.2,5.2C154.6,342.9,167.4,344.5,167.8,342.8z"></path><path class="st0" d="M224.1,272c7.1-3.9,12-11.2,14.7-18.9c2.7-7.7,3.5-15.9,4.3-24c0.5-4.9,0.9-10.1-1.1-14.6
		c-1.4-3.3-4-5.9-6.3-8.6s-4.6-5.6-5.3-9.2s0.8-7.6,4.1-9c2.1-0.8,4.7-0.5,6.4-1.9s1.8-3.7,1.9-5.8c0.4-5.2,1.2-10.3,2.6-15.4
		c0.9-3.2,2-6.5,4.2-9.1s5.5-4.4,8.8-3.9c3.5,0.6,6.3,3.7,7.4,7.1s0.7,7.1,0,10.7s-1.2,8.2,2,10c1,0.5,2.1,0.8,3.1,0.9
		c5.5,1.4,9.4,6.2,9.8,11.8c0.4,8.8-7.8,15.2-12.8,22.6c-6.7,9.9-7.5,22.5-10,34.2c-1.5,7.4-3.9,14.8-7.8,21.2s-9.8,11.9-16.9,14.5
		c-8.9,3.2-18.8,1.7-28.1,0.2c-3.1-0.5-6.4-1.1-9-2.8s-4.6-5-3.8-8c1.9-7.5,9.6-2,13.4-0.5C211.8,275.7,218.5,275.1,224.1,272z"></path><path class="st1" d="M221.3,287.2c-5.4-0.1-10.8-0.7-16.1-1.8c-3-0.5-6.5-1.1-9.3-2.9c-2.6-1.7-5-5.2-4.1-8.9
		c0.3-1.7,1.4-3.2,2.9-4c2.8-1.3,6.4,0.5,9.4,2c0.8,0.4,1.5,0.7,2.1,1c5.8,2.2,12.2,1.7,17.6-1.3c6.3-3.5,11.4-10,14.4-18.5
		c2.7-7.7,3.5-15.9,4.2-23.9c0.4-4.6,0.9-9.8-1-14.2c-1.4-2.7-3.1-5.2-5.3-7.3l-0.9-1c-2.4-2.8-4.8-5.8-5.4-9.5s0.7-8.3,4.6-9.8
		c0.9-0.3,1.8-0.5,2.8-0.7c1.2-0.1,2.4-0.5,3.4-1.2c1.4-1.2,1.5-3.4,1.7-5.3c0.4-5.2,1.2-10.4,2.6-15.5c0.8-3.1,2-6.6,4.3-9.4
		c2.6-3.1,6.2-4.6,9.5-4.1c3.6,0.6,6.7,3.6,8,7.6c1.2,3.8,0.6,7.9,0.1,11c-0.7,3.7-1,7.7,1.6,9.2c0.7,0.3,1.4,0.6,2.1,0.7l0.8,0.2
		c5.7,1.5,9.9,6.5,10.3,12.4c0.3,6.7-4.1,12-8.3,17.2c-1.6,1.9-3.2,3.9-4.6,5.9c-5.1,7.6-6.8,17.1-8.4,26.2
		c-0.5,2.6-0.9,5.2-1.5,7.8c-1.9,8.9-4.4,15.7-7.9,21.4c-4.4,7.1-10.6,12.3-17.3,14.8C229.7,286.6,225.5,287.3,221.3,287.2z
		 M196.8,270.8c-0.5,0-1,0.1-1.5,0.3c-1.1,0.6-1.9,1.7-2.1,3c-0.8,2.9,1.3,5.8,3.5,7.2c2.6,1.7,5.8,2.2,8.7,2.7
		c8.8,1.5,18.8,3.1,27.7-0.1c6.4-2.4,12.3-7.4,16.5-14.2c3.5-5.6,5.9-12.2,7.7-20.9c0.5-2.6,1-5.2,1.4-7.7
		c1.6-9.3,3.3-18.9,8.6-26.8c1.4-2.1,3-4.1,4.6-6c4.3-5.2,8.3-10,8-16.1c-0.4-5.3-4.1-9.7-9.2-11.1l-0.8-0.2
		c-0.9-0.1-1.8-0.4-2.6-0.8c-4-2.2-2.8-8.2-2.4-10.8c0.5-3,1-6.8,0-10.3c-0.9-2.9-3.3-6-6.8-6.6c-2.8-0.4-6,1-8.1,3.6
		s-3.2,5.9-4,8.8c-1.4,5-2.2,10.1-2.6,15.3c-0.1,2.1-0.3,4.8-2.2,6.4c-1.2,0.9-2.7,1.4-4.1,1.5c-0.8,0.1-1.7,0.3-2.4,0.6
		c-3,1.2-4.2,5.1-3.7,8.1c0.6,3.3,2.8,6.2,5.1,8.8l0.9,1c2.2,2.3,4.1,4.9,5.5,7.7c2.1,4.8,1.6,10.4,1.1,15
		c-0.8,8.1-1.6,16.4-4.3,24.2c-3.1,8.8-8.4,15.7-15.1,19.3l0,0c-5.8,3.2-12.7,3.7-18.9,1.4c-0.7-0.3-1.4-0.6-2.2-1
		C201.4,272,198.8,270.8,196.8,270.8L196.8,270.8z M224.1,272L224.1,272z"></path><path class="st2" d="M168.6,283.1c2.6,7.2,8,14,16,17.1s18.7,1.6,23.6-4.6c3.3-4.1,3.7-9.3,5.1-14.1c1.3-4.3,3.4-8.4,4.3-12.7
		s0.4-9.2-3.1-12.5c-6.2-5.9-17.4-3.5-26.1-6.1c-5.3-1.6-10.6-5.1-15.9-3.7c-6.7,1.7-8.2,9.1-7.6,14.2
		C165.7,268.1,166,276,168.6,283.1z"></path><path class="st1" d="M167.9,186c0.6,0.6,1.3,1.3,2.1,1.1c0.5-0.2,0.9-0.6,1-1.1c0.1-0.5,0.1-1,0-1.6c-0.2-1.2-1.1-5-2.9-4.1
		C166.8,180.9,167.2,185.2,167.9,186z"></path><path class="st0" d="M262.4,202.7h-0.1c-0.3-0.1-0.4-0.3-0.4-0.6c0,0,0,0,0,0c2-7.6,3.1-15.5,3.3-23.4c0-0.3,0.2-0.5,0.4-0.5
		c0,0,0,0,0.1,0c0.3,0,0.5,0.2,0.5,0.5c-0.2,8-1.3,15.9-3.3,23.6C262.8,202.5,262.6,202.7,262.4,202.7z"></path></g><g id="character-1"><path class="st2" d="M447.3,321.1c10,6.9,19.7,15.9,26.4,28s9.9,28.1,6.2,40.8c-2.6,9-8.4,15.4-14.7,20.1
		c-3.5,2.6-7.4,4.8-11.6,3.7s-8.4-6.5-7.8-11.9c6.4-6.5,11.9-15.6,11.8-26.9c-0.2-11.8-6.8-23.2-14.5-30.5s-43.5-20.1-40.6-35
		C405.8,293,439.5,315.7,447.3,321.1z"></path><path class="st0" d="M367.8,299.4c-0.2,4.3,0.2,9.6,4,11.6c4.2,2.2,9.1-1.2,12.5-4.5c17.3-16.6,32-35.7,43.5-56.8
		c4.8-8.7,9-17.9,10.6-27.7s0.2-20.4-5.4-28.6c-5.5-8-18.9-14-28.1-8.5c-9,5.3-14,22.3-17.9,31.4
		C375.8,242.7,369.3,270.8,367.8,299.4z"></path><path class="st1" d="M374.7,312.4c-1.1,0-2.2-0.3-3.2-0.8c-3.3-1.7-4.7-5.8-4.4-12.3l0,0c1.5-28.7,8-56.9,19.2-83.4
		c0.7-1.6,1.4-3.6,2.2-5.6c3.5-9.1,8.4-21.7,16-26.1c4.4-2.6,10.1-2.9,16.1-0.9c5.2,1.8,9.7,5.1,13,9.6c5.3,7.7,7.3,18.1,5.5,29.1
		c-1.7,10.5-6.3,20-10.6,28c-11.5,21.1-26.2,40.4-43.6,57C381.1,310.6,377.7,312.4,374.7,312.4z M368.6,299.4
		c-0.3,5.9,0.9,9.4,3.6,10.9c3.8,2,8.4-1.3,11.6-4.3c17.3-16.5,31.9-35.6,43.3-56.6c4.3-7.8,8.8-17.2,10.5-27.5
		c1.7-10.7-0.2-20.6-5.3-28c-5.5-8-18.6-13.3-27.1-8.3c-7.1,4.2-11.9,16.4-15.3,25.4c-0.8,2.1-1.5,4-2.2,5.6
		C376.5,242.9,370,271,368.6,299.4L368.6,299.4z"></path><path class="st1" d="M381.5,186.3c-7.5-17.1-11.5-37.1-3.2-53.9c4.4-8.9,13.8-16.9,24.2-15.7c7.1,0.8,13,5.7,17.4,10.9
		c8.4,10,13.6,22.2,16.3,34.6s3,25.3,2.5,38c-0.1,3.6-0.3,7.3,0.8,10.7c1.5,4.5,5.2,8,8,11.9c5.9,8.3,8,19.4,3.2,28.3
		c-4.2,7.8-12.7,12.6-20.7,17l-24.3,13.3l5.3-43.9c0.7-5.4,1-10.9-1.4-16.1c-1.9-4.2-4.6-5.7-8.4-8.4
		C391.9,206.4,386,196.3,381.5,186.3z"></path><path class="st0" d="M406.5,247.7c1.6-0.3,3.1-0.5,4.7-0.5c1.6,0,3.1,0.5,4.4,1.5c1,1,1.8,2.2,2.2,3.5c0.9,2.3,1,4.8,0.4,7.2
		c-0.6,2.4-2.4,4.3-4.7,5.2c-2.3,0.8-5,0.1-6.6-1.8"></path><path class="st1" d="M411.7,265.7c-2,0-3.9-0.9-5.1-2.4c-0.2-0.3-0.2-0.8,0.2-1c0.3-0.2,0.8-0.2,1,0.1c1.4,1.7,3.7,2.3,5.7,1.5
		c2.1-0.8,3.6-2.6,4.2-4.7c0.6-2.2,0.4-4.6-0.4-6.7c-0.4-1.2-1.1-2.3-2-3.2c-1.2-0.9-2.6-1.3-4-1.4c-1.5,0-3.1,0.2-4.5,0.5
		c-0.4,0.1-0.8-0.2-0.9-0.6c-0.1-0.4,0.2-0.8,0.6-0.9l0,0c1.6-0.3,3.2-0.5,4.9-0.5c1.8,0,3.5,0.6,4.9,1.7c1.2,1,2,2.4,2.5,3.8
		c0.9,2.4,1.1,5.1,0.4,7.6c-0.7,2.6-2.6,4.7-5.1,5.7C413.2,265.6,412.4,265.7,411.7,265.7z"></path><path class="st1" d="M382.7,241.5c-0.3,0.7-0.5,1.5-0.4,2.2c0.1,0.8,0.8,1.4,1.6,1.4c0.6-0.1,1.1-0.5,1.4-1
		c1.7-2.2,2.9-4.8,3.5-7.5c0.1-0.6,0.1-1.2,0-1.8C387.5,230.4,383,240.6,382.7,241.5z"></path><path class="st1" d="M370.9,287.6c-0.3,1.1,0,2.5,1.1,3c0.7,0.2,1.4,0.1,2-0.3c0.5-0.4,1-0.9,1.4-1.5c1.5-2.3,2.6-4.8,3.2-7.5
		c-1.2,1.4-2.8,2.4-4.6,2.9c-0.7,0.2-1.5,0-2,0.5C371.5,285.6,371.1,286.6,370.9,287.6z"></path><path class="st2" d="M385.8,335c1.4,41.9-2.1,83.8-10.5,124.9c-1.5,7.3-2.8,15.9,2.3,21.4c3.3,3.5,8.5,4.7,13.4,4.1
		s9.3-2.6,13.7-4.6l46.5-21.5c6.6-3.1,13.7-6.5,17.3-12.9c4.9-8.7,1.6-19.6-1.7-29l-19-53.4c-4.2-11.9-8.5-24-15.3-34.7
		c-6-9.5-17.3-23.2-29.3-25C387.2,302,385.5,324.6,385.8,335z"></path><path class="st0" d="M466.8,418c-0.2,0-0.4-0.1-0.5-0.3l-19-53.4c-4.2-11.7-8.5-23.9-15.2-34.6c-0.1-0.2-0.1-0.5,0.1-0.7
		c0,0,0,0,0,0c0.2-0.1,0.5-0.1,0.7,0.2c6.8,10.8,11.1,23,15.3,34.8l19,53.4c0.1,0.3,0,0.5-0.3,0.6c0,0,0,0,0,0
		C466.9,418,466.9,418,466.8,418z"></path><path class="st1" d="M276.2,247.7c3.6,33.3,14,65.6,30.5,94.8c2.3,4,5,8.2,9.3,9.8c3.9,1.4,8.1,0.4,12.1-0.7l32-8.4
		c-11.3-18.5-19.1-38.9-23.1-60.2c-1.5-8-0.4-19.5-4.8-26.5c-3.7-6-11-6.2-17.3-6.1C311.1,250.4,276.5,251,276.2,247.7z"></path><path class="st0" d="M312.1,344.3c0.6,1.6,1.6,3,2.9,4.1c2.1,1.5,4.9,1.3,7.5,1c13.6-1.6,27-4.1,40.2-7.5
		c-5.1-16.8-10.1-33.6-13-50.9s-3.6-35.1,0.1-52.2c0.2-1-59-7.4-65.3,2c-2.3,3.5,0.1,10.9,0.6,14.7c0.8,5.9,1.8,11.8,3,17.7
		c2.3,11.4,5.3,22.7,8.9,33.8C301.2,319.7,306.2,332.2,312.1,344.3z"></path><path class="st1" d="M319.5,350.4c-1.7,0.1-3.5-0.4-4.9-1.4c-1.4-1.2-2.5-2.7-3.2-4.4c-11-22.7-19-46.7-24-71.4
		c-1.2-5.8-2.2-11.8-3-17.7c-0.1-0.8-0.3-1.9-0.5-3c-0.9-4.1-1.9-9.3,0.1-12.2c6.5-9.8,63.3-3.6,66.1-2.4c0.4,0.1,0.6,0.5,0.6,0.9
		c-3.3,15.5-3.4,32.5-0.1,52c2.9,17.3,8,34.3,13,50.8c0.1,0.2,0,0.4-0.1,0.6c-0.1,0.2-0.3,0.3-0.5,0.4c-13.3,3.4-26.7,5.9-40.3,7.5
		C321.6,350.3,320.6,350.3,319.5,350.4z M311.2,236.5c-12.4,0-23.7,1.1-26.1,4.7c-1.6,2.4-0.6,7.4,0.2,11.1c0.2,1.1,0.5,2.2,0.6,3.1
		c0.8,5.9,1.8,11.8,3,17.6c5,24.6,13,48.4,23.9,71l0,0c0.6,1.5,1.5,2.8,2.7,3.8c1.9,1.3,4.5,1.2,7,0.9c13.3-1.6,26.4-4,39.4-7.3
		c-4.9-16.3-10-33.1-12.8-50.2c-3.3-19.4-3.3-36.4,0-51.9C345.5,238.4,327.3,236.5,311.2,236.5L311.2,236.5z"></path><path class="st0" d="M284.6,335.6c-2.8-4.9-6-9.5-9.6-13.9c-3.4-4.2-7.2-8.1-10.1-12.6s-4.8-10-3.9-15.3s5-10.3,10.4-10.9
		c4.2-0.4,8.4,1.9,11.2,5s4.6,7,7.8,9.6s8.7,3.2,11-0.2c0.7-1.1,1-2.4,1.7-3.4c2.2-3.1,7.3-2.6,10,0.1s3.4,6.8,3.8,10.6
		c1.4,15.4-1.1,30.9-7.2,45.1c-2.8,6.5-6.4,11.3-12.9,5.2C291.2,349.8,288.2,342,284.6,335.6z"></path><path class="st1" d="M302.2,358.5c-1.8,0-3.8-1-6-3c-4.2-3.9-7-9.2-9.6-14.4c-0.9-1.8-1.8-3.5-2.7-5.1l0,0
		c-2.8-4.8-5.9-9.5-9.5-13.8c-1-1.2-1.9-2.3-2.9-3.5c-2.6-2.9-5-6-7.2-9.3c-2.4-3.8-5-9.6-4-15.9c1-6,5.7-11,11-11.5
		c4-0.4,8.5,1.5,11.8,5.2c1.1,1.3,2.1,2.6,3.1,4c1.3,2,2.9,3.9,4.6,5.5c1.9,1.5,4.2,2.2,6.6,1.9c1.3-0.2,2.5-0.9,3.3-2
		c0.3-0.5,0.6-1,0.8-1.5c0.3-0.6,0.6-1.3,0.9-1.9c1.1-1.4,2.7-2.3,4.5-2.4c2.5-0.2,4.9,0.7,6.7,2.5c2.8,2.9,3.6,7.2,4,11
		c1.5,15.6-1.1,31.2-7.3,45.5c-1.5,3.5-3.7,7.6-7.1,8.4C302.9,358.4,302.5,358.5,302.2,358.5z M272.5,283.6c-0.3,0-0.6,0-1,0
		c-4.7,0.5-8.9,4.9-9.7,10.3c-0.9,5.8,1.6,11.2,3.8,14.8c2.1,3.2,4.5,6.2,7.1,9.1c1,1.1,2,2.3,3,3.5c3.6,4.4,6.8,9.1,9.6,14l0,0
		c0.9,1.6,1.9,3.4,2.7,5.1c2.6,5,5.3,10.3,9.3,14c2.1,2,4.1,2.8,5.7,2.5c2.7-0.6,4.6-4.3,6-7.5c6.1-14.1,8.6-29.5,7.2-44.8
		c-0.3-3.6-1-7.5-3.5-10.1c-1.5-1.4-3.5-2.1-5.5-2c-1.3,0.1-2.6,0.7-3.4,1.8c-0.3,0.5-0.6,1-0.8,1.6c-0.2,0.6-0.5,1.2-0.9,1.8
		c-1,1.5-2.6,2.4-4.3,2.6c-2.8,0.3-5.6-0.5-7.8-2.2c-1.9-1.7-3.6-3.6-4.9-5.8c-0.9-1.3-1.9-2.6-3-3.9
		C279.7,285.5,276.2,283.8,272.5,283.6z"></path><path class="st2" d="M352.3,380.3c-3.6,4.4-8.2,9.1-13.9,9c-4.4,0-8.3-3-11.4-6.1c-8.1-8.4-13.3-19.2-14.8-30.8
		c-5.5,0-10.9,1.5-15.6,4.3c1.3,16.9,7.3,33.2,17.4,46.9c4.2,5.7,9.4,11.1,16.2,13.3c8.3,2.6,17.4-0.2,24.9-4.7
		c14.1-8.4,24.4-22.1,32-36.7c6.4-12.2,11.2-25.1,16-38c2.1-5.6,6.4-15.6,2.3-21.4c-3-4.1-8.8-2.9-12.2,0.1
		c-5.2,4.6-8.1,13.6-11.5,19.6c-4.1,7.3-8.3,14.4-12.8,21.4C363.8,365.2,358.3,372.9,352.3,380.3z"></path><path class="st0" d="M385.1,379.5c-0.1,0-0.2,0-0.3-0.1c-0.3-0.1-0.4-0.5-0.2-0.7c0,0,0,0,0,0c7.2-13.3,12.7-27.6,18-41.5
		c0.1-0.3,0.4-0.4,0.7-0.3c0,0,0,0,0,0c0.3,0.1,0.4,0.4,0.3,0.7c0,0,0,0,0,0c-5.3,13.9-10.8,28.2-18,41.6
		C385.6,379.4,385.3,379.5,385.1,379.5z"></path><path class="st1" d="M296.9,255.2c-0.3,0-0.5-0.2-0.6-0.4c0-0.3,0.2-0.5,0.5-0.6c14.9-3,30.3-3.4,45.3-1c0.3,0,0.5,0.3,0.4,0.6
		s-0.3,0.5-0.6,0.4l-0.9-0.1l-0.2-0.1C326.4,251.9,311.5,252.3,296.9,255.2L296.9,255.2z"></path><path class="st1" d="M298.9,263.4c-0.3,0-0.5-0.2-0.5-0.5s0.2-0.5,0.5-0.5c13.4-1.8,26.9-2.8,40.4-3c0.3,0,0.5,0.2,0.5,0.5
		c0,0.3-0.2,0.5-0.5,0.5C325.8,260.6,312.3,261.6,298.9,263.4L298.9,263.4z"></path><path class="st1" d="M320.1,274c-6.8,0-13.7-0.4-20.4-1.2c-0.3,0-0.5-0.3-0.4-0.6s0.3-0.5,0.6-0.4c13.4,1.5,26.9,1.5,40.2,0
		c0.3,0,0.5,0.2,0.6,0.4s-0.2,0.5-0.4,0.6C333.4,273.6,326.8,274,320.1,274z"></path><path class="st1" d="M338.9,283.1c-0.1,0-0.3-0.1-0.4-0.1l-39.2-0.3c-0.3,0-0.5-0.2-0.5-0.5c0-0.3,0.2-0.5,0.5-0.5c0,0,0,0,0,0
		L340,282c0.3,0,0.5,0.2,0.5,0.5c0,0.3-0.2,0.5-0.4,0.5l-1.1,0.1L338.9,283.1z"></path><path class="st0" d="M411,259.9c-0.3,0-0.5-0.2-0.5-0.5c0-0.3,0.2-0.5,0.4-0.5c0,0,0,0,0,0c2.1-0.3,3.7-2.3,3.4-4.4
		c-0.3-2.1-2.3-3.7-4.4-3.4c-0.3,0-0.5,0.1-0.7,0.2c-0.3,0.1-0.5,0-0.6-0.3c-0.1-0.3,0-0.5,0.3-0.6c2.6-0.9,5.4,0.5,6.3,3
		s-0.5,5.4-3,6.3C411.7,259.8,411.4,259.8,411,259.9L411,259.9z"></path><path class="st1" d="M288.1,321.6c-0.1,0-0.2,0-0.3-0.1c-11.4-8.9-19.8-21.1-24.1-34.9c-0.1-0.3,0.1-0.5,0.3-0.6
		c0.3-0.1,0.5,0.1,0.6,0.3c4.2,13.6,12.5,25.6,23.7,34.4c0.2,0.2,0.3,0.5,0.1,0.7C288.4,321.6,288.2,321.6,288.1,321.6z"></path></g><g id="light-bulp"><path class="st2" d="M45,165.5c-5.6,3.7-9.6,9.3-11.2,15.9c-1.2,5.5-0.6,11.2,1.8,16.3c2.3,4.8,5.9,8.8,10.5,11.5
		c4.3,2.6,9.1,4,13.9,5.4c3,0.9,6.1,1.8,9.2,1.6c3.3-0.1,6.4-1.7,8.4-4.3c1.7-2.4,2.2-5.4,2.6-8.2c1.1-8.7,1.6-17.8-1.1-25.9
		c-2.1-7-7.3-12.7-14.2-15.4C58.5,159.6,51.2,161.4,45,165.5z"></path><path class="st1" d="M74.2,238.7c7.4,0.8,18.7-5.4,20.7-13.4s-5-16.9-11-21.6c-4.9,2.6-17.5,8.5-19.8,14.4
		C62.7,221.7,70.3,238.3,74.2,238.7z"></path><path class="st1" d="M64.5,219.2c-7.8-0.2-15.5-1.7-22.7-4.4c-10.6-4.1-18.2-13.2-19.3-23.2c-1-9,2.8-18.9,10.5-27.3
		c9.4-10.3,25.3-17,37.4-9.9c6.3,3.7,11.1,11.1,13.2,20.3c1.9,8.6,1.4,17.8,0.7,25.6c-0.4,3.8-0.8,7.6-2.5,11
		C78.8,217.3,71.9,219.2,64.5,219.2z M59.2,152.5c-9.2,0-18.9,5.4-25.4,12.5c-7.3,8-11.2,17.9-10.2,26.4c1.1,9.6,8.4,18.4,18.6,22.3
		l0,0c8.1,3.1,32.7,9.2,38.6-3c1.6-3.2,2-6.9,2.4-10.6c0.7-7.8,1.2-16.8-0.7-25.3c-2-8.9-6.6-16-12.7-19.5
		C66.6,153.4,62.9,152.5,59.2,152.5z"></path><path class="st1" d="M70.3,214.7c-0.3,0-0.5-0.2-0.6-0.5c-0.3-3-1-6-2-8.9c-0.3-0.7-0.6-1.4-0.9-2c-1.4,0.7-2.9,1.2-4.4,1.5
		c-1.4,0.3-2.8,0.3-4.2-0.2c-1.5-0.6-2.4-2-2.4-3.6c0.1-1.7,1.3-3.2,2.9-3.7c1.5-0.4,3-0.2,4.3,0.6c1.7,0.9,3.1,2.3,4.2,4
		c1-0.6,2-1.2,2.9-2c-0.1-0.1-0.1-0.3-0.2-0.4c-0.7-1.3-1-2.7-1.1-4.1c0.1-1.6,1.2-3.3,2.8-3.4c0.7,0,1.4,0.3,1.8,0.8
		c0.7,0.8,1,1.9,0.9,2.9c-0.3,1.6-1.2,3-2.4,4.1l-0.4,0.4c1.8,3.8,3.8,7.4,7.2,8.8c0.3,0.1,0.4,0.5,0.3,0.7c0,0,0,0,0,0
		c-0.1,0.3-0.5,0.4-0.7,0.3c0,0,0,0,0,0c-3.6-1.6-5.8-5.2-7.6-9.1c-0.9,0.7-1.8,1.3-2.8,1.9c0.4,0.7,0.7,1.4,1,2.1c1,3,1.7,6,2,9.1
		C70.9,214.4,70.7,214.7,70.3,214.7C70.4,214.7,70.4,214.7,70.3,214.7L70.3,214.7z M60.2,198.2c-0.3,0-0.7,0-1,0.1
		c-1.2,0.4-2,1.4-2.2,2.6c0,1.1,0.7,2.2,1.8,2.6c1.1,0.4,2.3,0.4,3.5,0.1c1.4-0.3,2.7-0.7,4-1.3c-0.9-1.5-2.2-2.7-3.7-3.5
		C61.8,198.5,61,198.3,60.2,198.2z M71.8,193.1L71.8,193.1c-1,0.1-1.7,1.3-1.7,2.4c0,1.2,0.3,2.5,0.9,3.5l0.1,0.1l0.2-0.1
		c1.1-0.9,1.8-2.1,2.1-3.4c0.1-0.7-0.1-1.4-0.6-2C72.5,193.3,72.2,193.1,71.8,193.1z"></path><path class="st0" d="M67,223.9c-0.1,0-0.2-0.1-0.3-0.1c-0.2-0.2-0.2-0.5,0-0.6c0,0,0,0,0,0c4.2-4,9-7.3,14.3-9.6
		c0.2-0.1,0.5,0,0.6,0.2c0.1,0.2,0,0.5-0.2,0.6c-5.2,2.3-10,5.5-14.1,9.4C67.2,223.8,67.1,223.9,67,223.9z"></path><path class="st0" d="M69.6,228c-0.2,0-0.3-0.1-0.4-0.2c-0.1-0.2-0.1-0.5,0.1-0.6l5.6-3.6c0.2-0.1,0.5-0.1,0.6,0.1
		c0.1,0.2,0.1,0.5-0.1,0.6c0,0,0,0,0,0l-5.7,3.6C69.8,227.9,69.7,228,69.6,228z"></path><path class="st0" d="M72.3,233c-0.1,0-0.2-0.1-0.3-0.1c-0.2-0.2-0.2-0.5,0-0.6c0,0,0,0,0,0c4.9-4.6,10.3-8.5,16.2-11.6
		c0.2-0.1,0.5,0,0.6,0.2c0.1,0.2,0,0.5-0.2,0.6c0,0,0,0,0,0c-5.8,3.1-11.2,6.9-16,11.5C72.5,233,72.4,233.1,72.3,233z"></path></g></svg>