<svg width="1600" height="260" viewBox="0 0 1600 260" fill="none" xmlns="http://www.w3.org/2000/svg">
<path fill-rule="evenodd" clip-rule="evenodd" d="M1281.39 260C1300.26 250.119 1321.75 240.205 1345.02 231.741C1413.36 206.881 1510.01 190.299 1600 240.758V197.689L1594.38 183.925C1594.22 183.728 1594.01 183.58 1593.91 183.338L1584.49 159.742C1561.46 153.197 1538.58 150.304 1516.19 150.304C1430.11 150.304 1350.92 192.987 1294.02 234.758C1293.8 234.922 1293.57 235.086 1293.35 235.25C1293.07 235.456 1292.78 235.662 1292.51 235.868C1292.19 236.102 1291.88 236.336 1291.57 236.569C1291.31 236.767 1291.05 236.965 1290.78 237.163C1280.4 244.937 1270.79 252.641 1262.05 260H1281.39ZM1225.77 260H0V0L1421.81 0C1413.05 4.95746 1404.37 10.9007 1395.9 17.7942H1395.89C1325.71 74.8745 1259.99 192.236 1225.77 260ZM1231.44 260C1265.76 192.297 1330.36 77.5929 1399.13 21.668H1399.12C1410.02 12.8071 1421.39 5.5476 1432.86 0L1530.25 0C1549.97 12.7371 1565.56 34.5658 1576.77 65.215C1574.92 65.1625 1572.38 65.1541 1569.28 65.235C1569.06 65.2423 1568.8 65.2528 1568.57 65.2602C1567.55 65.2906 1566.53 65.3232 1565.39 65.3778C1564.53 65.4184 1563.6 65.4767 1562.67 65.5355L1562.21 65.5648C1561.98 65.5793 1561.77 65.5906 1561.56 65.602C1561.29 65.6162 1561.03 65.6305 1560.73 65.6509C1560.68 65.6551 1560.61 65.6604 1560.56 65.6635C1552.3 65.9755 1540.08 67.05 1524.59 70.0962C1524.56 70.1017 1524.53 70.1081 1524.5 70.1147C1524.47 70.1205 1524.44 70.1264 1524.42 70.1319C1523.29 70.3546 1522.14 70.5846 1520.98 70.8293C1453.14 84.4783 1351.9 128.93 1241.5 260H1231.44ZM1248.22 260C1250.88 256.897 1253.53 253.852 1256.17 250.845C1256.53 250.434 1256.89 250.022 1257.26 249.609C1257.96 248.806 1258.66 248.003 1259.36 247.216C1263.2 242.901 1267.03 238.7 1270.84 234.593C1271.11 234.309 1271.37 234.022 1271.64 233.736C1272.05 233.292 1272.46 232.848 1272.86 232.412C1277.01 227.985 1281.13 223.678 1285.24 219.49C1285.4 219.322 1285.57 219.154 1285.73 218.985C1285.9 218.811 1286.07 218.636 1286.24 218.463C1290.62 214.016 1294.97 209.694 1299.31 205.507C1299.33 205.482 1299.36 205.457 1299.39 205.431C1299.42 205.394 1299.46 205.356 1299.5 205.32C1321.86 183.74 1343.59 165.603 1364.38 150.356C1364.55 150.23 1364.72 150.106 1364.89 149.981C1368.74 147.166 1372.56 144.46 1376.34 141.841C1376.76 141.552 1377.17 141.267 1377.59 140.982L1378.07 140.651C1381.4 138.364 1384.71 136.153 1387.98 134.011C1389.05 133.313 1390.12 132.631 1391.18 131.949L1391.43 131.792C1394.07 130.095 1396.69 128.438 1399.29 126.834C1401.28 125.617 1403.24 124.435 1405.2 123.269C1406.9 122.254 1408.6 121.242 1410.28 120.266C1413.43 118.444 1416.56 116.676 1419.65 114.982C1419.84 114.879 1420.03 114.773 1420.22 114.668C1420.47 114.526 1420.73 114.383 1420.98 114.245C1482.01 81.0864 1531.19 72.5541 1559.32 70.7737L1563.29 79.0392L1566.96 86.6934C1574.81 104.154 1593.07 144.829 1599.63 159.576C1597.26 158.681 1594.88 157.903 1592.51 157.125C1591.87 156.913 1591.22 156.702 1590.57 156.487C1589.42 156.077 1588.3 155.678 1587.25 155.31C1587.24 155.307 1587.23 155.308 1587.22 155.308C1587.21 155.309 1587.2 155.31 1587.19 155.307C1587.16 155.298 1587.14 155.274 1587.11 155.266C1587.02 155.24 1586.93 155.217 1586.84 155.194C1586.74 155.169 1586.65 155.143 1586.55 155.115C1478.16 121.278 1371.4 173.066 1297.89 225.799C1296.37 226.878 1294.87 227.958 1293.38 229.038C1293.22 229.153 1293.06 229.267 1292.91 229.382C1292.66 229.559 1292.42 229.736 1292.18 229.913C1278.1 240.194 1265.34 250.434 1254.15 260H1248.22ZM1538.75 0C1557.41 14.3717 1572.39 37.0524 1582.83 67.1005C1582.86 67.1736 1582.86 67.2482 1582.86 67.3231C1582.86 67.3784 1582.86 67.4338 1582.87 67.4891C1582.9 67.6971 1582.93 67.8914 1582.91 68.1004C1582.9 68.2958 1582.85 68.4681 1582.79 68.6529C1582.77 68.7051 1582.77 68.7587 1582.76 68.812C1582.75 68.8844 1582.74 68.9561 1582.71 69.0227L1573.17 88.1576L1589.2 123.84C1593.93 134.383 1597.43 142.191 1600 147.999V0L1538.75 0ZM1600 165.213V167.802L1596.49 175.686L1590.88 161.928C1594.2 163.116 1597.57 164.334 1600 165.213ZM1600 180.276V184.271L1599.15 182.188L1600 180.276ZM1600 246.542V260H1293.11C1372.2 220.721 1492.16 184.43 1600 246.542ZM1568.33 77.8396L1570.45 82.2555L1576.44 70.2338C1573.87 70.1718 1569.94 70.1655 1564.88 70.426L1564.78 70.4323L1568.33 77.8396Z" fill="#E4E4E4"/>
</svg>
