<svg width="49" height="38" viewBox="0 0 49 38" fill="none" xmlns="http://www.w3.org/2000/svg">
<path d="M46.875 0H1.875C1.37772 0 0.900805 0.197544 0.549175 0.549175C0.197544 0.900806 0 1.37772 0 1.875V33.75C0 34.7446 0.395088 35.6984 1.09835 36.4016C1.80161 37.1049 2.75544 37.5 3.75 37.5H45C45.9946 37.5 46.9484 37.1049 47.6516 36.4016C48.3549 35.6984 48.75 34.7446 48.75 33.75V1.875C48.75 1.37772 48.5525 0.900806 48.2008 0.549175C47.8492 0.197544 47.3723 0 46.875 0ZM42.0539 3.75L24.375 19.957L6.69609 3.75H42.0539ZM45 33.75H3.75V6.13828L23.107 23.8828C23.4529 24.2004 23.9054 24.3766 24.375 24.3766C24.8446 24.3766 25.2971 24.2004 25.643 23.8828L45 6.13828V33.75Z" fill="#7E7E7E"/>
</svg>
