<svg width="36" height="35" viewBox="0 0 36 35" fill="none" xmlns="http://www.w3.org/2000/svg">
<path d="M16.8937 18.668L1.26866 3.04297C0.975471 2.74978 0.81076 2.35213 0.81076 1.9375C0.81076 1.52287 0.975471 1.12522 1.26866 0.832029C1.56185 0.53884 1.9595 0.374129 2.37413 0.374129C2.78876 0.374129 3.18641 0.53884 3.4796 0.832029L17.9991 15.3535L32.5187 0.83203C32.8119 0.538842 33.2095 0.37413 33.6241 0.37413C34.0388 0.37413 34.4364 0.538842 34.7296 0.83203C35.0228 1.12522 35.1875 1.52287 35.1875 1.9375C35.1875 2.35213 35.0228 2.74978 34.7296 3.04297L19.1046 18.668C18.9595 18.8132 18.7872 18.9285 18.5975 19.0071C18.4078 19.0858 18.2045 19.1262 17.9991 19.1262C17.7938 19.1262 17.5905 19.0858 17.4008 19.0071C17.2111 18.9285 17.0388 18.8132 16.8937 18.668ZM19.1046 34.293L34.7296 18.668C35.0228 18.3748 35.1875 17.9771 35.1875 17.5625C35.1875 17.1479 35.0228 16.7502 34.7296 16.457C34.4364 16.1638 34.0388 15.9991 33.6241 15.9991C33.2095 15.9991 32.8119 16.1638 32.5187 16.457L17.9991 30.9785L3.4796 16.457C3.18641 16.1638 2.78876 15.9991 2.37413 15.9991C1.9595 15.9991 1.56185 16.1638 1.26866 16.457C0.975471 16.7502 0.81076 17.1479 0.81076 17.5625C0.81076 17.9771 0.975471 18.3748 1.26866 18.668L16.8937 34.293C17.0388 34.4382 17.2111 34.5535 17.4008 34.6321C17.5905 34.7108 17.7938 34.7512 17.9991 34.7512C18.2045 34.7512 18.4078 34.7108 18.5975 34.6321C18.7872 34.5535 18.9595 34.4382 19.1046 34.293Z" fill="#8A0B24"/>
</svg>
