<svg width="32" height="32" viewBox="0 0 32 32" fill="none" xmlns="http://www.w3.org/2000/svg">
<path d="M16 8.875C14.5908 8.875 13.2133 9.29287 12.0416 10.0758C10.8699 10.8587 9.95663 11.9715 9.41736 13.2734C8.87808 14.5753 8.73699 16.0079 9.01191 17.39C9.28683 18.7721 9.96542 20.0417 10.9619 21.0381C11.9583 22.0346 13.2279 22.7132 14.61 22.9881C15.9921 23.263 17.4247 23.1219 18.7266 22.5826C20.0285 22.0434 21.1413 21.1301 21.9242 19.9584C22.7071 18.7867 23.125 17.4092 23.125 16C23.123 14.1109 22.3717 12.2998 21.036 10.964C19.7002 9.62826 17.8891 8.87696 16 8.875ZM16 20.75C15.0605 20.75 14.1422 20.4714 13.361 19.9495C12.5799 19.4275 11.9711 18.6857 11.6116 17.8177C11.2521 16.9498 11.158 15.9947 11.3413 15.0733C11.5245 14.1519 11.9769 13.3055 12.6412 12.6412C13.3055 11.9769 14.1519 11.5245 15.0733 11.3413C15.9947 11.158 16.9498 11.2521 17.8177 11.6116C18.6857 11.9711 19.4275 12.5799 19.9495 13.361C20.4714 14.1422 20.75 15.0605 20.75 16C20.75 17.2598 20.2496 18.468 19.3588 19.3588C18.468 20.2496 17.2598 20.75 16 20.75ZM23.125 0.5625H8.875C6.67111 0.564858 4.55816 1.44139 2.99978 2.99978C1.44139 4.55816 0.564858 6.67111 0.5625 8.875V23.125C0.564858 25.3289 1.44139 27.4418 2.99978 29.0002C4.55816 30.5586 6.67111 31.4351 8.875 31.4375H23.125C25.3289 31.4351 27.4418 30.5586 29.0002 29.0002C30.5586 27.4418 31.4351 25.3289 31.4375 23.125V8.875C31.4351 6.67111 30.5586 4.55816 29.0002 2.99978C27.4418 1.44139 25.3289 0.564858 23.125 0.5625ZM29.0625 23.125C29.0625 24.6997 28.4369 26.2099 27.3234 27.3234C26.2099 28.4369 24.6997 29.0625 23.125 29.0625H8.875C7.30028 29.0625 5.79005 28.4369 4.67655 27.3234C3.56306 26.2099 2.9375 24.6997 2.9375 23.125V8.875C2.9375 7.30028 3.56306 5.79005 4.67655 4.67655C5.79005 3.56306 7.30028 2.9375 8.875 2.9375H23.125C24.6997 2.9375 26.2099 3.56306 27.3234 4.67655C28.4369 5.79005 29.0625 7.30028 29.0625 8.875V23.125ZM25.5 8.28125C25.5 8.63355 25.3955 8.97793 25.1998 9.27086C25.0041 9.56378 24.7259 9.79209 24.4004 9.92691C24.0749 10.0617 23.7168 10.097 23.3712 10.0283C23.0257 9.95954 22.7083 9.7899 22.4592 9.54078C22.2101 9.29167 22.0405 8.97428 21.9717 8.62876C21.903 8.28323 21.9383 7.92508 22.0731 7.5996C22.2079 7.27411 22.4362 6.99592 22.7291 6.80019C23.0221 6.60447 23.3665 6.5 23.7188 6.5C24.1912 6.5 24.6442 6.68767 24.9783 7.02172C25.3123 7.35576 25.5 7.80883 25.5 8.28125Z" fill="white"/>
</svg>
