<svg width="42" height="53" viewBox="0 0 42 53" fill="none" xmlns="http://www.w3.org/2000/svg">
<path d="M20.625 11.25C18.7708 11.25 16.9582 11.7998 15.4165 12.83C13.8748 13.8601 12.6732 15.3243 11.9636 17.0373C11.2541 18.7504 11.0684 20.6354 11.4301 22.454C11.7919 24.2725 12.6848 25.943 13.9959 27.2541C15.307 28.5652 16.9775 29.4581 18.796 29.8199C20.6146 30.1816 22.4996 29.9959 24.2127 29.2864C25.9257 28.5768 27.3899 27.3752 28.42 25.8335C29.4502 24.2918 30 22.4792 30 20.625C30 18.1386 29.0123 15.754 27.2541 13.9959C25.496 12.2377 23.1114 11.25 20.625 11.25ZM20.625 26.25C19.5125 26.25 18.4249 25.9201 17.4999 25.302C16.5749 24.6839 15.8539 23.8054 15.4282 22.7776C15.0024 21.7498 14.891 20.6188 15.1081 19.5276C15.3251 18.4365 15.8609 17.4342 16.6475 16.6475C17.4342 15.8609 18.4365 15.3251 19.5276 15.1081C20.6188 14.891 21.7498 15.0024 22.7776 15.4282C23.8054 15.8539 24.6839 16.5749 25.302 17.4999C25.9201 18.4249 26.25 19.5125 26.25 20.625C26.25 22.1168 25.6574 23.5476 24.6025 24.6025C23.5476 25.6574 22.1168 26.25 20.625 26.25ZM20.625 0C15.1568 0.00620328 9.91437 2.18118 6.04777 6.04777C2.18118 9.91437 0.00620328 15.1568 0 20.625C0 27.9844 3.40078 35.7844 9.84375 43.1836C12.7388 46.5271 15.9972 49.5378 19.5586 52.1602C19.8739 52.381 20.2495 52.4995 20.6344 52.4995C21.0193 52.4995 21.3949 52.381 21.7102 52.1602C25.265 49.5367 28.517 46.526 31.4062 43.1836C37.8398 35.7844 41.25 27.9844 41.25 20.625C41.2438 15.1568 39.0688 9.91437 35.2022 6.04777C31.3356 2.18118 26.0932 0.00620328 20.625 0ZM20.625 48.2812C16.7508 45.2344 3.75 34.043 3.75 20.625C3.75 16.1495 5.5279 11.8572 8.69257 8.69257C11.8572 5.5279 16.1495 3.75 20.625 3.75C25.1005 3.75 29.3927 5.5279 32.5574 8.69257C35.7221 11.8572 37.5 16.1495 37.5 20.625C37.5 34.0383 24.4992 45.2344 20.625 48.2812Z" fill="#7E7E7E"/>
</svg>
