<svg width="157" height="121" viewBox="0 0 157 121" fill="none" xmlns="http://www.w3.org/2000/svg">
<path d="M52.4606 90.8075C33.4874 97.6921 17.7659 107.217 8.70623 113.34C14.1045 108.046 22.3613 100.505 32.7035 92.7777C32.9153 92.6208 33.1202 92.4643 33.3336 92.3071C33.5146 92.1723 33.7009 92.0384 33.8832 91.9036C54.6117 76.7257 83.4594 61.216 114.814 61.216C122.968 61.216 131.303 62.2672 139.695 64.6454L143.125 73.2196C143.16 73.3074 143.238 73.3612 143.296 73.4326L153.985 99.5424C118.881 74.7055 79.5606 80.9741 52.4606 90.8075ZM72.1714 14.4745H72.1706C85.1378 3.95562 99.9558 -0.352318 111.807 2.94953C122.929 6.04948 131.36 15.2466 136.882 30.2979C136.208 30.2788 135.281 30.2757 134.154 30.3051C134.071 30.3078 133.978 30.3116 133.893 30.3143C133.522 30.3254 133.15 30.3372 132.735 30.357C132.37 30.3742 131.973 30.4002 131.576 30.425C131.392 30.4368 131.231 30.4429 131.04 30.4563C131.019 30.4578 130.996 30.4597 130.975 30.4609C127.969 30.5742 123.517 30.9647 117.873 32.0715C117.852 32.0753 117.831 32.0803 117.81 32.0845C117.399 32.1654 116.983 32.249 116.558 32.3379C90.6482 37.5378 51.3658 55.0417 8.88166 108.225C8.02892 109.289 7.17498 110.369 6.32047 111.462C6.01012 111.86 5.70191 112.235 5.39144 112.636C15.0201 92.4559 42.5343 38.5168 72.1714 14.4745ZM134.58 36.4898L133.808 34.8852L132.513 32.1936C132.525 32.1929 132.538 32.1921 132.549 32.1914C134.393 32.0967 135.824 32.099 136.763 32.1215L134.58 36.4898ZM145.21 64.585C144.109 64.1717 143.01 63.8267 141.91 63.4629C141.49 63.3137 141.08 63.1687 140.7 63.0351C140.692 63.0328 140.684 63.0362 140.676 63.0339C140.666 63.0309 140.659 63.0221 140.649 63.019C140.581 62.9996 140.512 62.9839 140.443 62.9641C100.96 50.6693 62.0709 69.4869 35.2931 88.6483C34.7409 89.0403 34.1924 89.4327 33.6506 89.825C33.5052 89.9311 33.3591 90.0369 33.2143 90.143C24.1137 96.7696 16.5388 103.35 10.955 108.597C11.0637 108.463 11.1731 108.321 11.282 108.186C12.4108 106.791 13.5362 105.434 14.6605 104.089C15.2051 103.437 15.7507 102.776 16.2943 102.136C17.5656 100.639 18.8333 99.1821 20.098 97.7489C20.4849 97.3096 20.8729 96.8631 21.2591 96.4303C22.6586 94.8623 24.0526 93.336 25.4421 91.8437C25.6871 91.5804 25.9329 91.3117 26.1777 91.051C27.6865 89.4426 29.1894 87.8774 30.6855 86.3556C30.8068 86.232 30.9286 86.106 31.0497 85.9827C32.6446 84.3667 34.232 82.7962 35.8107 81.2748C35.8342 81.2523 35.8576 81.229 35.8811 81.2069C44.0251 73.3654 51.9396 66.7751 59.5149 61.2351C59.5772 61.1893 59.6395 61.1443 59.7017 61.0989C61.1038 60.076 62.4927 59.0928 63.8705 58.1409C64.0812 57.9955 64.2915 57.8523 64.5019 57.7085C65.7151 56.8775 66.9183 56.0741 68.1115 55.2959C68.5314 55.0226 68.949 54.7562 69.3666 54.4894C70.3287 53.873 71.2847 53.2707 72.2325 52.6879C72.9547 52.2456 73.6711 51.8162 74.3855 51.3925C75.0039 51.0238 75.6222 50.6559 76.2344 50.3013C77.3822 49.6395 78.5212 48.9968 79.6479 48.3815C79.809 48.293 79.9716 48.201 80.1324 48.1136C102.363 36.065 120.276 32.9646 130.524 32.3177L131.97 35.3211L133.308 38.1023C136.167 44.4469 142.82 59.2267 145.21 64.585ZM144.066 70.4391L142.02 65.44C143.405 65.9339 144.815 66.4426 145.704 66.764L144.066 70.4391ZM156.932 101.867L145.033 72.8017L147.794 66.6098C147.898 66.3801 147.899 66.1182 147.8 65.8865C147.742 65.7533 147.648 65.6446 147.536 65.5533C146.997 64.0316 145.406 60.4924 141.408 51.6002L135.572 38.6344L139.044 31.6814C139.065 31.6395 139.06 31.5918 139.074 31.5471C139.096 31.4799 139.114 31.4173 139.12 31.3463C139.126 31.2704 139.115 31.1998 139.102 31.1242C139.093 31.0769 139.106 31.0292 139.09 30.983C133.453 14.8066 124.193 4.50638 112.31 1.19537C99.6882 -2.32174 84.6295 2.00681 70.9951 13.0669H70.9939C33.9951 43.0809 0.405413 118.963 0.0705964 119.726C0.0654898 119.738 0.0669934 119.75 0.0624866 119.762C0.0527233 119.786 0.0450635 119.81 0.0375535 119.835C0.0252369 119.878 0.0219299 119.92 0.0159235 119.963C0.0102132 120.005 0 120.046 0 120.087C0 120.114 0.00315315 120.14 0.00570645 120.167C0.00946333 120.208 0.0199766 120.248 0.0294399 120.289C0.0390533 120.329 0.0449136 120.368 0.0597835 120.407C0.0699967 120.434 0.0835168 120.46 0.0967332 120.486C0.11491 120.523 0.13789 120.555 0.161473 120.59C0.184907 120.625 0.206686 120.659 0.235076 120.69C0.24529 120.701 0.249197 120.716 0.25986 120.727C0.27353 120.74 0.292307 120.746 0.306727 120.758C0.322046 120.771 0.329556 120.791 0.34608 120.803C0.36681 120.819 0.391893 120.825 0.413673 120.84C0.431246 120.851 0.442513 120.869 0.46129 120.879C0.47631 120.888 0.493583 120.884 0.50891 120.892C0.537135 120.906 0.562514 120.924 0.592277 120.936C0.698485 120.975 0.808269 121 0.919284 121C0.919284 121 0.919438 121 0.919707 121H0.920015C1.03795 121 1.15362 120.971 1.26475 120.927C1.28232 120.92 1.29932 120.915 1.31658 120.907C1.343 120.895 1.363 120.873 1.38822 120.858C1.42744 120.836 1.46994 120.822 1.50612 120.793C2.36594 120.097 88.2945 52.0005 155.51 102.931C155.844 103.179 156.303 103.183 156.634 102.934C156.966 102.686 157.089 102.249 156.932 101.867Z" fill="#8A0B24"/>
</svg>
