<svg width="318" height="77" viewBox="0 0 318 77" fill="none" xmlns="http://www.w3.org/2000/svg">
<path d="M184.327 76.6563C183.881 76.4271 183.535 76.1014 183.289 75.6788C183.044 75.2561 182.922 74.7723 182.922 74.2251V71.0997C182.922 70.5524 183.044 70.0716 183.289 69.6575C183.535 69.2433 183.881 68.9217 184.327 68.6923C184.773 68.4626 185.287 68.3484 185.865 68.3484C186.445 68.3484 186.955 68.459 187.398 68.6799C187.841 68.9017 188.184 69.2131 188.43 69.6156C188.675 70.0173 188.798 70.4837 188.798 71.0149V71.0274C188.798 71.0672 188.786 71.0997 188.761 71.1236C188.737 71.1482 188.709 71.1597 188.677 71.1597L187.76 71.2084C187.68 71.2084 187.64 71.1722 187.64 71.0997V71.0636C187.64 70.5485 187.478 70.1345 187.157 69.8202C186.834 69.5072 186.404 69.35 185.865 69.35C185.327 69.35 184.894 69.5072 184.569 69.8202C184.242 70.1345 184.079 70.5485 184.079 71.0636V74.2727C184.079 74.7877 184.242 75.2018 184.569 75.5159C184.894 75.83 185.327 75.9861 185.865 75.9861C186.404 75.9861 186.834 75.83 187.157 75.5159C187.478 75.2018 187.64 74.7877 187.64 74.2727V74.2487C187.64 74.1766 187.68 74.1405 187.76 74.1405L188.677 74.1887C188.757 74.1887 188.798 74.229 188.798 74.3089C188.798 74.8401 188.675 75.3094 188.43 75.7149C188.184 76.1213 187.841 76.4373 187.398 76.6621C186.955 76.8877 186.445 77 185.865 77C185.287 77 184.773 76.8858 184.327 76.6563Z" fill="#8A0B24"/>
<path d="M194.493 75.4921C194.831 75.1542 195 74.7078 195 74.1526V71.2205C195 70.6572 194.831 70.2049 194.493 69.8632C194.155 69.5214 193.713 69.35 193.165 69.35C192.619 69.35 192.178 69.5214 191.844 69.8632C191.511 70.2049 191.343 70.6572 191.343 71.2205V74.1526C191.343 74.7078 191.511 75.1542 191.844 75.4921C192.178 75.83 192.619 75.9986 193.165 75.9986C193.713 75.9986 194.155 75.83 194.493 75.4921ZM191.609 76.6383C191.158 76.3965 190.808 76.0564 190.559 75.6188C190.309 75.1797 190.186 74.6753 190.186 74.1041V71.232C190.186 70.6609 190.309 70.1583 190.559 69.7241C190.808 69.2901 191.158 68.9522 191.609 68.7103C192.059 68.4696 192.578 68.3484 193.165 68.3484C193.761 68.3484 194.284 68.4696 194.734 68.7103C195.184 68.9522 195.535 69.2901 195.784 69.7241C196.034 70.1583 196.158 70.6609 196.158 71.232V74.1041C196.158 74.6753 196.034 75.1797 195.784 75.6188C195.535 76.0564 195.184 76.3965 194.734 76.6383C194.284 76.8792 193.761 77 193.165 77C192.578 77 192.059 76.8792 191.609 76.6383Z" fill="#8A0B24"/>
<path d="M199.018 69.4949V72.1975C199.018 72.2298 199.034 72.2457 199.067 72.2457H201.082C201.507 72.2457 201.85 72.1195 202.107 71.866C202.364 71.6129 202.494 71.2769 202.494 70.858C202.494 70.4325 202.364 70.0899 202.107 69.8328C201.85 69.5757 201.507 69.4462 201.082 69.4462H199.067C199.034 69.4462 199.018 69.4625 199.018 69.4949ZM202.541 76.807L200.852 73.1988C200.844 73.175 200.828 73.1627 200.804 73.1627H199.067C199.034 73.1627 199.018 73.1788 199.018 73.2114V76.7706C199.018 76.8516 198.978 76.8915 198.897 76.8915H197.98C197.9 76.8915 197.859 76.8516 197.859 76.7706V68.5657C197.859 68.4856 197.9 68.4446 197.98 68.4446H201.227C201.709 68.4446 202.133 68.5456 202.499 68.7463C202.865 68.9484 203.148 69.2293 203.35 69.591C203.551 69.9536 203.652 70.3714 203.652 70.8465C203.652 71.4092 203.504 71.8861 203.211 72.2764C202.917 72.6668 202.51 72.9295 201.986 73.0666C201.954 73.0827 201.946 73.1027 201.962 73.1266L203.712 76.747C203.72 76.7631 203.724 76.7829 203.724 76.807C203.724 76.8629 203.692 76.8915 203.627 76.8915H202.674C202.61 76.8915 202.566 76.8629 202.541 76.807Z" fill="#8A0B24"/>
<path d="M206.354 69.4949V72.1975C206.354 72.2298 206.37 72.2457 206.402 72.2457H208.418C208.843 72.2457 209.186 72.1195 209.443 71.866C209.7 71.6129 209.829 71.2769 209.829 70.858C209.829 70.4325 209.7 70.0899 209.443 69.8328C209.186 69.5757 208.843 69.4462 208.418 69.4462H206.402C206.37 69.4462 206.354 69.4625 206.354 69.4949ZM209.877 76.807L208.188 73.1988C208.18 73.175 208.164 73.1627 208.14 73.1627H206.402C206.37 73.1627 206.354 73.1788 206.354 73.2114V76.7706C206.354 76.8516 206.314 76.8915 206.233 76.8915H205.316C205.236 76.8915 205.195 76.8516 205.195 76.7706V68.5657C205.195 68.4856 205.236 68.4446 205.316 68.4446H208.562C209.045 68.4446 209.469 68.5456 209.835 68.7463C210.201 68.9484 210.484 69.2293 210.686 69.591C210.887 69.9536 210.989 70.3714 210.989 70.8465C210.989 71.4092 210.84 71.8861 210.547 72.2764C210.253 72.6668 209.846 72.9295 209.322 73.0666C209.29 73.0827 209.282 73.1027 209.298 73.1266L211.048 76.747C211.057 76.7631 211.061 76.7829 211.061 76.807C211.061 76.8629 211.029 76.8915 210.963 76.8915H210.01C209.946 76.8915 209.902 76.8629 209.877 76.807Z" fill="#8A0B24"/>
<path d="M218.022 69.4462H213.737C213.705 69.4462 213.69 69.4625 213.69 69.4949V72.0888C213.69 72.1214 213.705 72.1375 213.737 72.1375H216.682C216.763 72.1375 216.801 72.1773 216.801 72.2583V73.0179C216.801 73.0989 216.763 73.1389 216.682 73.1389H213.737C213.705 73.1389 213.69 73.1551 213.69 73.1874V75.8415C213.69 75.8738 213.705 75.89 213.737 75.89H218.022C218.103 75.89 218.141 75.9302 218.141 76.011V76.7706C218.141 76.8516 218.103 76.8915 218.022 76.8915H212.652C212.572 76.8915 212.531 76.8516 212.531 76.7706V68.5657C212.531 68.4856 212.572 68.4446 212.652 68.4446H218.022C218.103 68.4446 218.141 68.4856 218.141 68.5657V69.3262C218.141 69.4062 218.103 69.4462 218.022 69.4462Z" fill="#8A0B24"/>
<path d="M225.179 68.5657V69.3377C225.179 69.4188 225.136 69.4585 225.057 69.4585H222.739C222.708 69.4585 222.693 69.4747 222.693 69.5072V76.7706C222.693 76.8516 222.65 76.8915 222.571 76.8915H221.653C221.574 76.8915 221.534 76.8516 221.534 76.7706V69.5072C221.534 69.4747 221.517 69.4585 221.485 69.4585H219.275C219.197 69.4585 219.156 69.4188 219.156 69.3377V68.5657C219.156 68.4856 219.197 68.4446 219.275 68.4446H225.057C225.136 68.4446 225.179 68.4856 225.179 68.5657Z" fill="#8A0B24"/>
<path d="M230.136 75.4921C230.475 75.1542 230.643 74.7078 230.643 74.1526V71.2205C230.643 70.6572 230.475 70.2049 230.136 69.8632C229.798 69.5214 229.356 69.35 228.807 69.35C228.261 69.35 227.821 69.5214 227.487 69.8632C227.153 70.2049 226.987 70.6572 226.987 71.2205V74.1526C226.987 74.7078 227.153 75.1542 227.487 75.4921C227.821 75.83 228.261 75.9986 228.807 75.9986C229.356 75.9986 229.798 75.83 230.136 75.4921ZM227.251 76.6383C226.802 76.3965 226.451 76.0564 226.202 75.6188C225.951 75.1797 225.828 74.6753 225.828 74.1041V71.232C225.828 70.6609 225.951 70.1583 226.202 69.7241C226.451 69.2901 226.802 68.9522 227.251 68.7103C227.702 68.4696 228.22 68.3484 228.807 68.3484C229.405 68.3484 229.926 68.4696 230.377 68.7103C230.828 68.9522 231.178 69.2901 231.427 69.7241C231.676 70.1583 231.802 70.6609 231.802 71.232V74.1041C231.802 74.6753 231.676 75.1797 231.427 75.6188C231.178 76.0564 230.828 76.3965 230.377 76.6383C229.926 76.8792 229.405 77 228.807 77C228.22 77 227.702 76.8792 227.251 76.6383Z" fill="#8A0B24"/>
<path d="M234.663 69.4949V72.1975C234.663 72.2298 234.678 72.2457 234.71 72.2457H236.726C237.151 72.2457 237.493 72.1195 237.751 71.866C238.008 71.6129 238.138 71.2769 238.138 70.858C238.138 70.4325 238.008 70.0899 237.751 69.8328C237.493 69.5757 237.151 69.4462 236.726 69.4462H234.71C234.678 69.4462 234.663 69.4625 234.663 69.4949ZM238.184 76.807L236.496 73.1988C236.487 73.175 236.473 73.1627 236.447 73.1627H234.71C234.678 73.1627 234.663 73.1788 234.663 73.2114V76.7706C234.663 76.8516 234.622 76.8915 234.542 76.8915H233.625C233.544 76.8915 233.504 76.8516 233.504 76.7706V68.5657C233.504 68.4856 233.544 68.4446 233.625 68.4446H236.87C237.353 68.4446 237.776 68.5456 238.144 68.7463C238.51 68.9484 238.793 69.2293 238.995 69.591C239.195 69.9536 239.297 70.3714 239.297 70.8465C239.297 71.4092 239.148 71.8861 238.856 72.2764C238.561 72.6668 238.155 72.9295 237.629 73.0666C237.597 73.0827 237.591 73.1027 237.606 73.1266L239.356 76.747C239.365 76.7631 239.369 76.7829 239.369 76.807C239.369 76.8629 239.337 76.8915 239.271 76.8915H238.318C238.255 76.8915 238.21 76.8629 238.184 76.807Z" fill="#8A0B24"/>
<path d="M242.558 74.4116C242.571 74.4242 242.583 74.4297 242.6 74.4297H245.376C245.393 74.4297 245.405 74.4242 245.418 74.4116C245.429 74.4002 245.431 74.3859 245.422 74.3698L244.023 69.8928C244.017 69.8766 244.004 69.8689 243.987 69.8689C243.972 69.8689 243.959 69.8766 243.951 69.8928L242.552 74.3698C242.543 74.3859 242.545 74.4002 242.558 74.4116ZM246.171 76.7954L245.737 75.3834C245.729 75.3588 245.714 75.3473 245.688 75.3473H242.298C242.275 75.3473 242.258 75.3588 242.25 75.3834L241.816 76.7954C241.792 76.8592 241.743 76.8915 241.671 76.8915H240.693C240.606 76.8915 240.574 76.8478 240.597 76.7591L243.238 68.542C243.264 68.4771 243.311 68.4446 243.383 68.4446H244.591C244.663 68.4446 244.712 68.4771 244.735 68.542L247.402 76.7591L247.415 76.807C247.415 76.8629 247.379 76.8915 247.306 76.8915H246.315C246.243 76.8915 246.196 76.8592 246.171 76.7954Z" fill="#8A0B24"/>
<path d="M252.29 75.89H254.172C254.64 75.89 255.012 75.7473 255.288 75.4617C255.567 75.1761 255.709 74.7914 255.718 74.3089V71.0275C255.718 70.5448 255.579 70.1602 255.301 69.8746C255.024 69.5889 254.648 69.4462 254.172 69.4462H252.29C252.258 69.4462 252.243 69.4625 252.243 69.4949V75.8415C252.243 75.8738 252.258 75.89 252.29 75.89ZM251.084 76.7706V68.5657C251.084 68.4856 251.124 68.4446 251.205 68.4446H254.125C254.961 68.4446 255.628 68.6647 256.128 69.1025C256.626 69.5415 256.877 70.1268 256.877 70.858V74.4784C256.877 75.2103 256.626 75.7958 256.128 76.2336C255.628 76.6726 254.961 76.8915 254.125 76.8915H251.205C251.124 76.8915 251.084 76.8516 251.084 76.7706Z" fill="#8A0B24"/>
<path d="M263.971 69.4462H259.688C259.654 69.4462 259.639 69.4625 259.639 69.4949V72.0888C259.639 72.1214 259.654 72.1375 259.688 72.1375H262.631C262.712 72.1375 262.753 72.1773 262.753 72.2583V73.0179C262.753 73.0989 262.712 73.1389 262.631 73.1389H259.688C259.654 73.1389 259.639 73.1551 259.639 73.1874V75.8415C259.639 75.8738 259.654 75.89 259.688 75.89H263.971C264.052 75.89 264.092 75.9302 264.092 76.011V76.7706C264.092 76.8516 264.052 76.8915 263.971 76.8915H258.602C258.521 76.8915 258.48 76.8516 258.48 76.7706V68.5657C258.48 68.4856 258.521 68.4446 258.602 68.4446H263.971C264.052 68.4446 264.092 68.4856 264.092 68.5657V69.3262C264.092 69.4062 264.052 69.4462 263.971 69.4462Z" fill="#8A0B24"/>
<path d="M268.985 76.6982C268.53 76.5049 268.179 76.2319 267.934 75.8779C267.688 75.5244 267.566 75.1093 267.566 74.6353V74.2849C267.566 74.205 267.607 74.1641 267.686 74.1641H268.568C268.649 74.1641 268.689 74.205 268.689 74.2849V74.5745C268.689 74.9847 268.866 75.3226 269.219 75.5882C269.574 75.8539 270.059 75.9861 270.68 75.9861C271.235 75.9861 271.651 75.87 271.934 75.637C272.215 75.4036 272.358 75.098 272.358 74.7192C272.358 74.4705 272.285 74.2575 272.141 74.0803C271.994 73.9032 271.783 73.7404 271.505 73.5912C271.228 73.4426 270.824 73.2637 270.293 73.0541C269.706 72.8294 269.24 72.6238 268.9 72.4393C268.557 72.2547 268.275 72.0107 268.049 71.709C267.824 71.4072 267.711 71.0275 267.711 70.5686C267.711 69.8766 267.958 69.3339 268.453 68.9398C268.949 68.5456 269.619 68.3485 270.463 68.3485C271.058 68.3485 271.579 68.4495 272.03 68.6504C272.481 68.8513 272.83 69.1332 273.074 69.4949C273.321 69.8564 273.442 70.2753 273.442 70.7494V70.9913C273.442 71.0712 273.402 71.1121 273.323 71.1121H272.417C272.336 71.1121 272.296 71.0712 272.296 70.9913V70.8103C272.296 70.3917 272.13 70.0442 271.794 69.766C271.462 69.4891 271.001 69.3501 270.414 69.3501C269.914 69.3501 269.529 69.453 269.255 69.6575C268.983 69.8632 268.844 70.1583 268.844 70.5448C268.844 70.8103 268.913 71.0275 269.051 71.1958C269.187 71.3654 269.391 71.5157 269.659 71.649C269.929 71.7813 270.342 71.9529 270.897 72.1611C271.466 72.387 271.93 72.5943 272.285 72.7829C272.638 72.9724 272.932 73.2216 273.166 73.531C273.397 73.8406 273.514 74.2251 273.514 74.6829C273.514 75.3913 273.255 75.953 272.736 76.367C272.217 76.7812 271.503 76.9877 270.595 76.9877C269.976 76.9877 269.438 76.8915 268.985 76.6982Z" fill="#8A0B24"/>
<path d="M280.514 69.4462H276.229C276.197 69.4462 276.18 69.4625 276.18 69.4949V72.0888C276.18 72.1214 276.197 72.1375 276.229 72.1375H279.174C279.253 72.1375 279.294 72.1773 279.294 72.2583V73.0179C279.294 73.0989 279.253 73.1389 279.174 73.1389H276.229C276.197 73.1389 276.18 73.1551 276.18 73.1874V75.8415C276.18 75.8738 276.197 75.89 276.229 75.89H280.514C280.593 75.89 280.633 75.9302 280.633 76.011V76.7706C280.633 76.8516 280.593 76.8915 280.514 76.8915H275.143C275.064 76.8915 275.023 76.8516 275.023 76.7706V68.5657C275.023 68.4856 275.064 68.4446 275.143 68.4446H280.514C280.593 68.4446 280.633 68.4856 280.633 68.5657V69.3262C280.633 69.4062 280.593 69.4462 280.514 69.4462Z" fill="#8A0B24"/>
<path d="M283.355 76.6441C282.908 76.4146 282.564 76.089 282.317 75.6663C282.072 75.2446 281.951 74.7602 281.951 74.2128V71.1236C281.951 70.5686 282.072 70.0822 282.317 69.6643C282.564 69.2454 282.908 68.9218 283.355 68.6923C283.801 68.4627 284.316 68.3485 284.894 68.3485C285.473 68.3485 285.983 68.4609 286.428 68.6865C286.87 68.9113 287.212 69.2235 287.459 69.6214C287.703 70.0193 287.827 70.4686 287.827 70.9664V71.0997C287.827 71.1797 287.786 71.2205 287.706 71.2205H286.789C286.708 71.2205 286.668 71.1797 286.668 71.0997V70.9913C286.668 70.5088 286.504 70.1165 286.179 69.8147C285.853 69.513 285.426 69.3624 284.894 69.3624C284.354 69.3624 283.922 69.5185 283.597 69.8328C283.272 70.1469 283.108 70.5647 283.108 71.0874V74.2487C283.108 74.7723 283.278 75.1903 283.616 75.5036C283.954 75.8177 284.395 75.9748 284.943 75.9748C285.473 75.9748 285.894 75.8358 286.204 75.5578C286.513 75.2808 286.668 74.9009 286.668 74.4182V73.4891C286.668 73.4568 286.653 73.4407 286.619 73.4407H284.99C284.909 73.4407 284.871 73.4007 284.871 73.3196V72.5715C284.871 72.4916 284.909 72.4506 284.99 72.4506H287.706C287.786 72.4506 287.827 72.4916 287.827 72.5715V74.1041C287.827 75.0294 287.563 75.7416 287.036 76.2405C286.51 76.7391 285.796 76.9877 284.894 76.9877C284.316 76.9877 283.801 76.8733 283.355 76.6441Z" fill="#8A0B24"/>
<path d="M290.848 76.6441C290.402 76.4146 290.053 76.089 289.804 75.6663C289.555 75.2446 289.43 74.7602 289.43 74.2128V68.5657C289.43 68.4856 289.47 68.4446 289.551 68.4446H290.467C290.548 68.4446 290.589 68.4856 290.589 68.5657V74.2366C290.589 74.7602 290.757 75.1818 291.088 75.5036C291.422 75.8254 291.86 75.9861 292.398 75.9861C292.938 75.9861 293.372 75.8254 293.702 75.5036C294.031 75.1818 294.195 74.7602 294.195 74.2366V68.5657C294.195 68.4856 294.238 68.4446 294.316 68.4446H295.233C295.314 68.4446 295.354 68.4856 295.354 68.5657V74.2128C295.354 74.7602 295.231 75.2446 294.986 75.6663C294.742 76.089 294.395 76.4146 293.949 76.6441C293.504 76.8733 292.985 76.9877 292.398 76.9877C291.811 76.9877 291.295 76.8733 290.848 76.6441Z" fill="#8A0B24"/>
<path d="M298.348 69.4949V72.1975C298.348 72.2298 298.363 72.2457 298.395 72.2457H300.411C300.836 72.2457 301.179 72.1195 301.436 71.866C301.693 71.6129 301.823 71.2769 301.823 70.858C301.823 70.4325 301.693 70.0899 301.436 69.8328C301.179 69.5757 300.836 69.4462 300.411 69.4462H298.395C298.363 69.4462 298.348 69.4625 298.348 69.4949ZM301.87 76.807L300.181 73.1988C300.173 73.175 300.158 73.1627 300.133 73.1627H298.395C298.363 73.1627 298.348 73.1788 298.348 73.2114V76.7706C298.348 76.8516 298.308 76.8915 298.227 76.8915H297.311C297.23 76.8915 297.189 76.8516 297.189 76.7706V68.5657C297.189 68.4856 297.23 68.4446 297.311 68.4446H300.556C301.038 68.4446 301.462 68.5456 301.83 68.7463C302.195 68.9484 302.478 69.2293 302.68 69.591C302.88 69.9536 302.982 70.3714 302.982 70.8465C302.982 71.4092 302.833 71.8861 302.542 72.2764C302.246 72.6668 301.84 72.9295 301.315 73.0666C301.283 73.0827 301.277 73.1027 301.292 73.1266L303.042 76.747C303.05 76.7631 303.054 76.7829 303.054 76.807C303.054 76.8629 303.023 76.8915 302.957 76.8915H302.004C301.94 76.8915 301.895 76.8629 301.87 76.807Z" fill="#8A0B24"/>
<path d="M308.605 75.4921C308.943 75.1542 309.111 74.7078 309.111 74.1526V71.2205C309.111 70.6572 308.943 70.2049 308.605 69.8632C308.267 69.5214 307.825 69.35 307.276 69.35C306.73 69.35 306.289 69.5214 305.956 69.8632C305.622 70.2049 305.454 70.6572 305.454 71.2205V74.1526C305.454 74.7078 305.622 75.1542 305.956 75.4921C306.289 75.83 306.73 75.9986 307.276 75.9986C307.825 75.9986 308.267 75.83 308.605 75.4921ZM305.72 76.6383C305.271 76.3965 304.92 76.0564 304.671 75.6188C304.42 75.1797 304.297 74.6753 304.297 74.1041V71.232C304.297 70.6609 304.42 70.1583 304.671 69.7241C304.92 69.2901 305.271 68.9522 305.72 68.7103C306.17 68.4696 306.689 68.3484 307.276 68.3484C307.872 68.3484 308.395 68.4696 308.846 68.7103C309.296 68.9522 309.645 69.2901 309.896 69.7241C310.145 70.1583 310.27 70.6609 310.27 71.232V74.1041C310.27 74.6753 310.145 75.1797 309.896 75.6188C309.645 76.0564 309.296 76.3965 308.846 76.6383C308.395 76.8792 307.872 77 307.276 77C306.689 77 306.17 76.8792 305.72 76.6383Z" fill="#8A0B24"/>
<path d="M312.965 76.6982C312.51 76.5049 312.161 76.2319 311.915 75.8779C311.67 75.5244 311.547 75.1093 311.547 74.6353V74.2849C311.547 74.205 311.587 74.1641 311.668 74.1641H312.548C312.629 74.1641 312.67 74.205 312.67 74.2849V74.5745C312.67 74.9847 312.846 75.3226 313.199 75.5882C313.554 75.8539 314.041 75.9861 314.66 75.9861C315.215 75.9861 315.634 75.87 315.915 75.637C316.198 75.4036 316.338 75.098 316.338 74.7192C316.338 74.4705 316.266 74.2575 316.121 74.0803C315.976 73.9032 315.764 73.7404 315.487 73.5912C315.211 73.4426 314.805 73.2637 314.273 73.0541C313.686 72.8294 313.223 72.6238 312.88 72.4393C312.538 72.2547 312.255 72.0107 312.03 71.709C311.804 71.4072 311.691 71.0275 311.691 70.5686C311.691 69.8766 311.94 69.3339 312.434 68.9398C312.929 68.5456 313.599 68.3485 314.443 68.3485C315.039 68.3485 315.562 68.4495 316.013 68.6504C316.463 68.8513 316.81 69.1332 317.055 69.4949C317.301 69.8564 317.425 70.2753 317.425 70.7494V70.9913C317.425 71.0712 317.382 71.1121 317.303 71.1121H316.398C316.319 71.1121 316.276 71.0712 316.276 70.9913V70.8103C316.276 70.3917 316.11 70.0442 315.777 69.766C315.443 69.4891 314.981 69.3501 314.394 69.3501C313.897 69.3501 313.51 69.453 313.235 69.6575C312.963 69.8632 312.827 70.1583 312.827 70.5448C312.827 70.8103 312.895 71.0275 313.031 71.1958C313.167 71.3654 313.371 71.5157 313.642 71.649C313.909 71.7813 314.322 71.9529 314.877 72.1611C315.449 72.387 315.911 72.5943 316.266 72.7829C316.619 72.9724 316.912 73.2216 317.146 73.531C317.38 73.8406 317.497 74.2251 317.497 74.6829C317.497 75.3913 317.237 75.953 316.719 76.367C316.2 76.7812 315.485 76.9877 314.575 76.9877C313.956 76.9877 313.418 76.8915 312.965 76.6982Z" fill="#8A0B24"/>
<path d="M96.3086 57.7974V55.4985L100.616 55.1546V21.9905L96.3086 21.647V19.3217H100.616H103.787H108.094V21.647L103.787 21.9905V55.1814H119.933L120.224 48.9713H122.813V57.7974H96.3086Z" fill="#363636"/>
<path d="M275.964 58.3525C273.374 58.3525 271.167 57.7445 269.344 56.529C267.522 55.3132 266.133 53.6313 265.183 51.4816C264.232 49.3323 263.756 46.8571 263.756 44.0562V42.9464C263.756 40.1627 264.234 37.7006 265.196 35.5601C266.157 33.4195 267.543 31.7376 269.357 30.5127C271.173 29.2885 273.366 28.6761 275.939 28.6761C278.033 28.6761 279.907 29.0948 281.553 29.9316C283.201 30.7686 284.5 31.9443 285.451 33.4595C286.403 34.9749 286.852 36.7358 286.799 38.7443L286.746 38.9032H283.92C283.92 37.3702 283.567 36.0356 282.861 34.8996C282.157 33.7631 281.2 32.8868 279.994 32.2699C278.788 31.6538 277.436 31.3453 275.939 31.3453C273.893 31.3453 272.207 31.8429 270.878 32.8383C269.546 33.8335 268.555 35.2079 267.905 36.9606C267.252 38.7139 266.927 40.7093 266.927 42.9464V44.0562C266.927 46.3286 267.248 48.3414 267.892 50.0943C268.534 51.8476 269.525 53.222 270.865 54.2166C272.202 55.2124 273.904 55.7098 275.964 55.7098C277.355 55.7098 278.661 55.4372 279.875 54.8907C281.091 54.3448 282.07 53.5654 282.807 52.5517C283.547 51.5388 283.92 50.3191 283.92 48.8917H286.72L286.773 49.0504C286.824 50.8124 286.35 52.3935 285.344 53.794C284.341 55.1946 283.007 56.3044 281.342 57.1233C279.677 57.9431 277.885 58.3525 275.964 58.3525Z" fill="#363636"/>
<path d="M301.478 55.578C303.715 55.578 305.701 55.0625 307.439 54.0318C309.172 53.001 310.446 51.6316 311.256 49.9227V43.8712H304.915C302.061 43.8712 299.775 44.4832 298.057 45.7077C296.338 46.9321 295.479 48.4605 295.479 50.2923C295.479 51.8427 296.013 53.1112 297.078 54.0979C298.144 55.0848 299.611 55.578 301.478 55.578ZM301.108 58.3525C298.325 58.3525 296.162 57.6126 294.62 56.1326C293.078 54.6529 292.309 52.6708 292.309 50.187C292.309 48.4256 292.827 46.8926 293.867 45.5886C294.907 44.2852 296.375 43.2724 298.267 42.55C300.162 41.8276 302.395 41.4663 304.968 41.4663H311.256V37.9254C311.256 35.864 310.603 34.2518 309.302 33.0893C307.996 31.9265 306.165 31.3453 303.805 31.3453C302.342 31.3453 301.034 31.6009 299.879 32.1113C298.726 32.6227 297.818 33.3138 297.157 34.1859C296.498 35.058 296.166 36.0317 296.166 37.1061L293.234 37.0795L293.18 36.9208C293.11 35.4939 293.538 34.1508 294.463 32.8911C295.388 31.6317 296.67 30.6142 298.308 29.8389C299.945 29.0637 301.831 28.6761 303.962 28.6761C307.099 28.6761 309.627 29.4782 311.547 31.081C313.468 32.6844 314.427 34.9831 314.427 37.9781V52.0369C314.427 52.6008 314.45 53.1599 314.493 53.7145C314.537 54.2695 314.603 54.8203 314.692 55.3664L317.519 55.4984V57.7974H311.839C311.643 56.758 311.507 55.9214 311.428 55.2871C311.35 54.6529 311.301 53.9393 311.284 53.1467C310.225 54.6616 308.821 55.9078 307.067 56.8856C305.314 57.8635 303.328 58.3525 301.108 58.3525Z" fill="#363636"/>
<path d="M190.615 26.1868L193.475 19.3217H197.016L194.156 26.1868H190.615Z" fill="#363636"/>
<path d="M29.0116 50.5944C18.5191 54.4303 9.82482 59.737 4.81469 63.1486C7.80005 60.1993 12.3662 55.9977 18.0856 51.6922C18.2027 51.6048 18.316 51.5176 18.434 51.43C18.5341 51.3549 18.6372 51.2802 18.738 51.2052C30.2012 42.7486 46.1544 34.1072 63.4942 34.1072C68.0035 34.1072 72.6127 34.6929 77.2537 36.0179L79.1505 40.7952C79.1701 40.8441 79.2128 40.8741 79.245 40.9138L85.1565 55.4612C65.7432 41.623 43.9983 45.1156 29.0116 50.5944ZM39.912 8.06464H39.9116C47.0826 2.20392 55.2772 -0.196297 61.831 1.64336C67.9818 3.37054 72.6444 8.49484 75.6979 16.8808C75.3255 16.8702 74.8128 16.8685 74.1896 16.8849C74.1436 16.8863 74.0922 16.8885 74.045 16.89C73.8402 16.8961 73.6343 16.9027 73.4046 16.9138C73.2028 16.9234 72.9832 16.9378 72.7637 16.9516C72.6621 16.9582 72.5732 16.9616 72.4675 16.9691C72.4558 16.9699 72.4432 16.971 72.4315 16.9716C70.769 17.0348 68.3067 17.2523 65.1856 17.869C65.1743 17.8711 65.1626 17.8739 65.1512 17.8763C64.9236 17.9213 64.6933 17.9679 64.4588 18.0175C50.13 20.9146 28.4062 30.6671 4.9117 60.2988C4.44012 60.8915 3.96789 61.4935 3.49533 62.1024C3.3237 62.3239 3.15325 62.533 2.98156 62.7567C8.30635 51.5129 23.5222 21.4601 39.912 8.06464ZM74.4252 20.3307L73.9982 19.4367L73.2819 17.9371C73.2883 17.9366 73.2956 17.9362 73.3017 17.9358C74.3216 17.8831 75.1127 17.8843 75.6322 17.8969L74.4252 20.3307ZM80.3036 35.9843C79.6947 35.754 79.0867 35.5618 78.4783 35.3591C78.2463 35.276 78.0194 35.1952 77.8093 35.1207C77.8049 35.1194 77.8004 35.1214 77.7959 35.1201C77.7904 35.1184 77.7868 35.1135 77.7813 35.1118C77.7434 35.1009 77.7054 35.0922 77.6675 35.0812C55.8327 28.231 34.3262 38.7154 19.5177 49.3915C19.2123 49.6099 18.9089 49.8285 18.6093 50.0471C18.5289 50.1062 18.4482 50.1651 18.3681 50.2242C13.3353 53.9163 9.14625 57.5827 6.05829 60.5062C6.11843 60.4312 6.17891 60.3522 6.23913 60.277C6.86339 59.4997 7.48572 58.744 8.10748 57.9945C8.40868 57.6314 8.71039 57.263 9.01102 56.9064C9.7141 56.0723 10.4151 55.2605 11.1145 54.462C11.3285 54.2172 11.5431 53.9684 11.7567 53.7272C12.5306 52.8537 13.3015 52.0033 14.0699 51.1718C14.2054 51.0251 14.3413 50.8754 14.4767 50.7301C15.3111 49.834 16.1422 48.9619 16.9696 48.1141C17.0367 48.0452 17.104 47.975 17.171 47.9063C18.053 47.0059 18.9309 46.1308 19.8039 45.2832C19.8169 45.2707 19.8299 45.2577 19.8428 45.2454C24.3466 40.8764 28.7234 37.2045 32.9127 34.1179C32.9472 34.0923 32.9816 34.0672 33.0161 34.0419C33.7914 33.472 34.5595 32.9242 35.3214 32.3939C35.438 32.3129 35.5543 32.2331 35.6706 32.1529C36.3415 31.69 37.0069 31.2424 37.6668 30.8088C37.899 30.6565 38.1299 30.5081 38.3609 30.3594C38.8929 30.016 39.4216 29.6804 39.9458 29.3557C40.3452 29.1092 40.7413 28.87 41.1364 28.6339C41.4784 28.4285 41.8203 28.2235 42.1589 28.026C42.7936 27.6572 43.4235 27.2991 44.0466 26.9563C44.1357 26.907 44.2257 26.8557 44.3145 26.807C56.6087 20.094 66.5149 18.3666 72.1817 18.0062L72.9815 19.6796L73.7215 21.2292C75.3024 24.7641 78.9817 32.9989 80.3036 35.9843ZM79.6711 39.246L78.5392 36.4607C79.3051 36.7358 80.0854 37.0193 80.577 37.1983L79.6711 39.246ZM86.7863 56.7565L80.2059 40.5623L81.7328 37.1124C81.79 36.9844 81.7908 36.8385 81.7358 36.7095C81.7039 36.6352 81.6516 36.5746 81.5901 36.5238C81.2917 35.676 80.4122 33.704 78.201 28.7496L74.9734 21.5256L76.8937 17.6517C76.9051 17.6283 76.9026 17.6017 76.9105 17.5768C76.9226 17.5394 76.9326 17.5045 76.9355 17.465C76.9387 17.4227 76.933 17.3833 76.9256 17.3412C76.9209 17.3148 76.9281 17.2883 76.9192 17.2625C73.8019 8.24965 68.6808 2.51078 62.1096 0.666008C55.1292 -1.29359 46.8015 1.11811 39.2615 7.28038H39.2608C18.7999 24.003 0.2242 66.2819 0.039041 66.7069C0.036217 66.7133 0.0370484 66.7201 0.0345562 66.7265C0.0291569 66.7403 0.0249208 66.7535 0.0207677 66.7676C0.0139564 66.7914 0.0121276 66.8146 0.00880598 66.839C0.00564808 66.8622 0 66.8848 0 66.9079C0 66.923 0.00174374 66.9373 0.00315576 66.9524C0.00523338 66.9756 0.0110474 66.9974 0.0162808 67.0202C0.0215971 67.0428 0.024838 67.0646 0.0330613 67.0864C0.0387093 67.1014 0.0461862 67.1154 0.0534951 67.1299C0.0635472 67.1507 0.0762554 67.1689 0.0892974 67.1882C0.102256 67.2076 0.114301 67.2265 0.130001 67.2439C0.135649 67.2501 0.13781 67.2582 0.143707 67.2643C0.151267 67.2719 0.16165 67.2748 0.169625 67.2817C0.178097 67.2892 0.18225 67.2999 0.191388 67.3068C0.202852 67.316 0.216723 67.3192 0.228768 67.3273C0.238486 67.3337 0.244717 67.3435 0.255101 67.3494C0.263407 67.3543 0.27296 67.3522 0.281436 67.3562C0.297045 67.3641 0.31108 67.3745 0.327539 67.3807C0.386274 67.4028 0.446986 67.4166 0.508379 67.4166C0.508379 67.4166 0.508465 67.4166 0.508613 67.4166H0.508783C0.574004 67.4166 0.63797 67.4004 0.699427 67.3758C0.709145 67.372 0.718545 67.3694 0.728093 67.3649C0.742702 67.3581 0.75376 67.3458 0.76771 67.3375C0.789401 67.325 0.812899 67.3173 0.83291 67.3013C1.3084 66.9137 48.8283 28.9727 85.9995 57.3489C86.1843 57.4876 86.4384 57.4897 86.6213 57.3508C86.8048 57.2129 86.873 56.9691 86.7863 56.7565Z" fill="#8A0B24"/>
<path d="M96.334 57.8255V55.5274L100.64 55.1839V22.0287L96.334 21.6857V19.361H100.64H103.81H108.116V21.6857L103.81 22.0287V55.2105H119.952L120.243 49.0019H122.831V57.8255H96.334Z" fill="#363636"/>
<path d="M140.196 55.7387C142.151 55.7387 143.833 55.219 145.242 54.1794C146.651 53.141 147.734 51.7321 148.492 49.9527C149.249 48.1745 149.628 46.184 149.628 43.982V43.1112C149.628 40.9272 149.249 38.9464 148.492 37.1667C147.734 35.3876 146.647 33.9792 145.229 32.94C143.811 31.9007 142.116 31.3808 140.144 31.3808C138.171 31.3808 136.476 31.9007 135.058 32.94C133.64 33.9792 132.557 35.3876 131.808 37.1667C131.06 38.9464 130.686 40.9272 130.686 43.1112V43.982C130.686 46.2012 131.06 48.1966 131.808 49.9661C132.557 51.7358 133.64 53.141 135.058 54.1794C136.476 55.219 138.189 55.7387 140.196 55.7387ZM140.196 58.3806C137.625 58.3806 135.393 57.7683 133.499 56.5443C131.606 55.32 130.136 53.6209 129.088 51.4455C128.04 49.2703 127.516 46.7826 127.516 43.982V43.1112C127.516 40.3103 128.04 37.8272 129.088 35.6609C130.136 33.4944 131.606 31.795 133.499 30.5623C135.393 29.3295 137.608 28.7126 140.144 28.7126C142.697 28.7126 144.921 29.3295 146.814 30.5623C148.707 31.795 150.178 33.4903 151.226 35.6477C152.274 37.8053 152.798 40.2933 152.798 43.1112V43.982C152.798 46.8009 152.274 49.2922 151.226 51.4589C150.178 53.6256 148.707 55.32 146.814 56.5443C144.921 57.7683 142.715 58.3806 140.196 58.3806Z" fill="#363636"/>
<path d="M179.701 31.9622L178.671 29.2415H184.007V31.5394L179.701 31.9622ZM168.896 55.6588C170.973 55.6588 172.696 55.1839 174.059 54.2327C175.424 53.2819 176.46 51.9786 177.165 50.3231V37.246C176.494 35.5728 175.508 34.1859 174.206 33.085C172.902 31.9843 171.15 31.434 168.949 31.434C167.099 31.434 165.549 31.9581 164.298 33.0059C163.048 34.0536 162.106 35.5024 161.472 37.3517C160.838 39.2013 160.521 41.3402 160.521 43.7706V44.3258C160.521 47.7776 161.221 50.5296 162.621 52.5813C164.022 54.6336 166.112 55.6588 168.896 55.6588ZM169.054 69.37C167.662 69.37 166.192 69.2024 164.642 68.8683C163.092 68.5332 161.736 68.0849 160.574 67.5214L161.419 64.8796C162.546 65.4251 163.74 65.8478 164.998 66.1477C166.257 66.4464 167.592 66.5959 169.001 66.5959C171.714 66.5959 173.753 65.7906 175.118 64.1789C176.481 62.5672 177.165 60.3265 177.165 57.4553V53.9682C176.212 55.36 174.994 56.4433 173.505 57.2182C172.016 57.993 170.286 58.3805 168.315 58.3805C166.025 58.3805 164.062 57.7989 162.423 56.6366C160.785 55.4742 159.526 53.8408 158.645 51.7358C157.765 49.632 157.324 47.1616 157.324 44.3258V43.7706C157.324 40.7246 157.765 38.0736 158.645 35.8195C159.526 33.5652 160.789 31.8169 162.436 30.5751C164.083 29.3338 166.059 28.7126 168.366 28.7126C170.409 28.7126 172.18 29.1533 173.677 30.0341C175.173 30.9144 176.39 32.1472 177.323 33.7323L177.665 29.2415H180.335V57.4553C180.335 59.9035 179.889 62.0171 179 63.7961C178.111 65.5744 176.82 66.9482 175.129 67.9174C173.439 68.8856 171.415 69.37 169.054 69.37Z" fill="#363636"/>
<path d="M187.736 57.8255V55.5274L192.043 55.1839V31.9092L187.736 31.5662V29.2415H195.213V55.1839L199.519 55.5274V57.8255H187.736Z" fill="#363636"/>
<path d="M213.901 58.3806C211.577 58.3806 209.583 57.9969 207.918 57.2316C206.254 56.4652 204.981 55.4474 204.1 54.1794C203.22 52.9115 202.824 51.5112 202.913 49.9795L202.965 49.8204H205.871C205.941 51.1941 206.351 52.3176 207.099 53.1895C207.847 54.0605 208.816 54.704 210.006 55.1182C211.194 55.5314 212.493 55.7387 213.901 55.7387C216.174 55.7387 217.971 55.2324 219.292 54.2195C220.612 53.2067 221.274 51.9871 221.274 50.5602C221.274 49.2226 220.723 48.0471 219.621 47.0342C218.52 46.0211 216.544 45.1977 213.69 44.5638C210.256 43.824 207.72 42.8464 206.083 41.6318C204.444 40.416 203.626 38.6988 203.626 36.4796C203.626 35.0361 204.048 33.7236 204.893 32.5432C205.739 31.3638 206.914 30.43 208.421 29.743C209.927 29.0563 211.692 28.7126 213.718 28.7126C215.883 28.7126 217.75 29.0739 219.317 29.7959C220.885 30.5185 222.086 31.509 222.924 32.7679C223.76 34.0275 224.153 35.4671 224.1 37.0874L224.047 37.246H221.087C221.087 35.6609 220.423 34.2869 219.094 33.1246C217.763 31.9622 215.972 31.3808 213.718 31.3808C211.428 31.3808 209.706 31.8788 208.552 32.8736C207.399 33.8691 206.822 35.0361 206.822 36.3739C206.822 37.2551 207.029 38.0343 207.443 38.712C207.856 39.39 208.6 39.9933 209.675 40.5217C210.749 41.0499 212.283 41.5348 214.273 41.9743C217.654 42.732 220.193 43.7585 221.895 45.0523C223.594 46.3467 224.442 48.1298 224.442 50.4022C224.442 51.9871 224.002 53.3789 223.122 54.5766C222.241 55.774 221.012 56.7069 219.436 57.3764C217.861 58.0454 216.015 58.3806 213.901 58.3806Z" fill="#363636"/>
<path d="M239.352 58.3271C237.344 58.3271 235.785 57.7064 234.675 56.4652C233.565 55.2239 233.01 53.2201 233.01 50.4545V31.8035H228.07V29.2415H233.01V21.8971H236.181V29.2415H242.839V31.8035H236.181V50.4545C236.181 52.3575 236.519 53.7264 237.2 54.5632C237.876 55.4 238.78 55.8181 239.907 55.8181C240.504 55.8181 241.095 55.7779 241.676 55.699C242.256 55.6199 242.856 55.5361 243.473 55.4474L243.949 57.7198C243.313 57.9131 242.592 58.0635 241.782 58.1691C240.972 58.2748 240.162 58.3271 239.352 58.3271Z" fill="#363636"/>
<path d="M251.432 26.1772V21.6068H254.972V26.1772H251.432ZM247.311 57.8255V55.5274L251.617 55.1839V31.9092L247.311 31.5662V29.2415H254.787V55.1839L259.094 55.5274V57.8255H247.311Z" fill="#363636"/>
<path d="M276.036 58.3806C273.448 58.3806 271.241 57.7723 269.418 56.5575C267.596 55.3419 266.209 53.6607 265.259 51.5112C264.308 49.3636 263.832 46.8883 263.832 44.0877V42.9789C263.832 40.1961 264.311 37.7347 265.272 35.5947C266.231 33.4546 267.619 31.7731 269.431 30.5489C271.247 29.3253 273.44 28.7126 276.011 28.7126C278.105 28.7126 279.977 29.1314 281.625 29.9677C283.271 30.8047 284.57 31.9803 285.521 33.4944C286.473 35.0093 286.922 36.7705 286.869 38.7788L286.816 38.9368H283.989C283.989 37.4046 283.636 36.0702 282.933 34.934C282.227 33.7985 281.272 32.9223 280.066 32.3058C278.86 31.6894 277.508 31.3808 276.011 31.3808C273.967 31.3808 272.281 31.8788 270.952 32.8736C269.62 33.8691 268.629 35.2426 267.979 36.9946C267.328 38.7482 267.001 40.7426 267.001 42.9789V44.0877C267.001 46.3601 267.324 48.3726 267.966 50.1251C268.608 51.8776 269.599 53.2513 270.939 54.2461C272.276 55.2411 273.978 55.7387 276.036 55.7387C277.427 55.7387 278.733 55.4655 279.947 54.9192C281.161 54.3739 282.139 53.5941 282.879 52.5813C283.619 51.5692 283.989 50.3488 283.989 48.9228H286.79L286.841 49.0808C286.894 50.8428 286.418 52.4233 285.416 53.8236C284.41 55.2239 283.077 56.3329 281.414 57.1516C279.749 57.9714 277.956 58.3806 276.036 58.3806Z" fill="#363636"/>
<path d="M301.328 55.6065C303.565 55.6065 305.551 55.0916 307.286 54.0605C309.019 53.0304 310.293 51.6618 311.103 49.9527V43.9031H304.762C301.908 43.9031 299.624 44.5151 297.906 45.7394C296.19 46.9636 295.331 48.4915 295.331 50.3231C295.331 51.8729 295.865 53.141 296.93 54.127C297.995 55.1133 299.461 55.6065 301.328 55.6065ZM300.958 58.3806C298.176 58.3806 296.013 57.6409 294.472 56.1615C292.93 54.6823 292.16 52.7001 292.16 50.2176C292.16 48.4562 292.681 46.9236 293.719 45.6203C294.759 44.3173 296.224 43.3043 298.119 42.5827C300.011 41.8601 302.244 41.4995 304.815 41.4995H311.103V37.959C311.103 35.8986 310.45 34.2869 309.147 33.1246C307.843 31.9622 306.012 31.3808 303.652 31.3808C302.191 31.3808 300.883 31.6366 299.731 32.1472C298.576 32.658 297.668 33.3491 297.009 34.2212C296.347 35.0927 296.018 36.0662 296.018 37.1403L293.085 37.1137L293.032 36.9551C292.962 35.5286 293.389 34.1859 294.314 32.9264C295.239 31.6675 296.52 30.6503 298.159 29.8752C299.794 29.1005 301.681 28.7126 303.811 28.7126C306.946 28.7126 309.472 29.5146 311.393 31.1167C313.313 32.7199 314.272 35.0178 314.272 38.0118V52.0662C314.272 52.6306 314.295 53.1895 314.338 53.7436C314.382 54.2984 314.448 54.8499 314.538 55.3951L317.364 55.5274V57.8255H311.684C311.49 56.7869 311.354 55.9503 311.273 55.3162C311.195 54.6823 311.146 53.9682 311.129 53.1763C310.072 54.6908 308.668 55.9369 306.916 56.9145C305.162 57.8915 303.178 58.3806 300.958 58.3806Z" fill="#363636"/>
</svg>
