<svg width="160" height="124" viewBox="0 0 160 124" fill="none" xmlns="http://www.w3.org/2000/svg">
<path d="M53.463 93.0589C34.1273 100.114 18.1053 109.875 8.87259 116.15C14.3741 110.725 22.7886 102.997 33.3284 95.0779C33.5442 94.9172 33.753 94.7568 33.9706 94.5957C34.155 94.4576 34.3449 94.3203 34.5307 94.1822C55.6552 78.6279 85.0541 62.7338 117.008 62.7338C125.318 62.7338 133.812 63.811 142.364 66.2481L145.86 75.035C145.896 75.1249 145.975 75.1801 146.034 75.2532L156.928 102.01C121.153 76.5577 81.0808 82.9817 53.463 93.0589ZM73.5505 14.8334H73.5497C86.7647 4.05368 101.866 -0.361059 113.943 3.02265C125.278 6.19945 133.87 15.6246 139.497 31.0491C138.811 31.0295 137.866 31.0264 136.718 31.0565C136.633 31.0592 136.538 31.0631 136.451 31.0659C136.074 31.0772 135.695 31.0894 135.271 31.1097C134.899 31.1273 134.495 31.1539 134.09 31.1793C133.903 31.1914 133.739 31.1977 133.544 31.2114C133.523 31.2129 133.5 31.2149 133.478 31.2161C130.414 31.3323 125.877 31.7324 120.125 32.8667C120.104 32.8706 120.083 32.8757 120.062 32.88C119.642 32.9629 119.218 33.0485 118.786 33.1397C92.3803 38.4685 52.3473 56.4064 9.05137 110.908C8.18234 111.998 7.31209 113.106 6.44125 114.226C6.12496 114.633 5.81087 115.018 5.49446 115.429C15.3071 94.7482 43.347 39.4718 73.5505 14.8334ZM137.152 37.3945L136.365 35.7501L135.045 32.9918C135.057 32.9911 135.07 32.9903 135.082 32.9895C136.961 32.8925 138.419 32.8948 139.376 32.9179L137.152 37.3945ZM147.985 66.1863C146.863 65.7627 145.742 65.4091 144.621 65.0364C144.194 64.8834 143.776 64.7348 143.388 64.5979C143.38 64.5956 143.372 64.5991 143.364 64.5967C143.353 64.5936 143.347 64.5846 143.337 64.5815C143.267 64.5615 143.197 64.5455 143.127 64.5252C102.889 51.9255 63.2569 71.2097 35.9675 90.8462C35.4048 91.2479 34.8457 91.65 34.2936 92.0521C34.1454 92.1608 33.9966 92.2692 33.849 92.3779C24.5744 99.1688 16.8549 105.912 11.1643 111.29C11.2751 111.152 11.3866 111.007 11.4976 110.868C12.648 109.438 13.7948 108.048 14.9406 106.67C15.4957 106.002 16.0517 105.324 16.6057 104.669C17.9013 103.134 19.1931 101.641 20.4821 100.172C20.8764 99.7223 21.2718 99.2646 21.6654 98.8211C23.0916 97.2143 24.5122 95.6502 25.9283 94.1208C26.1779 93.8509 26.4284 93.5756 26.6779 93.3084C28.2156 91.6602 29.7471 90.0561 31.2718 88.4967C31.3955 88.37 31.5196 88.2409 31.643 88.1145C33.2684 86.4585 34.8861 84.849 36.495 83.2899C36.5189 83.2668 36.5428 83.243 36.5667 83.2203C44.8663 75.1844 52.932 68.4307 60.6521 62.7533C60.7156 62.7064 60.7791 62.6602 60.8425 62.6137C62.2713 61.5654 63.6868 60.5579 65.0909 59.5824C65.3057 59.4334 65.52 59.2867 65.7344 59.1392C66.9708 58.2877 68.197 57.4644 69.413 56.6669C69.8409 56.3868 70.2665 56.1138 70.6921 55.8404C71.6726 55.2087 72.6468 54.5915 73.6128 53.9942C74.3487 53.5409 75.0788 53.1009 75.8069 52.6667C76.437 52.2889 77.0672 51.9118 77.6911 51.5485C78.8608 50.8702 80.0216 50.2116 81.1698 49.5811C81.334 49.4903 81.4998 49.3961 81.6636 49.3065C104.319 36.9591 122.575 33.7819 133.018 33.119L134.491 36.1968L135.855 39.047C138.768 45.5488 145.549 60.6952 147.985 66.1863ZM146.819 72.1856L144.733 67.0625C146.145 67.5686 147.583 68.09 148.489 68.4193L146.819 72.1856ZM159.931 104.393L147.805 74.6067L150.619 68.2613C150.724 68.0258 150.726 67.7575 150.624 67.5201C150.565 67.3836 150.469 67.2721 150.356 67.1786C149.806 65.6192 148.185 61.9922 144.11 52.8795L138.162 39.5922L141.701 32.4669C141.722 32.4239 141.717 32.375 141.732 32.3293C141.754 32.2604 141.773 32.1963 141.778 32.1235C141.784 32.0457 141.773 31.9733 141.76 31.8959C141.751 31.8474 141.764 31.7985 141.748 31.7512C136.003 15.1737 126.566 4.6181 114.457 1.225C101.593 -2.37932 86.2466 2.05655 72.3517 13.3909H72.3505C34.6447 44.149 0.41316 121.913 0.0719454 122.695C0.0667412 122.707 0.0682735 122.719 0.0636806 122.731C0.0537308 122.756 0.0459245 122.78 0.0382711 122.806C0.0257192 122.85 0.022349 122.893 0.0162278 122.938C0.0104084 122.98 0 123.022 0 123.064C0 123.092 0.0032134 123.118 0.00581549 123.146C0.00964416 123.189 0.0203583 123.229 0.0300025 123.271C0.0397995 123.312 0.0457718 123.353 0.0609258 123.393C0.0713342 123.42 0.0851127 123.446 0.0985816 123.473C0.117106 123.511 0.140525 123.544 0.164559 123.58C0.18844 123.616 0.210636 123.65 0.239568 123.682C0.249977 123.694 0.253958 123.709 0.264825 123.72C0.278757 123.734 0.297892 123.739 0.312588 123.752C0.3282 123.766 0.335854 123.785 0.352693 123.798C0.373819 123.815 0.399381 123.821 0.421577 123.836C0.439486 123.848 0.450969 123.866 0.470104 123.876C0.485411 123.885 0.503014 123.882 0.518635 123.889C0.547399 123.903 0.573263 123.923 0.603594 123.934C0.711832 123.975 0.823714 124 0.93685 124C0.93685 124 0.937007 124 0.937281 124H0.937595C1.05778 124 1.17566 123.97 1.28892 123.925C1.30682 123.918 1.32415 123.913 1.34174 123.905C1.36866 123.892 1.38904 123.87 1.41475 123.855C1.45472 123.831 1.49802 123.817 1.5349 123.788C2.41115 123.075 89.9816 53.2898 158.481 105.483C158.822 105.737 159.29 105.741 159.627 105.486C159.965 105.232 160.091 104.784 159.931 104.393Z" fill="white"/>
</svg>
