<svg width="24" height="25" viewBox="0 0 24 25" fill="none" xmlns="http://www.w3.org/2000/svg">
<path d="M21.375 12.8521C21.375 13.1504 21.2565 13.4366 21.0455 13.6475C20.8345 13.8585 20.5484 13.9771 20.25 13.9771H13.125V21.1021C13.125 21.4004 13.0065 21.6866 12.7955 21.8975C12.5845 22.1085 12.2984 22.2271 12 22.2271C11.7016 22.2271 11.4155 22.1085 11.2045 21.8975C10.9935 21.6866 10.875 21.4004 10.875 21.1021V13.9771H3.75C3.45163 13.9771 3.16548 13.8585 2.9545 13.6475C2.74353 13.4366 2.625 13.1504 2.625 12.8521C2.625 12.5537 2.74353 12.2675 2.9545 12.0566C3.16548 11.8456 3.45163 11.7271 3.75 11.7271H10.875V4.60205C10.875 4.30368 10.9935 4.01753 11.2045 3.80656C11.4155 3.59558 11.7016 3.47705 12 3.47705C12.2984 3.47705 12.5845 3.59558 12.7955 3.80656C13.0065 4.01753 13.125 4.30368 13.125 4.60205V11.7271H20.25C20.5484 11.7271 20.8345 11.8456 21.0455 12.0566C21.2565 12.2675 21.375 12.5537 21.375 12.8521Z" fill="#8A0B24"/>
</svg>
