<svg width="361" height="444" viewBox="0 0 361 444" fill="none" xmlns="http://www.w3.org/2000/svg">
<path d="M279.736 344.41C278.451 347.715 277.441 352.122 279.828 354.417C282.215 356.712 285.703 354.508 288.09 352.397L304.063 338.535C317.558 341.565 331.695 338.994 343.262 331.467C350.422 326.877 357.032 319.992 359.051 310.812C361.622 299.337 356.389 287.035 348.953 278.865C332.521 260.689 304.614 258.853 286.529 274.734C279.369 280.977 273.586 290.248 273.127 300.622C272.668 312.005 279.094 319.257 287.264 323.48C285.795 330.64 282.398 337.617 279.736 344.41Z" fill="white"/>
<path d="M282.308 355.977C281.298 355.977 280.288 355.61 279.462 354.876C277.35 352.948 277.167 349.184 279.186 344.135C279.921 342.207 280.747 340.096 281.573 338.168C283.593 333.486 285.337 328.713 286.714 323.847C279.921 320.267 272.21 313.29 272.76 300.622C273.128 291.075 278.085 281.436 286.347 274.275C304.707 258.21 333.073 260.138 349.689 278.498C356.482 286.026 362.724 298.51 359.879 311.087C357.492 321.46 349.78 328.254 343.722 332.109C332.063 339.637 317.926 342.207 304.34 339.27L288.642 352.856C285.888 355.151 283.868 355.977 282.308 355.977ZM315.539 264.728C305.074 264.636 295.068 268.4 287.173 275.285C279.186 282.262 274.413 291.534 274.046 300.714C273.587 313.015 281.206 319.533 287.816 322.929C288.091 323.113 288.274 323.388 288.183 323.664C286.806 328.804 284.97 333.853 282.858 338.719C282.032 340.647 281.206 342.666 280.472 344.686C279.278 347.807 278.268 351.938 280.472 353.866C282.675 355.794 285.612 353.774 287.816 351.754L303.789 337.893C303.972 337.709 304.156 337.709 304.431 337.709C317.742 340.647 331.604 338.168 343.079 330.824C348.954 327.06 356.39 320.542 358.593 310.628C361.347 298.602 355.289 286.576 348.679 279.324C340.142 270.052 328.208 264.728 315.539 264.728Z" fill="#363636"/>
<path d="M342.16 283.272H342.069C325.269 279.232 307.735 278.957 290.752 282.629C290.477 282.721 290.293 282.537 290.202 282.262C290.11 281.986 290.293 281.803 290.569 281.711C307.644 278.039 325.269 278.314 342.252 282.354C342.528 282.445 342.619 282.629 342.619 282.904C342.619 283.18 342.436 283.272 342.16 283.272Z" fill="#363636"/>
<path d="M343.17 293.278C325.544 291.074 307.827 290.248 290.201 290.983C289.926 290.983 289.742 290.799 289.742 290.524C289.742 290.248 289.926 290.065 290.201 290.065C307.919 289.422 325.636 290.156 343.262 292.451C343.537 292.451 343.721 292.727 343.721 292.91C343.721 293.094 343.445 293.278 343.17 293.278Z" fill="#363636"/>
<path d="M345.557 303.835C326.37 301.999 306.909 300.989 287.723 300.805C287.447 300.805 287.264 300.622 287.264 300.346C287.264 300.071 287.447 299.887 287.723 299.887C307.001 300.071 326.462 301.172 345.648 303.008C345.924 303.008 346.107 303.284 346.107 303.467C346.016 303.743 345.832 303.926 345.557 303.835Z" fill="#363636"/>
<path d="M343.629 312.556C326.921 311.087 310.03 310.353 293.322 310.353C293.231 310.353 293.139 310.444 293.047 310.444L291.67 310.353C291.395 310.353 291.211 310.169 291.211 309.894C291.211 309.618 291.395 309.435 291.67 309.435H292.404C309.387 309.435 326.646 310.169 343.629 311.638C343.904 311.638 344.088 311.913 344.088 312.097C343.996 312.372 343.812 312.556 343.629 312.556Z" fill="#363636"/>
<path d="M337.661 321.093L309.479 319.991C309.203 319.991 309.02 319.808 309.02 319.532C309.02 319.257 309.203 319.073 309.387 319.073H309.479L337.661 320.175C337.937 320.175 338.12 320.359 338.12 320.634C338.12 320.909 337.937 321.093 337.661 321.093Z" fill="#363636"/>
<path d="M19.3923 350.102C15.0777 350.745 10.5795 351.663 7.36647 354.417C2.31747 358.731 1.67486 366.167 1.30766 372.868C1.12406 377.458 0.848663 382.14 1.76666 386.638C2.68466 391.136 4.88786 395.635 8.65166 398.297C12.9663 401.418 18.7497 401.785 24.0741 402.061L54.8271 403.438C61.5285 403.713 68.7807 403.897 74.3805 400.133C82.0917 394.992 83.7441 384.435 84.4785 375.163C85.3047 364.514 85.7637 353.774 85.9473 343.125C85.9473 341.473 84.6621 340.096 83.0097 340.004C82.1835 340.004 81.4491 340.279 80.8983 340.83C77.6853 343.951 73.8297 347.072 72.7281 348.082C68.6889 351.571 64.2825 348.725 58.9581 348.358C45.7389 347.532 32.4279 348.174 19.3923 350.102Z" fill="white"/>
<path d="M59.9664 404.264C58.1304 404.264 56.478 404.172 54.8256 404.08L24.0726 402.703C19.1154 402.52 12.9648 402.244 8.28305 398.848C4.70285 396.277 2.22425 392.055 1.12265 386.73C0.204646 382.14 0.388246 377.367 0.663646 372.777C1.03085 365.616 1.76525 358.272 6.90605 353.866C10.3944 350.928 15.0762 350.01 19.299 349.368C32.4264 347.44 45.6456 346.889 58.8648 347.623C60.4254 347.715 62.0778 347.991 63.5466 348.358C66.9432 349.092 69.6054 349.643 72.084 347.44L72.8184 346.797C74.4708 345.42 77.5002 342.85 80.2542 340.279C81.723 338.902 84.1098 338.902 85.4868 340.463C86.1294 341.197 86.4967 342.115 86.4967 343.033C86.313 353.682 85.854 364.515 85.0278 375.163C84.2934 384.802 82.5492 395.359 74.6544 400.684C70.4316 403.713 64.9236 404.264 59.9664 404.264ZM47.298 348.725C38.0262 348.725 28.7544 349.368 19.4826 350.745C15.2598 351.387 10.9452 352.213 7.82405 354.967C3.05045 359.098 2.31605 366.075 2.04065 372.96C1.85705 377.458 1.58165 382.14 2.49965 386.638C3.50945 391.596 5.80445 395.543 9.10925 397.838C13.4238 400.959 19.3908 401.235 24.1644 401.418L55.0092 402.795C62.3532 403.162 68.9628 403.162 74.1954 399.674C81.5394 394.717 83.2836 384.527 83.9262 375.255C84.7524 364.606 85.2114 353.866 85.395 343.217C85.395 342.299 84.8442 341.381 84.018 341.014C83.1918 340.647 82.1821 340.83 81.4476 341.473C78.6936 344.043 75.6642 346.705 74.0118 348.082L73.2774 348.725C70.248 351.387 66.9432 350.653 63.5466 349.918C62.0778 349.551 60.5172 349.276 59.0484 349.184C55.0092 348.817 51.1536 348.725 47.298 348.725Z" fill="#363636"/>
<path d="M47.2979 1.99628C31.4165 2.73068 12.9647 5.76009 5.16168 19.7137C0.938885 27.2413 1.03068 36.3295 1.12248 44.9587C1.30608 54.8731 1.94869 65.8891 9.01729 72.7741C14.3417 78.0067 22.0529 79.6591 29.3969 80.7607C56.4779 85.0753 84.1097 85.6261 111.374 82.5049C114.495 82.1377 117.525 83.7901 118.994 86.5441C122.941 94.3471 128.357 101.416 134.967 107.199C138.18 110.045 142.953 109.678 145.799 106.556C146.901 105.271 147.635 103.619 147.727 101.966L148.553 88.9309C148.829 84.7081 152.592 81.4951 156.815 81.7705C156.999 81.7705 157.274 81.7705 157.458 81.8623C166.362 83.1475 176.001 79.5673 182.519 73.1413C191.148 64.6039 194.729 52.0273 194.82 39.9097C194.912 29.9035 194.453 15.5827 184.447 10.4419C174.349 5.20928 156.815 6.03548 145.799 4.84208C113.027 1.26188 80.1623 0.252085 47.2979 1.99628Z" fill="white"/>
<path d="M139.925 109.861C137.905 109.861 135.886 109.127 134.417 107.75C127.807 101.875 122.391 94.8061 118.352 86.8195C117.067 84.2491 114.313 82.7803 111.375 83.1475C84.0186 86.2687 56.3868 85.6261 29.214 81.4033C22.0536 80.3017 13.9752 78.6493 8.46719 73.2331C1.39859 66.2563 0.572393 55.4239 0.388793 44.9587C0.205193 37.0639 0.113393 27.3331 4.51979 19.3465C12.69 4.84213 31.6008 2.08813 47.2986 1.26193C80.163 -0.390468 113.119 0.527532 145.892 4.10773C148.829 4.47493 152.226 4.65853 155.898 4.84213C165.904 5.39293 177.287 5.94373 184.815 9.79933C194.546 14.7565 195.647 27.7921 195.556 39.9097C195.372 53.7715 190.966 65.7055 183.071 73.6003C176.278 80.3935 166.455 83.7901 157.459 82.5967C155.439 82.3213 153.419 82.8721 151.859 84.1573C150.39 85.3507 149.472 87.1867 149.288 89.0227L148.462 102.058C148.095 106.465 144.423 109.861 139.925 109.861ZM112.201 81.7705C115.322 81.7705 118.168 83.5147 119.545 86.2687C123.493 93.9799 128.817 100.957 135.335 106.74C137.263 108.576 140.108 109.035 142.587 107.934C145.066 106.924 146.81 104.537 146.902 101.875L147.728 88.8391C147.911 86.5441 149.013 84.4327 150.757 82.9639C152.593 81.4951 155.072 80.7607 157.367 81.1279C165.812 82.3213 175.451 78.9247 181.877 72.5905C189.497 64.9711 193.811 53.3125 193.995 39.8179C194.179 28.1593 193.077 15.6745 183.989 10.9927C176.737 7.22893 165.537 6.67813 155.623 6.12733C151.951 5.94373 148.554 5.76013 145.525 5.39293C112.844 1.81273 79.9794 0.894732 47.2068 2.54713C31.968 3.37333 13.4244 6.03553 5.62139 19.8973C1.39859 27.4249 1.58219 36.6967 1.67399 44.7751C1.85759 54.9649 2.59199 65.5219 9.29339 72.1315C14.526 77.2723 22.329 78.8329 29.3058 79.9345C56.3868 84.1573 83.835 84.7999 111.1 81.6787C111.559 81.7705 111.926 81.7705 112.201 81.7705Z" fill="#363636"/>
<path d="M23.6133 24.3956C23.3379 24.3956 23.1543 24.212 23.1543 23.9366C23.1543 23.6612 23.3379 23.4776 23.5215 23.4776C69.4215 19.4384 115.505 19.163 161.405 22.835C161.681 22.835 161.864 23.1104 161.864 23.294C161.864 23.5694 161.589 23.753 161.405 23.753C115.597 20.081 69.5133 20.2646 23.6133 24.3956Z" fill="#363636"/>
<path d="M21.1348 34.3098C20.8594 34.3098 20.6758 34.1262 20.6758 33.8508C20.6758 33.5754 20.8594 33.3918 21.1348 33.3918C68.0446 31.1886 115.872 30.3624 163.058 31.0968C163.333 31.0968 163.517 31.2804 163.517 31.5558C163.517 31.8312 163.333 32.0148 163.058 32.0148C115.872 31.2804 68.1364 32.1066 21.1348 34.3098Z" fill="#363636"/>
<path d="M14.5254 44.9586C14.25 44.9586 14.0664 44.775 14.0664 44.4996C14.0664 44.2242 14.25 44.0406 14.5254 44.0406C65.9334 42.2046 118.076 41.1948 169.667 41.0112C169.943 41.0112 170.126 41.1948 170.126 41.4702C170.126 41.7456 169.943 41.9292 169.667 41.9292C118.168 42.1128 65.9334 43.1226 14.5254 44.9586Z" fill="#363636"/>
<path d="M19.8496 53.6796C19.5742 53.6796 19.3906 53.496 19.3906 53.2206C19.3906 52.9452 19.5742 52.7616 19.8496 52.7616C65.8414 51.2928 112.659 50.4666 158.743 50.5584C159.018 50.5584 159.202 50.742 159.202 51.0174C159.202 51.2928 159.018 51.4764 158.743 51.4764L155.071 51.5682C154.979 51.5682 154.887 51.5682 154.796 51.4764C109.997 51.3846 64.5562 52.2108 19.8496 53.6796Z" fill="#363636"/>
<path d="M35.7324 62.2171C35.457 62.2171 35.2734 62.0335 35.2734 61.7581C35.2734 61.4827 35.457 61.2991 35.7324 61.2991L111.284 60.1975C111.559 60.1975 111.743 60.3811 111.743 60.6565C111.743 60.9319 111.559 61.1155 111.284 61.1155L35.7324 62.2171Z" fill="#363636"/>
<path d="M16.6367 360.2C16.3613 360.2 16.1777 360.016 16.0859 359.833C16.0859 359.557 16.2695 359.374 16.4531 359.282C32.5181 355.61 49.1339 355.426 65.2907 358.639C65.5661 358.731 65.6579 358.915 65.6579 359.19C65.5661 359.465 65.3825 359.557 65.1071 359.557C49.1339 356.344 32.6099 356.528 16.6367 360.108V360.2Z" fill="#363636"/>
<path d="M15.8106 369.013C15.5352 369.013 15.3516 368.829 15.3516 368.554C15.3516 368.278 15.5352 368.095 15.8106 368.095C32.4264 366.167 49.2258 365.433 65.9334 365.983C66.2088 365.983 66.3924 366.167 66.3924 366.442C66.3924 366.718 66.2088 366.901 65.9334 366.901C65.9334 366.901 65.9334 366.901 65.8416 366.901C49.134 366.351 32.4264 366.993 15.8106 369.013Z" fill="#363636"/>
<path d="M13.5156 378.376C13.2402 378.376 13.0566 378.193 13.0566 377.917C13.0566 377.642 13.2402 377.458 13.5156 377.458C31.692 375.806 50.052 374.888 68.2284 374.704C68.5038 374.704 68.6874 374.888 68.6874 375.163C68.6874 375.439 68.5038 375.622 68.2284 375.622C50.052 375.806 31.6002 376.724 13.5156 378.376Z" fill="#363636"/>
<path d="M15.3516 386.087C15.0762 386.087 14.8926 385.904 14.8926 385.628C14.8926 385.353 15.0762 385.169 15.3516 385.169C31.6002 383.884 48.0324 383.15 64.3728 383.242C64.6482 383.242 64.8318 383.425 64.8318 383.701C64.8318 383.976 64.6482 384.16 64.3728 384.16L63.0876 384.251C62.9958 384.251 62.904 384.251 62.8122 384.16C47.1144 384.068 31.1412 384.802 15.3516 386.087Z" fill="#363636"/>
<path d="M20.9512 393.707C20.6758 393.707 20.4922 393.523 20.4922 393.248C20.4922 392.972 20.6758 392.789 20.9512 392.789L47.5732 391.779C47.8486 391.779 48.0322 391.963 48.0322 392.238C48.0322 392.513 47.8486 392.697 47.5732 392.697L20.9512 393.707Z" fill="#363636"/>
<path d="M155.072 131.985C156.173 137.126 162.966 140.706 167.648 138.778C178.481 134.188 187.661 127.487 198.034 122.53C211.345 116.104 229.154 113.074 244.577 121.612C266.976 133.913 270.005 162.646 259.54 179.538C248.983 196.704 229.246 207.537 216.578 224.152C194.546 253.253 197.759 293.737 203.175 332.017C203.817 336.332 208.132 339.82 213.089 339.912C225.758 340.188 238.334 338.352 250.452 334.496C254.032 333.486 256.143 329.722 255.225 326.142C255.225 326.142 255.225 326.142 255.225 326.05C245.77 292.176 252.563 256.741 273.31 231.864C289.559 212.402 312.876 200.101 330.869 183.669C353.084 163.381 367.497 131.526 352.533 99.4879C337.57 67.4497 296.903 45.4177 260.825 41.8375C229.154 38.8999 186.834 45.1423 161.314 59.4631C139.282 71.9479 149.747 106.098 155.072 131.985Z" fill="url(#paint0_linear_360_2)"/>
<path d="M197.208 385.445C196.381 392.789 197.575 400.776 201.889 406.834C205.837 412.342 211.896 415.831 218.138 417.483C228.97 420.421 240.813 418.493 249.35 411.424C264.405 399.123 266.241 366.626 245.219 357.538C236.59 353.774 226.4 357.446 218.23 360.016C204.46 364.423 199.135 369.196 197.208 385.445Z" fill="url(#paint1_linear_360_2)"/>
<path d="M106.325 328.988C107.427 330.273 108.895 331.558 110.548 331.099C112.2 330.64 112.843 328.804 113.302 327.244C114.587 322.654 115.78 318.155 116.974 313.565C117.341 312.188 117.616 310.628 116.698 309.618C115.872 308.884 114.862 308.516 113.761 308.516C109.722 308.057 97.2368 303.926 97.0532 310.169C96.8696 316.411 102.469 324.581 106.325 328.988Z" fill="white"/>
<path d="M109.905 331.926C108.62 331.926 107.243 331.099 105.866 329.539C104.213 327.703 95.9513 317.88 96.3185 310.169C96.3185 308.976 96.8693 307.966 97.7873 307.231C100.541 305.12 106.508 306.313 110.823 307.231C112.016 307.507 113.118 307.69 113.852 307.782C115.138 307.782 116.331 308.241 117.249 309.159C118.442 310.628 117.983 312.739 117.708 313.749C116.606 318.339 115.321 322.929 114.036 327.427C113.485 329.172 112.751 331.283 110.731 331.742C110.364 331.834 110.089 331.834 109.905 331.926ZM102.194 307.323C100.909 307.231 99.6233 307.599 98.5217 308.241C97.9709 308.7 97.6037 309.435 97.6037 310.169C97.4201 315.769 102.377 323.572 106.784 328.529C108.069 329.998 109.262 330.732 110.272 330.457C111.557 330.09 112.2 328.437 112.567 327.06C113.852 322.562 115.046 317.972 116.239 313.382C116.606 312.097 116.79 310.812 116.056 309.985C115.321 309.343 114.495 309.067 113.485 309.067C112.659 308.976 111.557 308.7 110.364 308.517C107.702 307.874 104.948 307.507 102.194 307.323Z" fill="#363636"/>
<path d="M114.771 413.26C114.495 414.913 114.495 416.657 114.862 418.309C115.23 420.696 117.525 422.257 119.82 421.798C120.829 421.614 121.656 421.155 122.39 420.329C123.492 419.227 124.318 417.942 124.869 416.473C127.99 410.047 130.009 403.071 130.927 396.002C131.203 394.441 131.203 392.881 130.836 391.32C130.468 389.76 129.459 388.474 127.99 387.832C118.993 384.802 115.321 408.487 114.771 413.26Z" fill="#363636"/>
<path d="M135.884 433.732C135.333 435.568 134.783 437.587 135.609 439.331C136.802 442.085 140.199 442.82 143.136 443.187C146.441 443.646 149.838 444.105 153.143 443.371C156.447 442.636 159.569 440.341 160.395 437.128C161.313 433.64 159.385 430.06 157.549 426.938C155.254 423.083 150.48 413.811 144.789 416.473C140.199 418.768 137.261 429.417 135.884 433.732Z" fill="#363636"/>
<path d="M105.131 339.361C103.295 361.21 108.527 383.15 120.094 401.785C123.032 402.52 125.969 399.582 126.428 396.553C126.887 393.523 125.694 390.494 124.684 387.648C116.514 364.974 116.147 340.188 123.491 317.146C124.868 312.923 126.612 308.7 130.468 306.038C132.304 304.753 134.69 304.202 136.894 304.661C142.769 305.946 144.146 312.923 144.513 318.523C146.9 353.223 146.349 388.107 142.952 422.716L152.316 423.267C157.64 383.793 161.863 344.043 159.844 304.294C159.476 297.133 158.834 289.789 154.978 283.455C153.326 280.609 150.939 278.314 148.001 276.662C133.956 269.043 123.674 288.045 118.258 297.684C110.914 310.536 106.508 324.673 105.131 339.361Z" fill="#363636"/>
<path d="M122.114 179.813C122.94 183.118 124.409 186.147 126.429 188.809C128.632 191.472 132.212 193.583 135.792 193.491C140.291 193.399 143.595 190.278 145.982 187.157C150.297 181.282 153.051 174.672 155.805 168.063L167.739 139.237C169.208 135.749 170.585 131.985 169.208 128.313C168.106 125.559 165.536 123.264 162.506 121.795C159.477 120.418 156.356 119.409 153.051 118.766C148.277 117.481 143.32 116.838 138.455 116.563C133.589 116.563 128.632 117.481 124.96 120.143C122.022 122.254 119.727 125.743 120.003 129.323C120.095 130.792 120.645 131.985 120.554 133.362C120.37 135.474 119.727 137.585 119.36 139.696C118.167 148.142 118.075 156.771 119.268 165.217C119.727 170.266 120.737 175.131 122.114 179.813Z" fill="white"/>
<path d="M135.609 194.225C131.753 194.042 128.265 192.206 125.878 189.268C123.767 186.514 122.298 183.393 121.472 179.996C120.095 175.223 118.993 170.357 118.35 165.492C117.157 156.955 117.249 148.325 118.442 139.788C118.534 138.87 118.809 137.952 118.993 137.034C119.268 135.841 119.544 134.647 119.636 133.454C119.636 132.719 119.544 131.985 119.36 131.251C119.268 130.7 119.177 130.057 119.085 129.506C118.809 126.018 120.921 122.162 124.409 119.684C128.816 116.563 134.415 115.92 138.363 116.012C143.32 116.195 148.277 116.93 153.143 118.215C156.447 118.858 159.66 119.867 162.782 121.244C166.27 122.989 168.749 125.375 169.758 128.129C171.227 131.893 169.942 135.657 168.29 139.604L156.356 168.43C153.693 174.947 150.848 181.741 146.441 187.616C143.228 191.93 139.648 194.225 135.792 194.225H135.609ZM137.996 117.297C134.324 117.297 129.183 117.94 125.235 120.785C122.114 122.989 120.278 126.385 120.554 129.415C120.645 129.965 120.737 130.516 120.829 130.975C121.013 131.801 121.104 132.719 121.104 133.637C120.921 134.923 120.737 136.208 120.462 137.401C120.278 138.319 120.095 139.145 119.911 140.063C118.718 148.509 118.626 156.955 119.819 165.4C120.462 170.266 121.472 175.039 122.94 179.721C123.95 183.209 125.052 186.055 127.071 188.534C129.275 191.196 132.488 192.848 135.884 193.032C139.373 192.94 142.494 191.012 145.431 186.973C149.746 181.19 152.5 174.488 155.162 168.062L167.096 139.237C168.565 135.657 169.85 132.077 168.565 128.772C167.647 126.385 165.352 124.182 162.231 122.621C159.293 121.244 156.172 120.235 152.959 119.684C148.185 118.49 143.412 117.756 138.455 117.572L137.996 117.297Z" fill="#363636"/>
<path d="M122.298 136.208C121.563 138.687 121.288 141.257 121.655 143.827C122.022 146.398 123.399 148.693 125.602 150.07C115.963 151.171 107.242 144.195 106.233 134.556C106.141 134.005 106.141 133.546 106.141 132.995C106.049 128.956 107.518 124.733 110.639 122.163C113.76 119.592 118.717 119.225 121.839 121.795C122.206 110.045 132.028 100.681 143.779 101.049C146.625 101.14 149.379 101.783 151.949 102.976C157.365 105.455 161.496 110.045 165.444 114.635C169.942 119.868 174.624 125.651 175.174 132.536C175.725 139.146 172.237 145.755 166.729 149.427C161.129 153.099 154.244 154.201 147.726 152.548C152.224 150.621 154.795 145.847 154.06 140.982C153.051 136.208 149.287 132.536 144.421 131.71C139.464 130.975 135.15 133.454 132.12 137.218C130.743 135.29 130.651 132.628 128.265 131.526C124.96 129.874 123.032 133.27 122.298 136.208Z" fill="#363636"/>
<path d="M124.133 155.211C122.756 152.64 119.635 151.722 117.065 153.099C115.412 154.017 114.402 155.67 114.311 157.506C114.402 159.709 115.504 161.728 117.34 163.014C119.176 164.207 121.104 165.125 123.215 165.768" fill="white"/>
<path d="M123.307 166.41C123.215 166.41 123.123 166.41 123.123 166.41C120.92 165.767 118.901 164.849 117.065 163.564C115.045 162.187 113.852 159.984 113.76 157.505C113.852 154.292 116.514 151.63 119.727 151.722C121.93 151.722 123.858 153.007 124.868 154.935C125.051 155.302 124.868 155.669 124.592 155.853C124.225 156.037 123.858 155.853 123.674 155.578C122.573 153.374 119.819 152.456 117.615 153.65C116.147 154.384 115.229 155.945 115.137 157.597C115.229 159.617 116.238 161.361 117.891 162.554C119.635 163.748 121.563 164.574 123.582 165.217C123.95 165.308 124.133 165.767 124.041 166.043C124.041 166.043 124.041 166.043 124.041 166.135C123.766 166.318 123.582 166.41 123.307 166.41Z" fill="#363636"/>
<path d="M127.897 156.037C128.081 156.771 128.54 157.689 129.366 157.689C129.825 157.689 130.284 157.506 130.56 157.138C130.835 156.771 131.019 156.312 131.11 155.853C131.386 154.752 131.478 151.63 129.825 151.355C127.806 150.988 127.622 154.752 127.897 156.037Z" fill="#363636"/>
<path d="M136.16 155.486C135.976 156.404 136.068 157.689 136.894 158.056C137.445 158.24 138.179 158.148 138.638 157.781C139.097 157.322 139.464 156.863 139.648 156.312C140.107 155.578 140.291 154.66 140.199 153.742C139.648 149.794 136.527 153.834 136.16 155.486Z" fill="#363636"/>
<path d="M134.416 177.977C133.589 177.977 132.671 178.069 132.304 178.803C132.029 179.537 132.212 180.272 132.763 180.823C134.966 183.668 139.006 184.219 141.851 182.108C142.402 181.741 142.861 181.282 143.228 180.731C143.963 179.813 145.156 177.426 144.238 176.233C143.32 175.039 141.576 176.416 140.566 176.783C138.547 177.518 136.435 177.885 134.416 177.977Z" fill="#363636"/>
<path d="M156.723 154.201C158.926 152.365 162.139 152.548 164.067 154.752C165.352 156.22 165.719 158.24 164.985 159.984C164.067 162.004 162.231 163.473 160.119 163.932C158.008 164.391 155.805 164.482 153.693 164.299" fill="white"/>
<path d="M156.172 165.125C155.346 165.125 154.428 165.125 153.602 165.033C153.234 165.033 152.959 164.666 152.959 164.299C152.959 163.932 153.326 163.656 153.693 163.656C155.805 163.84 157.916 163.748 159.936 163.289C161.864 162.83 163.516 161.545 164.342 159.709C165.26 157.414 164.067 154.752 161.772 153.925C160.211 153.375 158.467 153.65 157.182 154.752C156.906 155.027 156.447 154.935 156.172 154.66C155.897 154.384 155.988 153.925 156.264 153.65C158.742 151.539 162.414 151.722 164.526 154.201C165.995 155.853 166.362 158.148 165.627 160.168C164.618 162.371 162.69 164.023 160.303 164.574C158.926 165.033 157.549 165.125 156.172 165.125Z" fill="#363636"/>
<path d="M153.234 208.638C150.939 205.884 148.552 203.13 145.431 201.111C142.31 199.091 138.179 197.989 134.599 198.907C128.907 200.468 126.612 206.251 125.143 211.392L107.793 270.42C106.141 275.928 104.855 282.354 109.078 286.852C112.842 290.799 119.452 291.442 125.235 291.625C133.313 291.993 141.575 292.268 149.378 290.707C157.181 289.147 164.709 285.291 168.473 279.232C172.971 271.888 171.41 262.708 169.391 254.355C166.086 241.227 158.283 221.398 153.234 208.638Z" fill="white"/>
<path d="M135.334 292.635C131.937 292.635 128.54 292.452 125.144 292.36C119.177 292.084 112.475 291.534 108.528 287.311C104.213 282.721 105.315 276.387 107.059 270.236L124.409 211.209C126.062 205.701 128.449 199.825 134.416 198.265C137.904 197.347 142.127 198.173 145.799 200.56C149.012 202.671 151.49 205.425 153.785 208.179C153.785 208.271 153.877 208.271 153.877 208.363L153.969 208.638C159.11 221.582 166.729 241.044 169.942 254.171C172.145 262.984 173.522 272.256 168.932 279.6C165.444 285.291 158.284 289.606 149.379 291.442C144.789 292.36 140.015 292.727 135.334 292.635ZM137.261 199.366C136.435 199.366 135.517 199.458 134.691 199.734C129.458 201.111 127.255 206.343 125.695 211.668L108.344 270.695C106.6 276.478 105.59 282.354 109.446 286.485C113.026 290.248 119.452 290.799 125.144 291.075C133.13 291.442 141.301 291.717 149.104 290.157C157.641 288.412 164.434 284.373 167.739 278.957C172.237 271.613 170.493 262.525 168.565 254.538C165.352 241.503 157.733 222.041 152.592 209.189L152.5 209.097C150.297 206.435 147.91 203.773 144.881 201.845C142.678 200.193 140.015 199.366 137.261 199.366Z" fill="#363636"/>
<path d="M123.767 204.415C124.776 202.671 126.062 200.835 128.081 200.743C130.101 200.652 131.661 202.212 132.212 203.956C132.671 205.792 132.671 207.628 132.212 209.464C127.989 235.627 121.38 261.423 112.567 286.485C112.292 287.403 111.833 288.229 111.282 288.963C109.538 290.891 106.416 290.432 103.846 289.881C101.826 289.422 99.5313 288.78 98.5215 286.944C97.5117 285.108 98.0625 282.904 98.7051 280.885L109.813 247.286C111.557 241.962 113.669 236.545 114.954 231.129C115.78 227.824 120.737 209.648 123.767 204.415Z" fill="#363636"/>
<path d="M161.037 292.36C161.496 294.104 162.965 295.297 164.709 295.389C166.729 295.573 168.748 295.481 170.768 295.022C173.705 294.288 176.551 292.36 177.469 289.514C177.928 287.77 178.02 285.934 177.653 284.098C175.633 265.371 170.492 247.194 165.26 229.11C162.414 219.012 159.385 208.73 154.336 199.55C151.857 195.052 145.339 190.278 143.503 198.081C141.943 204.691 145.247 214.422 146.349 221.031C148.828 236.913 151.857 252.794 155.345 268.492C157.181 276.57 159.109 284.465 161.037 292.36Z" fill="#363636"/>
<path d="M98.7971 209.281C89.4335 213.044 80.8043 218.736 75.4799 226.631C67.8605 237.922 67.9523 252.151 69.6047 265.279C70.8899 275.56 73.0013 285.842 77.4077 295.297C81.2633 303.926 87.3221 311.454 94.8497 317.146C96.5939 318.431 99.0725 318.064 100.449 316.319C103.112 312.647 105.315 308.7 107.059 304.569C107.702 303.1 107.151 301.448 105.866 300.622C89.4335 289.238 80.6207 269.318 84.0173 250.682C87.5975 231.313 104.213 214.33 125.052 208.913C126.98 208.454 132.396 207.077 131.386 204.323C130.652 202.212 126.062 202.671 124.317 202.855C115.596 203.773 106.967 205.976 98.7971 209.281Z" fill="#363636"/>
<path d="M188.761 184.403C200.603 175.957 209.508 164.115 214.465 150.437C215.475 147.591 216.852 144.286 219.789 143.735C221.533 143.368 223.278 144.286 224.93 145.204L236.13 151.263C237.598 152.089 239.251 153.007 239.893 154.568C241.179 157.23 239.067 160.259 237.139 162.554C226.307 175.039 214.281 186.698 199.777 194.776C185.272 202.855 168.289 206.986 152.041 203.864C149.287 203.314 143.779 200.468 147.726 197.897C150.388 196.245 157.916 197.071 161.221 196.429C171.135 194.317 180.499 190.278 188.761 184.403Z" fill="#363636"/>
<path d="M223.278 128.129C223.737 126.11 224.746 123.907 226.674 123.356C228.877 122.805 231.081 124.916 231.356 127.211C231.631 129.506 230.805 131.71 229.887 133.821C237.048 126.844 246.136 122.162 255.958 120.235C257.519 119.959 259.263 119.776 260.548 120.602C262.568 121.887 262.66 124.916 261.375 126.936C260.089 128.956 257.978 130.057 255.867 131.159C253.755 132.26 251.644 133.454 250.359 135.473C252.654 134.188 255.408 137.034 255.132 139.604C254.857 142.175 252.837 144.194 250.909 145.847C247.329 148.968 243.565 152.089 239.159 153.558C221.992 159.25 220.34 139.88 223.278 128.129Z" fill="white"/>
<path d="M233.377 155.211C230.715 155.302 228.144 154.293 226.216 152.548C220.708 147.499 220.525 136.208 222.544 127.946C223.279 124.917 224.564 123.172 226.492 122.713C227.593 122.438 228.695 122.713 229.613 123.356C230.898 124.274 231.816 125.651 232 127.12C232.183 128.497 232 129.966 231.541 131.343C238.426 125.376 246.78 121.336 255.776 119.592C257.52 119.225 259.356 119.041 260.917 120.051C261.835 120.694 262.569 121.704 262.753 122.805C263.028 124.366 262.753 126.018 261.927 127.303C260.55 129.507 258.071 130.792 256.143 131.802C254.674 132.444 253.297 133.362 252.012 134.464C252.563 134.556 253.022 134.739 253.481 135.015C254.95 136.024 255.868 137.769 255.776 139.513C255.501 142.359 253.389 144.378 251.278 146.214C247.514 149.519 243.842 152.548 239.252 154.109C237.416 154.843 235.396 155.211 233.377 155.211ZM227.41 123.999C227.226 123.999 227.043 123.999 226.859 124.09C225.574 124.458 224.564 125.835 223.921 128.313C221.902 136.483 222.361 147.132 227.134 151.63C229.888 154.201 233.836 154.568 238.885 152.916C243.199 151.447 246.78 148.509 250.452 145.296C252.379 143.644 254.215 141.808 254.491 139.513C254.583 138.228 253.94 136.942 252.838 136.3C252.196 135.841 251.37 135.749 250.727 136.116C250.452 136.3 250.084 136.208 249.901 136.024C249.717 135.749 249.625 135.474 249.809 135.198C251.186 132.995 253.573 131.71 255.592 130.7C257.612 129.69 259.632 128.589 260.825 126.661C261.468 125.651 261.651 124.366 261.468 123.172C261.284 122.438 260.825 121.795 260.182 121.336C259.081 120.602 257.52 120.786 256.051 121.061C246.412 122.989 237.416 127.579 230.347 134.464C230.072 134.739 229.613 134.739 229.338 134.464C229.154 134.28 229.062 134.005 229.246 133.729C230.072 131.893 230.99 129.598 230.715 127.487C230.531 126.294 229.888 125.284 228.879 124.641C228.42 124.182 227.961 123.999 227.41 123.999Z" fill="#363636"/>
<path d="M240.353 148.326H240.261C239.986 148.234 239.894 147.958 239.986 147.775C240.536 145.755 241.73 144.011 243.29 142.634C241.546 142.818 239.802 142.634 238.7 141.349C237.415 139.788 237.415 137.585 238.609 136.024C239.802 134.556 241.454 133.729 243.29 133.546C245.035 133.362 246.779 133.546 248.523 133.821C248.798 133.821 248.982 134.097 248.89 134.372C248.89 134.647 248.615 134.831 248.339 134.739C246.687 134.372 245.035 134.28 243.382 134.464C241.822 134.556 240.353 135.382 239.343 136.575C238.425 137.769 238.425 139.513 239.343 140.706C240.628 142.175 243.015 141.808 245.126 141.349C245.31 141.257 245.585 141.441 245.677 141.624C245.769 141.808 245.677 142.083 245.494 142.175C243.29 143.46 241.638 145.48 240.904 147.958C240.72 148.234 240.536 148.326 240.353 148.326Z" fill="#363636"/>
<defs>
<linearGradient id="paint0_linear_360_2" x1="184.105" y1="148.297" x2="311.765" y2="212.959" gradientUnits="userSpaceOnUse">
<stop stop-color="#8A0B24"/>
<stop offset="1" stop-color="#7A3946"/>
</linearGradient>
<linearGradient id="paint1_linear_360_2" x1="207.94" y1="378.479" x2="239.667" y2="401.616" gradientUnits="userSpaceOnUse">
<stop stop-color="#8A0B24"/>
<stop offset="1" stop-color="#7A3946"/>
</linearGradient>
</defs>
</svg>
