<svg width="250" height="250" viewBox="0 0 250 250" fill="none" xmlns="http://www.w3.org/2000/svg">
<path d="M166.45 171.35C165.9 172.7 165.55 174.1 165.4 175.5C164.9 178.8 164.4 182.2 165.05 185.5C165.3 186.95 166.05 188.6 167.5 188.95C169.15 189.3 170.55 187.8 171.45 186.4C173.8 182.65 176.75 176 175.4 171.45C174.15 167.2 168.2 167.75 166.45 171.35Z" fill="white"/>
<path d="M168 189.4C167.8 189.4 167.6 189.4 167.4 189.35C166.05 189.05 165.05 187.7 164.65 185.6C164 182.2 164.55 178.8 165 175.5C165.15 174.05 165.5 172.6 166.1 171.25C167.15 169.2 169.35 167.95 171.7 168.15C173.6 168.25 175.25 169.55 175.75 171.4C177.05 175.85 174.4 182.4 171.75 186.65C171.1 187.7 169.75 189.4 168 189.4ZM171.25 168.8C169.4 168.8 167.65 169.85 166.8 171.5C166.25 172.8 165.95 174.15 165.8 175.55C165.3 178.8 164.8 182.15 165.45 185.4C165.6 186.25 166.15 188.2 167.6 188.55C169.15 188.9 170.5 187.2 171.15 186.15C173.75 182 176.35 175.7 175.05 171.5C174.65 169.95 173.25 168.85 171.65 168.8C171.5 168.85 171.4 168.8 171.25 168.8Z" fill="#111111"/>
<path d="M157.55 220.7C155.9 221.5 154.8 223.05 153.9 224.6C152.1 227.85 150.9 231.4 150.45 235.1C150.2 236.55 150.3 238 150.6 239.45C150.95 240.9 151.9 242.1 153.25 242.75C154.85 243.45 156.75 242.95 158.15 241.95C159.55 240.95 160.55 239.45 161.4 237.9C163.25 234.65 166.2 229.65 165.9 225.7C165.65 221.95 161.05 219.05 157.55 220.7Z" fill="white"/>
<path d="M154.949 243.4C154.349 243.4 153.749 243.3 153.149 243.05C151.699 242.35 150.699 241.05 150.299 239.55C149.949 238.1 149.899 236.55 150.099 235.05C150.549 231.3 151.749 227.7 153.599 224.45C154.399 223 155.549 221.25 157.399 220.4C159.199 219.6 161.299 219.75 162.999 220.8C164.849 221.8 166.099 223.6 166.349 225.7C166.649 229.6 163.849 234.55 161.999 237.8L161.849 238.1C160.999 239.6 159.999 241.15 158.499 242.25C157.449 242.95 156.199 243.4 154.949 243.4ZM157.749 221.05C156.099 221.85 155.049 223.45 154.299 224.8C152.499 228 151.349 231.5 150.899 235.15C150.699 236.55 150.749 237.95 151.049 239.35C151.399 240.65 152.249 241.8 153.499 242.4C154.849 242.95 156.599 242.65 158.049 241.65C159.499 240.65 160.349 239.2 161.199 237.75L161.349 237.45C163.149 234.25 165.899 229.45 165.599 225.8C165.349 223.95 164.249 222.35 162.649 221.5C161.149 220.5 159.299 220.35 157.749 221.05Z" fill="#111111"/>
<path d="M173.699 137.9C168.899 140.15 164.099 142.7 160.499 146.65C156.899 150.6 154.649 156.1 155.849 161.25C156.649 164.85 158.949 167.9 161.199 170.85C162.999 173.15 164.949 175.6 167.749 176.45C169.249 176.85 170.798 176.65 172.148 175.9C173.498 175.1 173.948 173.35 173.148 171.95C172.948 171.65 172.749 171.4 172.499 171.2C170.799 169.9 169.248 168.35 167.898 166.7C166.098 164.4 164.849 161.55 165.049 158.65C165.249 155.8 166.799 153.2 168.799 151.2C170.799 149.2 173.248 147.7 175.648 146.2C179.048 144.1 182.599 141.95 186.699 141.85C188.449 141.75 190.199 142.2 191.699 143.1C196.449 146 196.049 152.05 194.648 156.9C187.549 181.7 162.799 198.5 156.299 223.6C156.149 224.2 156.099 224.85 156.249 225.5C156.899 228 159.798 227.7 161.898 228.45C162.948 228.8 164.099 228.3 164.449 227.25C170.499 211.05 181.149 197 190.299 182.25C199.899 166.8 208.199 149.4 207.099 131.25C206.999 129.65 206.799 127.95 205.749 126.65C204.449 125 202.099 124.6 199.999 124.6C194.999 124.65 190.649 126.35 187.349 130.05C183.849 134 178.449 135.7 173.699 137.9Z" fill="#111111"/>
<path d="M153.699 82.45C148.649 83.75 143.249 84.4 138.999 87.4C134.749 90.4 132.199 96.8 135.449 100.85C138.699 104.9 145.199 104 150.049 102C164.149 96.1 175.199 84.8 185.449 73.5C187.449 71.3 193.049 65.7 189.749 62.7C186.849 60.1 182.649 63.4 180.699 65.3C172.699 73.1 164.799 79.55 153.699 82.45Z" fill="#8A0B24"/>
<path d="M181.899 50.5C181.749 52.4 181.499 54.3 180.599 56.1C179.649 58 177.999 59.45 175.949 60.1C172.149 61.2 168.699 58.7 166.249 56.2C157.749 47.4 152.449 36.55 147.249 25.8C146.449 24.1 145.599 22.1 146.599 20.3C147.549 18.6 149.699 17.75 151.699 17.1C156.799 15.45 161.999 14 167.299 12.9C169.049 12.5 170.849 12.2 172.549 12.5C175.999 13.2 176.149 16.7 176.899 19.2C177.949 22.65 178.949 26.1 179.749 29.55C181.399 36.4 182.399 43.4 181.899 50.5Z" fill="white"/>
<path d="M174.149 60.7C171.499 60.7 168.749 59.25 165.999 56.45C157.349 47.55 152.049 36.55 146.949 26C146.049 24.2 145.249 22.1 146.299 20.15C147.249 18.4 149.399 17.5 151.599 16.8C156.749 15.1 161.949 13.7 167.199 12.6C169.049 12.2 170.849 11.85 172.599 12.2C175.699 12.8 176.349 15.45 176.899 17.8C176.999 18.3 177.149 18.75 177.249 19.2C178.149 22.25 179.249 25.85 180.149 29.6C182.049 37.6 182.749 44.25 182.299 50.55C182.249 52.55 181.799 54.5 180.949 56.3C179.949 58.3 178.199 59.8 176.049 60.5C175.449 60.65 174.799 60.7 174.149 60.7ZM171.049 12.8C169.799 12.85 168.549 13 167.349 13.3C162.099 14.45 156.899 15.85 151.799 17.5C149.749 18.15 147.749 19 146.899 20.5C145.999 22.1 146.749 23.9 147.549 25.65C152.649 36.2 157.899 47.1 166.449 55.95C169.699 59.3 172.849 60.6 175.749 59.75C177.699 59.15 179.299 57.75 180.149 55.95C181.049 54.2 181.249 52.3 181.399 50.5C181.849 44.3 181.149 37.7 179.299 29.75C178.399 26.05 177.349 22.45 176.449 19.45C176.299 19 176.199 18.5 176.049 18C175.499 15.8 174.949 13.5 172.349 12.95C171.999 12.85 171.549 12.8 171.049 12.8Z" fill="#111111"/>
<path d="M145.549 31.85C136.799 32.75 128.999 30.8 123.599 26.45C121.549 24.8 119.899 22.3 121.449 19C122.499 16.8 124.749 14.9 126.949 13.5C131.149 10.85 135.849 9.04999 140.699 8.09999C151.949 5.79999 162.549 7.09999 170.799 11.9C173.299 10.35 175.799 8.79999 178.399 8.09999C180.999 7.39999 183.749 7.64999 185.249 9.39999C186.599 11 186.649 13.55 186.549 16C186.299 22.15 185.399 29.35 180.849 35.2C178.899 33.05 177.099 30.75 175.499 28.35C174.699 27.15 173.999 25.95 173.299 24.75C172.899 24 172.499 22.4 171.549 22.15C169.999 21.75 166.199 25 164.549 25.85C161.699 27.4 158.749 28.65 155.649 29.7C152.399 30.75 148.999 31.5 145.549 31.85Z" fill="#111111"/>
<path d="M166.149 38.65C166.149 38.95 165.949 39.2 165.699 39.3C165.299 39.4 164.899 39.05 164.699 38.7C164.299 38.1 162.899 35.6 164.199 35.6C165.299 35.65 166.199 37.85 166.149 38.65Z" fill="#111111"/>
<path d="M160.948 41.1C160.748 41.3 160.398 41.4 160.098 41.3C159.798 41.2 159.548 41.05 159.348 40.8C158.698 40.2 156.748 37.95 158.648 37.85C159.798 37.85 161.748 40.1 160.948 41.1Z" fill="#111111"/>
<path d="M175.748 52.1C174.998 53.4 173.498 54.1 171.998 53.85C171.048 53.55 170.198 53 169.598 52.25C169.398 52.05 169.248 51.8 169.248 51.55C169.248 51.15 169.748 50.9 170.098 50.75C171.248 50.25 172.248 49.5 173.098 48.6C173.548 48.1 174.498 46.2 175.348 46.2C177.298 46.1 176.398 51.05 175.748 52.1Z" fill="#111111"/>
<path d="M175.498 33.05C175.998 31.7 176.598 30.2 177.848 29.55C178.798 29.05 179.898 29.05 180.848 29.5C181.798 29.95 182.548 30.75 182.998 31.7C183.598 33.05 183.598 34.6 182.898 35.95C182.148 37.25 180.798 38.05 179.298 38.05" fill="white"/>
<path d="M179.449 38.4H179.249C179.049 38.4 178.899 38.2 178.899 38C178.899 37.8 179.099 37.65 179.299 37.65C180.649 37.65 181.899 36.95 182.549 35.75C183.199 34.55 183.199 33.1 182.649 31.85C182.249 30.95 181.599 30.25 180.699 29.8C179.849 29.4 178.849 29.4 177.999 29.85C176.899 30.45 176.349 31.75 175.799 33.15C175.749 33.35 175.549 33.5 175.349 33.45C175.149 33.4 174.999 33.2 175.049 33C175.049 32.95 175.049 32.95 175.099 32.9C175.649 31.35 176.299 29.9 177.599 29.2C178.649 28.65 179.899 28.65 180.949 29.15C181.999 29.65 182.799 30.5 183.249 31.55C183.899 33 183.849 34.7 183.099 36.1C182.449 37.5 180.999 38.35 179.449 38.4Z" fill="#111111"/>
<path d="M200.699 69.2C198.549 65.75 196.049 62.3 192.399 60.5C188.749 58.7 183.749 59.05 181.349 62.35C179.749 64.6 179.699 67.5 179.599 70.25C179.149 87.9 176.099 105.35 174.299 122.95C174.049 125.1 174.849 127 175.349 129.1C177.699 139.5 218.449 137.15 218.399 122.95C218.349 118.1 217.099 111.8 216.049 107.2C214.599 100.85 212.649 94.55 210.299 88.45C207.749 81.8 204.499 75.3 200.699 69.2Z" fill="#8A0B24"/>
<path d="M180.448 35.5C180.398 35.5 180.348 35.5 180.348 35.45C180.248 35.4 180.198 35.25 180.248 35.15C180.698 34.5 180.898 33.75 180.848 32.95C180.798 32.2 180.248 31.55 179.498 31.4C179.098 31.35 178.748 31.5 178.498 31.8C178.298 32 178.198 32.3 178.248 32.6C178.298 32.7 178.198 32.85 178.048 32.85C177.948 32.9 177.798 32.8 177.798 32.7C177.698 32.25 177.848 31.8 178.148 31.45C178.498 31.05 179.048 30.85 179.548 30.9C180.498 31.1 181.198 31.9 181.298 32.85C181.348 33.75 181.098 34.6 180.598 35.35C180.648 35.45 180.548 35.5 180.448 35.5Z" fill="#111111"/>
<path d="M237.2 94.0499C238.85 96.1999 240.4 98.4999 241.3 101.05C242.2 103.6 242.45 106.5 241.55 109.05C240.2 112.65 236.75 115.05 233.2 116.5C227.85 118.65 221.95 119.1 216.15 118.9C210.85 118.75 205.55 118.05 200.35 116.9C199.3 116.65 198.05 116.3 197.6 115.3C197.4 114.65 197.35 113.95 197.5 113.3C197.85 110.45 198.2 107.65 198.55 104.8L218.35 105.35C220.2 105.4 222.25 105.35 223.5 104.05C225.1 102.35 224.5 99.5999 223.45 97.4999C220.35 91.1499 214.65 86.5499 209.4 81.7999C204.05 76.9499 199 71.7999 194.25 66.3499C191.75 63.4999 192.8 60.5499 196.65 61.9499C200.3 63.2999 203.75 65.9499 207.05 67.9999C214.3 72.5499 221.3 77.5999 227.6 83.4499C231.05 86.7499 234.25 90.2999 237.2 94.0499Z" fill="#8A0B24"/>
<path d="M207.6 80.5C207.55 80.5 207.5 80.5 207.45 80.45C202.15 75.65 198.75 72 194 66.5C193.9 66.4 193.95 66.25 194.05 66.15C194.15 66.1 194.25 66.1 194.35 66.15C199.05 71.6 202.45 75.2501 207.75 80.0501C207.85 80.1501 207.85 80.3 207.75 80.4C207.7 80.45 207.65 80.5 207.6 80.5Z" fill="#111111"/>
<path d="M215.249 119.35C210.199 119.2 205.899 118.4 200.199 117.15C199.049 116.9 197.799 116.5 197.299 115.4C197.049 114.7 196.999 113.95 197.149 113.25L198.199 104.75C198.199 104.65 198.299 104.55 198.449 104.55C201.749 104.65 203.999 104.8 206.199 104.95C208.399 105.1 210.649 105.25 213.949 105.35C214.099 105.35 214.199 105.45 214.199 105.6C214.199 105.7 214.099 105.85 213.999 105.85C210.699 105.75 208.449 105.6 206.249 105.45C204.049 105.3 201.899 105.15 198.749 105.05L197.699 113.35C197.549 114 197.599 114.65 197.799 115.25C198.199 116.15 199.299 116.5 200.399 116.75C206.049 118.05 210.299 118.8 215.349 118.95C215.499 118.95 215.599 119 215.599 119.15C215.599 119.3 215.549 119.4 215.399 119.4C215.349 119.4 215.299 119.4 215.249 119.35Z" fill="#111111"/>
<path d="M179.698 79.55C179.548 79.55 179.498 79.45 179.498 79.3L180.198 70.15C180.198 70 180.298 69.95 180.448 69.95C180.598 69.95 180.648 70.05 180.648 70.2L179.948 79.35C179.948 79.45 179.848 79.55 179.698 79.55Z" fill="#111111"/>
<path d="M165.45 77.8999C159.9 55.9999 135.25 33.1499 111.5 42.2999C99.0498 47.0999 90.1998 59.4999 88.6998 72.7499C87.1998 85.9999 92.6498 99.5999 102.1 109C110.05 116.9 121 122.05 132.2 122.05C143.4 122.05 154.75 116.7 161.05 107.4C166.8 98.9499 168 87.8499 165.45 77.8999ZM159.55 90.6999C158.05 100.55 150.1 108.85 140.55 111.55C131 114.25 120.25 111.45 112.6 105.1C104.95 98.7499 100.3 89.0999 99.3498 79.1999C98.4498 70.2999 100.6 60.7999 106.7 54.2999C112.2 48.4499 123.4 44.4499 130.55 49.6499C137.7 54.8499 146 59.8999 151.75 66.7499C157.3 73.3499 160.8 82.1499 159.55 90.6999Z" fill="white"/>
<path d="M132.299 122.45H132.199C121.299 122.4 110.199 117.6 101.799 109.25C91.8494 99.4 86.8494 85.7 88.2994 72.7C89.8494 59 99.0994 46.65 111.299 41.95C120.099 38.55 129.699 39.3 138.999 44.1C151.549 50.55 162.299 64.1 165.749 77.8C168.449 88.35 166.749 99.5 161.299 107.65C155.199 116.8 144.049 122.45 132.299 122.45ZM122.549 40.6C118.799 40.6 115.099 41.3 111.599 42.65C99.6494 47.25 90.5994 59.35 89.0494 72.8C87.5994 85.6 92.5494 99.05 102.349 108.75C110.599 116.95 121.499 121.7 132.199 121.7H132.299C143.799 121.7 154.699 116.15 160.749 107.2C166.099 99.25 167.749 88.35 165.099 77.95C161.649 64.45 151.049 51.1 138.699 44.75C133.349 42 127.899 40.6 122.549 40.6ZM132.949 112.95C125.399 112.9 118.149 110.25 112.349 105.4C104.849 99.2 99.9994 89.7 98.9494 79.25C97.9494 69.3 100.699 60.15 106.399 54.05C109.549 50.85 113.549 48.55 117.899 47.45C122.849 46.25 127.399 46.9 130.749 49.35C132.199 50.4 133.749 51.5 135.249 52.55C141.199 56.7 147.399 61.05 151.999 66.5C158.249 73.85 161.149 82.7 159.899 90.75C158.449 100.45 150.499 109.15 140.599 111.9C138.099 112.6 135.499 112.95 132.949 112.95ZM122.549 47.65C116.899 47.65 110.699 50.5 106.899 54.55C101.299 60.45 98.6494 69.45 99.6494 79.15C100.649 89.35 105.449 98.7 112.749 104.8C120.549 111.3 131.149 113.7 140.349 111.15C149.949 108.45 157.699 100 159.099 90.6C160.299 82.75 157.449 74.15 151.349 66.95C146.799 61.55 140.649 57.3 134.749 53.15C133.249 52.1 131.699 51 130.249 49.95C128.049 48.4 125.349 47.6 122.549 47.65Z" fill="#111111"/>
<path d="M160.549 107.2C171.899 117.7 183.599 127.8 195.649 137.45C197.799 139.2 200.149 141 202.899 141.35C205.649 141.7 208.899 139.95 209.099 137.15C209.249 135 207.649 133.15 206.099 131.65C193.849 119.55 179.899 109.3 164.649 101.25" fill="white"/>
<path d="M203.6 141.8C203.35 141.8 203.1 141.8 202.85 141.75C200.1 141.4 197.85 139.75 195.4 137.75C183.4 128.1 171.6 117.9 160.3 107.45C160.15 107.3 160.2 107.05 160.35 106.9C160.5 106.8 160.65 106.8 160.8 106.9C172.1 117.35 183.9 127.5 195.85 137.15C198.2 139.05 200.35 140.65 202.95 140.95C204.5 141.15 206.05 140.7 207.3 139.7C208.1 139.05 208.65 138.15 208.75 137.1C208.9 135.15 207.45 133.45 205.85 131.9C193.65 119.8 179.75 109.6 164.55 101.6C164.35 101.5 164.3 101.3 164.4 101.1C164.5 100.9 164.7 100.85 164.9 100.95C180.15 109 194.15 119.25 206.4 131.4C208.1 133.1 209.65 134.95 209.5 137.2C209.4 138.45 208.8 139.55 207.8 140.3C206.55 141.3 205.1 141.8 203.6 141.8Z" fill="#111111"/>
<path d="M169.799 105.4C166.949 106.55 164.199 108.1 162.349 110.55C160.499 113 159.799 116.45 161.199 119.15C162.599 121.85 166.399 123.25 168.949 121.55C166.649 124 166.799 127.9 169.249 130.2C171.099 131.9 173.799 132.35 176.049 131.25C178.699 130 180.049 127.05 182.149 125.05C184.149 123.15 186.849 122.1 189.399 121.1C195.299 118.8 204.199 111.65 195.999 105.95C189.099 101.15 177.149 102.45 169.799 105.4Z" fill="white"/>
<path d="M173.5 132.15C169.95 132.25 167 129.4 166.95 125.85C166.9 124.65 167.25 123.5 167.8 122.45C166.85 122.7 165.85 122.7 164.95 122.45C163.2 122 161.75 120.85 160.9 119.3C159.55 116.65 160 113.05 162.1 110.3C163.7 108.15 166.2 106.4 169.7 105C177.8 101.75 189.55 100.95 196.3 105.6C198.85 107.35 200.05 109.4 199.75 111.7C199.45 114.15 196.5 118.75 189.65 121.4C187.1 122.4 184.5 123.4 182.5 125.25C181.75 126 181.05 126.8 180.4 127.65C179.25 129.15 178.05 130.65 176.3 131.5C175.4 131.95 174.45 132.2 173.5 132.15ZM168.95 121.15C169.05 121.15 169.15 121.2 169.25 121.3C169.4 121.45 169.4 121.65 169.25 121.8C167.1 124.1 167.2 127.75 169.5 129.9C171.25 131.5 173.8 131.9 175.9 130.9C177.5 130.15 178.6 128.75 179.75 127.25C180.4 126.35 181.15 125.55 181.9 124.75C183.95 122.8 186.65 121.75 189.3 120.75C193.65 119.05 198.5 115.3 198.95 111.65C199.2 109.7 198.15 107.85 195.8 106.25C190.85 102.85 180.35 101.55 169.9 105.75C166.55 107.1 164.15 108.75 162.65 110.8C160.75 113.35 160.3 116.6 161.55 119C162.3 120.4 163.6 121.4 165.15 121.8C166.35 122.15 167.7 122 168.75 121.3C168.85 121.2 168.9 121.2 168.95 121.15Z" fill="#111111"/>
<g opacity="0.47">
<path d="M96.5998 66.95C90.2498 84.6 99.3998 104 117.05 110.35C119.9 111.4 122.85 112 125.9 112.25C132.05 112.75 138.2 111.55 144.2 110.05C148.9 108.9 153.75 107.45 157.25 104.05C161.2 100.2 162.65 94.35 162.2 88.85C161.75 83.35 159.55 78.2 157 73.3C153.15 66 148.4 59 141.9 53.85C135.7 48.85 127.9 46.15 119.9 46.25C113.4 46.3 106.85 51.65 102.8 56.35C100.1 59.5 97.9998 63.1 96.5998 66.95Z" fill="white"/>
<path d="M128.7 112.75C127.75 112.75 126.8 112.7 125.85 112.65C106.95 111.2 92.8498 94.6499 94.2998 75.7999C94.5498 72.75 95.1998 69.7499 96.1998 66.8499C97.5998 62.9499 99.7498 59.3499 102.45 56.1999C110.6 46.7499 117.85 45.9499 119.85 45.9499C127.95 45.8499 135.8 48.5499 142.1 53.5999C147.8 58.1499 152.8 64.5499 157.3 73.1499C159.5 77.2999 162.05 82.8499 162.55 88.8499C163.05 94.9499 161.15 100.75 157.5 104.35C153.9 107.85 148.8 109.35 144.3 110.45C139.3 111.65 134.05 112.75 128.7 112.75ZM120.15 46.6499H119.95C112.3 46.6999 105.15 54.2999 103.1 56.6499C100.45 59.6999 98.3498 63.2499 96.9498 67.0999C90.6998 84.5499 99.6998 103.75 117.15 110C119.95 111 122.9 111.65 125.9 111.9C132.1 112.4 138.35 111.15 144.1 109.7C148.5 108.6 153.55 107.15 156.95 103.8C160.5 100.35 162.3 94.7999 161.8 88.8999C161.3 82.9999 158.8 77.5999 156.65 73.4999C152.2 64.9499 147.3 58.6499 141.65 54.1499C135.6 49.2499 127.95 46.5999 120.15 46.6499Z" fill="#111111"/>
</g>
<path d="M168.6 121.85C168.55 121.85 168.5 121.85 168.45 121.8C168.35 121.7 168.3 121.55 168.4 121.45C172.6 115.85 178.3 111.55 184.8 109C184.95 108.95 185.05 109.05 185.1 109.15C185.15 109.25 185.1 109.4 184.95 109.45C178.55 111.95 172.95 116.2 168.75 121.7C168.75 121.8 168.7 121.85 168.6 121.85Z" fill="#111111"/>
<path d="M7.90039 104.85C8.00039 111.25 8.05039 142.1 8.15039 148.45C8.15039 149.15 8.25039 149.95 8.90039 150.25C9.20039 150.35 9.55039 150.4 9.85039 150.35L14.6504 150.15C19.8004 149.95 59.4004 150.2 64.5004 150C65.5504 149.95 66.8504 149.8 67.4004 148.95C67.6504 148.45 67.7504 147.85 67.7004 147.25C67.6004 141.45 67.8004 110.25 67.7004 104.4C67.7504 103.75 67.6004 103.1 67.2504 102.6C66.6504 101.85 65.4504 101.85 64.4504 101.85C60.1504 102 21.2004 102.3 16.9004 102.2C14.8004 102.15 12.6504 102.1 10.5004 102C8.65039 101.9 7.90039 103.25 7.90039 104.85Z" fill="white"/>
<path d="M9.55106 150.75C9.25106 150.75 9.00106 150.7 8.75106 150.6C7.80106 150.15 7.80106 148.95 7.80106 148.5C7.75106 145.3 7.75106 135.85 7.70106 126.7C7.65106 117.55 7.65106 108.1 7.60106 104.9C7.55106 103.95 7.85106 103.05 8.50106 102.35C9.10106 101.8 9.85106 101.55 10.6011 101.65C12.1511 101.7 13.7011 101.75 15.2511 101.8L17.0011 101.85C21.4511 101.95 60.7511 101.65 64.5511 101.5C65.6511 101.45 66.9511 101.5 67.6511 102.35C68.0511 102.95 68.2511 103.7 68.2011 104.4C68.2511 107.3 68.2011 116.75 68.2011 125.85C68.2011 134.95 68.1511 144.35 68.2011 147.25C68.2511 147.9 68.1511 148.55 67.8511 149.15C67.2011 150.15 65.9011 150.35 64.6511 150.4C62.1011 150.5 50.7011 150.5 39.7011 150.45C28.7011 150.4 17.3511 150.4 14.7511 150.55L9.95106 150.75H9.55106ZM8.30106 104.85C8.35106 108.05 8.40106 117.5 8.40106 126.65C8.40106 135.8 8.50106 145.25 8.50106 148.45C8.50106 149.3 8.70106 149.75 9.00106 149.9C9.25106 150 9.50106 150 9.80106 149.95L14.6011 149.75C17.2011 149.65 28.5511 149.65 39.5511 149.65C50.5511 149.65 61.9011 149.7 64.4511 149.6C65.4511 149.55 66.6011 149.4 67.0511 148.7C67.2511 148.25 67.3511 147.75 67.3011 147.25C67.2511 144.35 67.3011 134.95 67.3011 125.85C67.3011 116.75 67.3511 107.35 67.3011 104.4C67.3511 103.85 67.2511 103.3 66.9511 102.8C66.4511 102.2 65.4011 102.15 64.4511 102.2C60.3011 102.35 21.4511 102.65 16.8511 102.55L15.1011 102.5C13.6011 102.45 12.0011 102.45 10.4511 102.35C9.90106 102.3 9.30106 102.45 8.90106 102.85C8.45106 103.45 8.20106 104.15 8.30106 104.85Z" fill="#111111"/>
<path d="M67.7496 106.75C67.7496 105.95 67.7496 105.2 67.7496 104.4C67.7996 103.75 67.6496 103.1 67.2996 102.6C66.6996 101.85 65.4996 101.85 64.4996 101.85C60.1996 102 21.2496 102.3 16.9496 102.2C14.8496 102.15 12.6996 102.1 10.5496 102C8.6496 101.9 7.8996 103.25 7.9496 104.85C7.9496 105.45 7.9496 106.1 7.9496 106.7H67.7496V106.75Z" fill="white"/>
<path d="M67.7503 107.1H7.95028C7.75028 107.1 7.60028 106.95 7.55028 106.75V104.9C7.50028 103.95 7.80028 103.05 8.45028 102.35C9.05028 101.8 9.80028 101.55 10.5503 101.65C12.1003 101.7 13.6503 101.75 15.2003 101.8L16.9503 101.85C21.4003 101.95 60.7003 101.65 64.5003 101.5C65.6003 101.45 66.9003 101.5 67.6003 102.35C68.0003 102.95 68.2003 103.7 68.1503 104.4C68.1503 105.15 68.1503 105.95 68.1503 106.75C68.1503 106.95 67.9503 107.1 67.7503 107.1ZM8.30028 106.35H67.3503C67.3503 105.7 67.3503 105.05 67.3503 104.4C67.4003 103.85 67.3003 103.3 67.0003 102.8C66.5003 102.2 65.4503 102.15 64.5003 102.2C60.3503 102.35 21.5003 102.65 16.9003 102.55L15.1503 102.5C13.6503 102.45 12.0503 102.45 10.5003 102.35C9.95028 102.3 9.35028 102.45 8.95028 102.85C8.45028 103.4 8.25028 104.1 8.30028 104.85V106.35Z" fill="#111111"/>
<path d="M10.801 104.2C10.651 104.6 10.801 105.05 11.101 105.35C11.451 105.65 11.901 105.7 12.301 105.55C12.701 105.35 12.951 104.95 12.901 104.5C12.901 103.9 12.401 103.45 11.801 103.45C11.351 103.45 10.951 103.75 10.801 104.2Z" fill="#111111"/>
<path d="M13.6012 104.05C13.4512 104.6 13.8012 105.2 14.3512 105.4C14.9012 105.55 15.5012 105.25 15.7012 104.7C16.1012 103.35 13.9512 102.65 13.6012 104.05Z" fill="#111111"/>
<path d="M16.4012 103.8C16.3012 104.05 16.3012 104.35 16.4012 104.6C16.5012 105.15 17.0512 105.5 17.6012 105.4C18.1512 105.3 18.5012 104.75 18.4012 104.2C18.2012 103.2 16.7012 102.65 16.4012 103.8Z" fill="#111111"/>
<path d="M42.4512 114.9C42.3012 114.9 42.2012 114.8 42.2012 114.65C42.2012 114.5 42.3012 114.4 42.4512 114.4L58.1012 113.95C58.2512 113.95 58.3512 114.05 58.3512 114.2C58.3512 114.35 58.2512 114.45 58.1012 114.45L42.4512 114.9Z" fill="#8A0B24"/>
<path d="M42.4512 116.85C42.3012 116.85 42.2012 116.75 42.2012 116.6C42.2012 116.45 42.3012 116.35 42.4512 116.35L59.2012 115.65C59.3512 115.65 59.4512 115.75 59.4512 115.9C59.4512 116.05 59.3512 116.15 59.2012 116.15L42.4512 116.85Z" fill="#8A0B24"/>
<path d="M42.4512 118.7C42.3012 118.7 42.2012 118.6 42.2012 118.45C42.2012 118.3 42.3012 118.2 42.4512 118.2C47.5512 117.9 52.7012 117.85 57.8512 118C58.0012 118 58.1012 118.1 58.1012 118.25C58.1012 118.4 58.0012 118.5 57.8512 118.5C52.7512 118.3 47.5512 118.4 42.4512 118.7Z" fill="#8A0B24"/>
<path d="M42.4512 120.15C42.3012 120.15 42.2012 120.05 42.2012 119.9C42.2012 119.75 42.3012 119.65 42.4512 119.65L58.9012 119.35C59.0512 119.35 59.1512 119.45 59.1512 119.6C59.1512 119.75 59.0512 119.85 58.9012 119.85L42.4512 120.15Z" fill="#8A0B24"/>
<path d="M42.4512 114.9C42.3012 114.9 42.2012 114.8 42.2012 114.65C42.2012 114.5 42.3012 114.4 42.4512 114.4L58.1012 113.95C58.2512 113.95 58.3512 114.05 58.3512 114.2C58.3512 114.35 58.2512 114.45 58.1012 114.45L42.4512 114.9Z" fill="#8A0B24"/>
<path d="M42.4512 116.85C42.3012 116.85 42.2012 116.75 42.2012 116.6C42.2012 116.45 42.3012 116.35 42.4512 116.35L59.2012 115.65C59.3512 115.65 59.4512 115.75 59.4512 115.9C59.4512 116.05 59.3512 116.15 59.2012 116.15L42.4512 116.85Z" fill="#8A0B24"/>
<path d="M42.4512 118.7C42.3012 118.7 42.2012 118.6 42.2012 118.45C42.2012 118.3 42.3012 118.2 42.4512 118.2C47.5512 117.9 52.7012 117.85 57.8512 118C58.0012 118 58.1012 118.1 58.1012 118.25C58.1012 118.4 58.0012 118.5 57.8512 118.5C52.7512 118.3 47.5512 118.4 42.4512 118.7Z" fill="#8A0B24"/>
<path d="M42.4512 120.15C42.3012 120.15 42.2012 120.05 42.2012 119.9C42.2012 119.75 42.3012 119.65 42.4512 119.65L58.9012 119.35C59.0512 119.35 59.1512 119.45 59.1512 119.6C59.1512 119.75 59.0512 119.85 58.9012 119.85L42.4512 120.15Z" fill="#8A0B24"/>
<path d="M50.75 141.3C50.6 141.3 50.5 141.2 50.5 141.05C50.5 140.9 50.6 140.8 50.75 140.8C53.8 140.5 56.9 140.45 59.95 140.6C60.1 140.6 60.2 140.7 60.2 140.85C60.2 141 60.1 141.1 59.95 141.1C56.9 140.95 53.85 141 50.85 141.3H50.75Z" fill="#8A0B24"/>
<path d="M50.75 142.75C50.6 142.75 50.5 142.65 50.5 142.5C50.5 142.35 50.6 142.25 50.75 142.25L60.55 141.95C60.7 141.95 60.8 142.05 60.8 142.2C60.8 142.35 60.7 142.45 60.55 142.45L50.75 142.75Z" fill="#8A0B24"/>
<path d="M42.9505 141.3C42.8505 141.3 42.7005 141.2 42.7005 141.1C42.6505 140.95 42.7505 140.85 42.9005 140.8C44.6005 140.5 46.3505 140.45 48.0505 140.55C48.2005 140.55 48.3005 140.7 48.3005 140.8C48.3005 140.95 48.1505 141.05 48.0505 141.05C46.3505 140.9 44.6505 141 42.9505 141.3Z" fill="#8A0B24"/>
<path d="M42.9512 142.75C42.8012 142.75 42.7012 142.65 42.7012 142.5C42.7012 142.35 42.8012 142.25 42.9512 142.25L48.4012 141.95C48.5512 141.95 48.6512 142.05 48.6512 142.2C48.6512 142.35 48.5512 142.45 48.4012 142.45L42.9512 142.75Z" fill="#8A0B24"/>
<path d="M17.3504 139.45C17.3504 140.45 17.4504 141.55 18.2004 142.25C18.8504 142.8 19.8504 142.85 20.7504 142.85L32.8004 143C33.6004 143.1 34.4004 142.95 35.1004 142.6C36.2004 141.9 36.3504 140.4 36.3504 139.15V117.55C36.3504 116.2 36.3004 114.75 35.4504 113.8C34.4504 112.65 32.6504 112.6 31.1004 112.6L21.0504 112.65C18.8004 112.65 17.5004 113.65 17.5004 115.95C17.5004 118.55 17.4004 121.15 17.3504 123.75C17.2504 129.05 17.2504 134.3 17.3504 139.45Z" fill="#8A0B24"/>
<path d="M58.5 76C58.6 84.5 58.75 125.75 58.85 134.25C58.85 135.15 59 136.25 59.95 136.65C60.4 136.8 60.9 136.85 61.35 136.8L68.6 136.55C76.35 136.25 136.1 136.65 143.85 136.35C145.45 136.3 147.35 136.1 148.2 134.9C148.6 134.25 148.75 133.45 148.65 132.65C148.55 124.9 148.8 83.2 148.65 75.4C148.65 74.55 148.6 73.65 148 72.95C147.05 71.95 145.3 71.9 143.75 71.95C137.3 72.15 78.45 72.55 71.95 72.4C68.75 72.35 65.5 72.3 62.3 72.15C59.6 72.05 58.5 73.8 58.5 76Z" fill="white"/>
<path d="M60.9993 137.15C60.5993 137.15 60.2493 137.1 59.8493 136.95C58.4993 136.4 58.4993 134.85 58.4993 134.2C58.4493 129.95 58.3993 117.3 58.3493 105.1C58.2993 92.9 58.2493 80.2 58.1993 75.95C58.0993 74.75 58.5493 73.6 59.3493 72.75C60.2493 72 61.3993 71.6 62.5493 71.75C64.8993 71.85 67.2493 71.9 69.5493 71.95L72.1993 72C78.9493 72.15 138.249 71.7 143.949 71.55C145.599 71.5 147.449 71.55 148.449 72.65C149.199 73.45 149.199 74.55 149.199 75.35C149.249 79.25 149.199 91.85 149.199 104C149.199 116.15 149.149 128.75 149.199 132.6C149.299 133.45 149.099 134.3 148.649 135.05C147.749 136.3 145.849 136.55 143.999 136.65C140.099 136.8 122.999 136.75 106.399 136.75C89.7993 136.75 72.6493 136.7 68.7493 136.85L61.4993 137.1L60.9993 137.15ZM62.1993 72.55C61.3493 72.5 60.4993 72.8 59.7993 73.35C59.1493 74.05 58.7993 75.05 58.8993 76C58.9493 80.25 58.9993 92.9 59.0493 105.15C59.0993 117.4 59.1493 130 59.1993 134.25C59.1993 135.45 59.4993 136.05 60.0993 136.3C60.4993 136.4 60.9493 136.45 61.3993 136.4L68.6493 136.15C72.5493 136 89.6993 136.05 106.299 136.05C122.899 136.05 139.999 136.1 143.849 135.95C145.449 135.9 147.199 135.7 147.949 134.7C148.349 134.15 148.349 133.5 148.349 132.7C148.299 128.8 148.349 116.25 148.349 104.1C148.349 91.95 148.399 79.35 148.349 75.45C148.349 74.6 148.299 73.8 147.799 73.25C146.999 72.35 145.349 72.35 143.849 72.4C137.549 72.6 78.9493 73 72.0493 72.85L69.3993 72.8C67.0993 72.75 64.6993 72.7 62.3993 72.6L62.1993 72.55Z" fill="#111111"/>
<path d="M148.8 78.5C148.8 77.45 148.8 76.4 148.8 75.4C148.8 74.55 148.75 73.65 148.15 72.95C147.25 71.95 145.45 71.9 143.9 71.95C137.45 72.15 78.5996 72.55 72.0996 72.4C68.8996 72.35 65.6496 72.3 62.4496 72.15C59.5996 72 58.4496 73.8 58.4996 76C58.4996 76.85 58.4996 77.65 58.5496 78.5H148.8Z" fill="#8A0B24"/>
<path d="M62.35 75.1C62.2 75.65 62.35 76.25 62.75 76.65C63.2 77.05 63.8 77.1 64.35 76.9C64.85 76.65 65.2 76.1 65.15 75.5C65.05 73.95 62.85 73.5 62.35 75.1Z" fill="#111111"/>
<path d="M66.0985 74.95C65.8985 75.7 66.3485 76.45 67.0485 76.75C67.7985 76.95 68.5485 76.55 68.8485 75.8C69.4485 74 66.5985 73.05 66.0985 74.95Z" fill="#111111"/>
<path d="M69.8485 74.55C69.7485 74.9 69.7485 75.25 69.7985 75.65C69.9985 76.35 70.7985 76.75 71.4985 76.55C72.0985 76.35 72.4985 75.75 72.4485 75.1C72.2985 73.8 70.2985 73 69.8485 74.55Z" fill="#111111"/>
<path d="M93.8984 132.2C93.5984 132.2 93.3984 132 93.3984 131.7C93.3984 131.4 93.5984 131.2 93.8984 131.2L119.298 130.05C119.598 130.05 119.798 130.25 119.798 130.55C119.798 130.85 119.598 131.05 119.298 131.05L93.8984 132.2Z" fill="#111111"/>
<path d="M69.4002 83.95C69.1502 83.95 68.9502 83.75 68.9002 83.5C68.8502 83.25 69.0502 83 69.3502 82.95C73.0002 82.55 76.6502 82.35 80.3002 82.35C80.6002 82.35 80.8002 82.55 80.8002 82.85C80.8002 83.15 80.6002 83.35 80.3002 83.35C76.7002 83.35 73.0502 83.55 69.4502 83.95H69.4002Z" fill="#8A0B24"/>
<path d="M81.8496 83.25C81.5496 83.25 81.3496 83.05 81.3496 82.75C81.3496 82.45 81.5496 82.25 81.8496 82.25L92.3496 81.85C92.6496 81.85 92.8496 82.05 92.8496 82.35C92.8496 82.65 92.6496 82.85 92.3496 82.85L81.8496 83.25Z" fill="#111111"/>
<path d="M69.3984 86.1501C69.0984 86.1501 68.8984 85.9501 68.8984 85.6501C68.8984 85.4001 69.0984 85.1501 69.3484 85.1501L79.4984 84.7001C79.7984 84.7001 79.9984 84.9001 79.9984 85.2001C79.9984 85.5001 79.7984 85.7001 79.4984 85.7001L69.3984 86.1501Z" fill="#8A0B24"/>
<path d="M81.8496 86C81.5496 86 81.3496 85.8 81.3496 85.5C81.3496 85.2 81.5496 85 81.8496 85L92.1996 84.75C92.4996 84.75 92.6996 84.95 92.6996 85.25C92.6996 85.55 92.4996 85.75 92.1996 85.75L81.8496 86Z" fill="#111111"/>
<path d="M81.8496 88.55C81.5496 88.55 81.3496 88.35 81.3496 88.05C81.3496 87.75 81.5496 87.55 81.8496 87.55L92.5996 87.5C92.8996 87.5 93.0996 87.7 93.0996 88C93.0996 88.3 92.8996 88.5 92.5996 88.5L81.8496 88.55Z" fill="#111111"/>
<path d="M81.8496 91.5C81.5496 91.5 81.3496 91.3 81.3496 91C81.3496 90.7 81.5496 90.5 81.8496 90.5L116.8 89.6C117.1 89.6 117.3 89.8 117.3 90.1C117.3 90.4 117.1 90.6 116.8 90.6L81.8496 91.5Z" fill="#111111"/>
<path d="M93.8496 94.1C93.5496 94.1 93.3496 93.9 93.3496 93.6C93.3496 93.3 93.5496 93.1 93.8496 93.1L115.05 92.5C115.35 92.5 115.55 92.7 115.55 93C115.55 93.3 115.35 93.5 115.05 93.5L93.8496 94.1Z" fill="#111111"/>
<path d="M93.8984 97.3C93.5984 97.3 93.3984 97.1 93.3984 96.8C93.3984 96.5 93.5984 96.3 93.8984 96.3L113.848 95.9C114.148 95.9 114.348 96.1 114.348 96.4C114.348 96.7 114.148 96.9 113.848 96.9L93.8984 97.3Z" fill="#111111"/>
<path d="M93.8984 100.8C93.5984 100.8 93.3984 100.6 93.3984 100.3C93.3984 100 93.5984 99.8 93.8984 99.8L135.748 98.75C136.048 98.75 136.248 98.95 136.248 99.25C136.248 99.55 136.048 99.75 135.748 99.75L93.8984 100.8Z" fill="#111111"/>
<path d="M117.949 102.8C117.649 102.8 117.449 102.6 117.449 102.3C117.449 102 117.649 101.8 117.949 101.8C124.499 101.35 131.149 101.25 137.699 101.4C137.999 101.4 138.199 101.65 138.199 101.9C138.199 102.15 137.949 102.4 137.699 102.4C131.099 102.25 124.499 102.35 117.949 102.8Z" fill="#8A0B24"/>
<path d="M117.949 106.1C117.649 106.1 117.449 105.9 117.449 105.6C117.449 105.3 117.649 105.1 117.949 105.1L136.599 104.9C136.899 104.9 137.099 105.1 137.099 105.4C137.099 105.7 136.899 105.9 136.599 105.9L117.949 106.1Z" fill="#8A0B24"/>
<path d="M117.949 110C117.649 110 117.449 109.8 117.449 109.5C117.449 109.2 117.649 109 117.949 109L133.149 108.95C133.449 108.95 133.649 109.15 133.649 109.45C133.649 109.75 133.449 109.95 133.149 109.95L117.949 110Z" fill="#8A0B24"/>
<path d="M93.8984 113.25C93.5984 113.25 93.3984 113.05 93.3984 112.75C93.3984 112.45 93.5984 112.25 93.8984 112.25L119.298 111.1C119.598 111.1 119.798 111.3 119.798 111.6C119.798 111.9 119.598 112.1 119.298 112.1L93.8984 113.25Z" fill="#111111"/>
<path d="M93.8984 116.1C93.5984 116.1 93.3984 115.9 93.3984 115.6C93.3984 115.3 93.5984 115.1 93.8984 115.1L110.648 114.65C110.948 114.65 111.148 114.85 111.148 115.15C111.148 115.45 110.948 115.65 110.648 115.65H110.198H110.148L93.8984 116.1Z" fill="#111111"/>
<path d="M95.0484 118.85H93.8984C93.5984 118.85 93.3984 118.65 93.3984 118.35C93.3984 118.05 93.5984 117.85 93.8984 117.85C98.3984 117.85 102.998 117.75 107.548 117.55C107.848 117.55 108.048 117.75 108.098 118C108.148 118.25 107.898 118.5 107.648 118.55C103.448 118.75 99.1984 118.85 95.0484 118.85Z" fill="#111111"/>
<path d="M80.0992 121.25H80.0492C76.5492 120.85 72.9992 120.7 69.4492 120.8C69.1492 120.8 68.9492 120.6 68.9492 120.3C68.9492 120 69.1492 119.8 69.4492 119.8C73.0492 119.65 76.6492 119.8 80.1992 120.25C80.4992 120.25 80.6992 120.5 80.6492 120.8C80.6492 121.05 80.3992 121.25 80.0992 121.25Z" fill="#8A0B24"/>
<path d="M81.8496 121.55C81.5496 121.55 81.3496 121.35 81.3496 121.05C81.3496 120.75 81.5496 120.55 81.8496 120.55L91.5996 120.3C91.8996 120.3 92.0996 120.5 92.0996 120.8C92.0996 121.1 91.8996 121.3 91.5996 121.3L81.8496 121.55Z" fill="#111111"/>
<path d="M69.4492 123.65C69.1492 123.65 68.9492 123.45 68.9492 123.15C68.9492 122.85 69.1492 122.65 69.4492 122.65L79.9992 122.5C80.2992 122.5 80.4992 122.7 80.4992 123C80.4992 123.3 80.2992 123.5 79.9992 123.5L69.4492 123.65Z" fill="#8A0B24"/>
<path d="M81.8496 123.85C81.5496 123.85 81.3496 123.65 81.3496 123.35C81.3496 123.05 81.5496 122.85 81.8496 122.85L92.6496 122.55C92.9496 122.55 93.1496 122.75 93.1496 123.05C93.1496 123.35 92.9496 123.55 92.6496 123.55L91.0996 123.65C91.0496 123.65 90.9496 123.65 90.8996 123.6L81.8496 123.85Z" fill="#111111"/>
<path d="M89.9996 126.3C87.2496 126.3 84.5496 126.25 81.8496 126.1C81.5496 126.1 81.3496 125.85 81.3496 125.6C81.3496 125.35 81.5996 125.1 81.8496 125.1C90.5996 125.5 99.3496 125.25 108.05 124.35C108.35 124.3 108.55 124.5 108.6 124.8C108.65 125.1 108.45 125.3 108.15 125.35C102.15 125.95 96.0496 126.3 89.9996 126.3Z" fill="#111111"/>
<path d="M100.35 128.85C98.1502 128.85 96.0002 128.75 93.8502 128.6C93.5502 128.6 93.3502 128.35 93.4002 128.05C93.4002 127.75 93.6502 127.55 93.9502 127.6C98.8002 128 103.7 127.95 108.55 127.45C108.85 127.4 109.05 127.6 109.1 127.9C109.15 128.2 108.95 128.4 108.65 128.45C105.9 128.7 103.1 128.85 100.35 128.85Z" fill="#111111"/>
<path d="M29.3008 150.05C29.4008 157.45 29.5008 193.35 29.6008 200.75C29.6008 201.55 29.7508 202.5 30.6008 202.8C31.0008 202.95 31.4008 202.95 31.8508 202.9L38.2008 202.65C44.9508 202.4 96.9508 202.7 103.701 202.45C105.101 202.4 106.751 202.25 107.501 201.2C107.851 200.6 108.001 199.95 107.901 199.25C107.801 192.5 108.001 156.2 107.901 149.45C107.901 148.7 107.851 147.9 107.301 147.35C106.501 146.5 104.951 146.5 103.601 146.5C97.9508 146.7 46.7508 147 41.1508 146.9C38.3508 146.85 35.5508 146.8 32.7508 146.7C30.2508 146.6 29.3008 148.15 29.3008 150.05Z" fill="white"/>
<path d="M31.45 203.3C31.1 203.3 30.75 203.25 30.45 203.15C29.25 202.65 29.25 201.25 29.25 200.75C29.2 197.05 29.15 186.05 29.1 175.45C29.05 164.85 29 153.8 28.95 150.1C28.9 149.05 29.25 148.05 29.95 147.3C30.7 146.6 31.75 146.3 32.75 146.4C34.8 146.5 36.85 146.55 38.85 146.55L41.15 146.6C47 146.75 98.65 146.35 103.6 146.2C105.05 146.15 106.65 146.2 107.55 147.2C108.2 147.9 108.2 148.85 108.25 149.55C108.3 152.95 108.25 163.9 108.25 174.5C108.25 185.1 108.2 196 108.25 199.4C108.3 200.15 108.15 200.9 107.75 201.55C106.95 202.65 105.3 202.9 103.65 202.95C100.25 203.05 85.35 203.05 70.95 203.05C56.55 203.05 41.55 203 38.2 203.15L31.85 203.4L31.45 203.3ZM32.5 147.05C31.75 147 31.05 147.25 30.45 147.75C29.9 148.35 29.6 149.2 29.65 150C29.7 153.7 29.75 164.75 29.8 175.4C29.85 186.05 29.9 197 29.95 200.7C29.95 201.7 30.2 202.2 30.7 202.45C31.05 202.55 31.4 202.6 31.8 202.55L38.1 202.3C41.5 202.2 56.45 202.2 70.9 202.2C85.35 202.2 100.25 202.25 103.6 202.1C105 202.05 106.5 201.9 107.1 201C107.4 200.5 107.5 199.9 107.45 199.3C107.4 195.9 107.45 185 107.45 174.4C107.45 163.8 107.5 152.85 107.45 149.5C107.45 148.75 107.4 148.1 106.95 147.6C106.25 146.85 104.85 146.85 103.55 146.85C98.1 147 47.1 147.4 41.05 147.25L38.75 147.2C36.75 147.15 34.7 147.15 32.65 147.05H32.5Z" fill="#111111"/>
<path d="M107.9 152.2C107.9 151.3 107.9 150.35 107.85 149.5C107.85 148.75 107.8 147.95 107.25 147.4C106.45 146.55 104.9 146.55 103.55 146.55C97.9 146.75 46.7 147.05 41.1 146.95C38.3 146.9 35.5 146.85 32.7 146.75C30.2 146.65 29.25 148.2 29.25 150.1L29.3 152.3L107.9 152.2Z" fill="#8A0B24"/>
<path d="M32.6497 149.25C32.4997 149.75 32.6497 150.25 32.9997 150.6C33.3997 150.95 33.8997 151 34.3997 150.8C34.8497 150.6 35.1497 150.1 35.0997 149.6C34.9997 148.25 33.0997 147.85 32.6497 149.25Z" fill="#111111"/>
<path d="M35.8997 149.1C35.7497 149.75 36.0997 150.45 36.7497 150.65C37.3997 150.8 38.0997 150.45 38.2997 149.85C38.7997 148.3 36.3497 147.45 35.8997 149.1Z" fill="#111111"/>
<path d="M39.2 148.75C39.1 149.05 39.1 149.4 39.15 149.7C39.35 150.35 40 150.7 40.6 150.5C41.15 150.35 41.5 149.8 41.45 149.2C41.3 148.1 39.55 147.45 39.2 148.75Z" fill="#111111"/>
<path d="M88.5496 164.05H47.8496C47.6996 164.05 47.5996 163.95 47.5996 163.8C47.5996 163.65 47.6996 163.55 47.8496 163.55H88.5496C88.6996 163.55 88.7996 163.65 88.7996 163.8C88.7996 163.95 88.6996 164.05 88.5496 164.05Z" fill="#8A0B24"/>
<path d="M88.5496 167.85H47.8496C47.6996 167.85 47.5996 167.75 47.5996 167.6C47.5996 167.45 47.6996 167.35 47.8496 167.35H88.5496C88.6996 167.35 88.7996 167.45 88.7996 167.6C88.7996 167.75 88.6996 167.85 88.5496 167.85Z" fill="#8A0B24"/>
<path d="M88.5496 167.85H47.8496C47.6996 167.85 47.5996 167.75 47.5996 167.6C47.5996 167.45 47.6996 167.35 47.8496 167.35H88.5496C88.6996 167.35 88.7996 167.45 88.7996 167.6C88.7996 167.75 88.6996 167.85 88.5496 167.85Z" fill="#8A0B24"/>
<path d="M98.9492 184.3H37.1992C37.0492 184.3 36.9492 184.2 36.9492 184.05C36.9492 183.9 37.0492 183.8 37.1992 183.8H98.8992C99.0492 183.8 99.1492 183.9 99.1492 184.05C99.1492 184.2 99.0992 184.3 98.9492 184.3Z" fill="#8A0B24"/>
<path d="M59.5496 178.55H47.8496C47.6996 178.55 47.5996 178.45 47.5996 178.3C47.5996 178.15 47.6996 178.05 47.8496 178.05H59.5996C59.7496 178.05 59.8496 178.15 59.8496 178.3C59.7996 178.45 59.6996 178.55 59.5496 178.55Z" fill="#8A0B24"/>
<path d="M87.8992 178.55H76.1992C76.0492 178.55 75.9492 178.45 75.9492 178.3C75.9492 178.15 76.0492 178.05 76.1992 178.05H87.8992C88.0492 178.05 88.1492 178.15 88.1492 178.3C88.1492 178.45 87.9992 178.55 87.8992 178.55Z" fill="#8A0B24"/>
<path d="M79.5 137.15C79.6 144.75 79.7 181.55 79.8 189.15C79.8 189.95 79.95 190.9 80.8 191.25C81.2 191.4 81.65 191.45 82.1 191.4L88.6 191.15C95.55 190.9 148.85 191.2 155.8 190.95C157.25 190.9 158.95 190.7 159.7 189.7C160.05 189.1 160.2 188.4 160.1 187.7C160 180.75 160.2 143.55 160.1 136.6C160.1 135.85 160.05 135 159.5 134.4C158.7 133.5 157.1 133.5 155.75 133.5C150 133.7 97.45 134.05 91.65 133.9C88.8 133.85 85.9 133.8 83.05 133.65C80.5 133.6 79.5 135.2 79.5 137.15Z" fill="white"/>
<path d="M81.7499 191.8C81.3999 191.8 81.0499 191.75 80.6999 191.65C79.4999 191.15 79.4499 189.7 79.4499 189.2C79.3999 185.4 79.3499 174.15 79.2999 163.2C79.2499 152.25 79.1999 140.95 79.1499 137.15C79.0499 136.1 79.4499 135.05 80.1999 134.25C80.9999 133.55 82.0499 133.2 83.0999 133.35C85.1999 133.45 87.2999 133.5 89.3499 133.55L91.6999 133.6C97.6999 133.75 150.65 133.35 155.75 133.2C157.25 133.15 158.9 133.2 159.8 134.2C160.45 134.95 160.5 135.9 160.5 136.65C160.55 140.15 160.5 151.35 160.5 162.2C160.5 173.05 160.45 184.3 160.5 187.75C160.6 188.55 160.4 189.3 160 189.95C159.2 191.1 157.5 191.3 155.8 191.4C152.35 191.55 137.05 191.5 122.25 191.5C107.45 191.5 92.0999 191.45 88.6499 191.6L82.1499 191.85L81.7499 191.8ZM82.7999 134.1C82.0499 134.05 81.2999 134.3 80.6999 134.8C80.1499 135.45 79.8499 136.3 79.8999 137.15C79.9499 140.95 79.9999 152.25 80.0499 163.2C80.0999 174.15 80.1499 185.4 80.1999 189.15C80.1999 190.2 80.4499 190.7 80.9499 190.95C81.2999 191.05 81.6999 191.1 82.0499 191.05L88.5499 190.8C92.0499 190.65 107.35 190.7 122.2 190.7C137.05 190.7 152.3 190.75 155.75 190.6C157.2 190.55 158.7 190.35 159.35 189.5C159.65 188.95 159.75 188.35 159.7 187.75C159.65 184.3 159.7 173.05 159.7 162.2C159.7 151.35 159.75 140.1 159.7 136.65C159.7 135.9 159.65 135.2 159.2 134.7C158.5 133.95 157 133.9 155.7 133.95C150.1 134.15 97.7499 134.5 91.5999 134.35L89.2499 134.3C87.1999 134.25 85.0499 134.2 82.9999 134.1H82.7999Z" fill="#111111"/>
<path d="M160.149 139.35C160.149 138.4 160.149 137.45 160.149 136.55C160.149 135.8 160.099 134.95 159.549 134.35C158.749 133.45 157.149 133.45 155.799 133.45C150.049 133.65 97.4988 134 91.6988 133.85C88.8488 133.8 85.9488 133.75 83.0988 133.6C80.5488 133.5 79.5488 135.05 79.5488 137.05L79.5988 139.3L160.149 139.35Z" fill="white"/>
<path d="M160.149 139.75H79.5491C79.3491 139.75 79.1991 139.6 79.1491 139.4L79.0991 137.15C78.9991 136.1 79.3991 135.05 80.1491 134.25C80.9491 133.55 81.9991 133.2 83.0491 133.35C85.1491 133.45 87.2491 133.5 89.2991 133.55L91.6491 133.6C97.6491 133.75 150.599 133.35 155.699 133.2C157.199 133.15 158.849 133.2 159.749 134.2C160.399 134.95 160.449 135.9 160.449 136.65C160.449 137.55 160.449 138.5 160.449 139.45C160.499 139.55 160.349 139.75 160.149 139.75ZM79.8991 139H159.749C159.749 138.2 159.749 137.4 159.749 136.6C159.749 135.8 159.699 135.15 159.249 134.65C158.549 133.9 157.049 133.85 155.749 133.9C150.149 134.1 97.7991 134.45 91.6491 134.3L89.2991 134.25C87.2491 134.2 85.0991 134.15 83.0491 134.05C82.1991 133.95 81.3491 134.2 80.6991 134.75C80.1491 135.4 79.8491 136.25 79.8991 137.1V139Z" fill="#111111"/>
<path d="M82.9485 136.3C82.7985 136.8 82.9485 137.35 83.2985 137.7C83.6985 138.05 84.2485 138.15 84.6985 137.9C85.1485 137.65 85.4485 137.2 85.3985 136.65C85.3485 135.3 83.3985 134.9 82.9485 136.3Z" fill="#111111"/>
<path d="M86.3001 136.2C86.1501 136.85 86.5001 137.55 87.1501 137.8C87.8001 138 88.5001 137.6 88.7501 136.95C89.2501 135.35 86.7501 134.5 86.3001 136.2Z" fill="#111111"/>
<path d="M89.6493 135.85C89.5493 136.15 89.5492 136.5 89.5992 136.8C89.7992 137.45 90.4492 137.8 91.0992 137.6C91.6492 137.45 92.0492 136.85 91.9492 136.3C91.7992 135.15 89.9993 134.45 89.6493 135.85Z" fill="#111111"/>
<path d="M112.349 163.9L112.799 163.25C112.949 163.6 113.149 163.9 113.349 164.2C113.549 164.5 113.899 164.55 114.199 164.4C114.399 164.3 114.499 164.1 114.499 163.85V163.8C114.499 163.25 114.599 162.6 115.099 162.3C115.549 163.45 116.149 164.5 116.899 165.45C116.999 165.55 117.149 165.65 117.299 165.6C117.499 165.55 117.549 165.4 117.549 165.25C117.499 164.65 117.399 164.05 117.199 163.5C116.999 162.95 117.099 162.3 117.449 161.8C118.099 162.5 118.349 163.4 118.649 164.3C118.799 164.65 118.949 165 119.149 165.35C119.299 165.65 119.699 165.75 119.949 165.55C120.199 165.4 120.299 165.15 120.249 164.9C120.149 164.5 120.049 164.05 119.949 163.65C119.749 162.75 119.649 161.7 120.149 160.9C120.749 162.65 121.499 164.35 122.349 166C122.449 166.2 122.699 166.3 122.899 166.2C123.049 166.1 123.149 165.95 123.099 165.75C122.699 163.95 121.849 162.15 122.349 160.35C123.499 161.65 123.849 163.45 124.399 165.1C124.549 165.55 125.049 165.8 125.499 165.65C125.899 165.5 126.149 165.1 126.099 164.7V164.65C125.649 161.2 125.149 157.65 123.449 154.6C123.349 154.4 123.049 154.3 122.849 154.45C122.749 154.5 122.649 154.65 122.649 154.8C122.649 155.1 122.749 155.4 122.899 155.7C123.499 157.05 123.949 158.45 124.249 159.9C124.299 160.05 124.199 160.15 124.049 160.2C123.949 160.25 123.799 160.15 123.749 160.05C123.099 158.55 122.799 156.85 121.549 155.85C121.449 155.75 121.349 155.7 121.199 155.7C120.899 155.65 120.749 155.9 120.699 156.1C120.249 157.45 121.199 158.9 121.249 160.25C121.249 160.45 121.099 160.6 120.899 160.6C120.749 160.6 120.649 160.5 120.599 160.4C120.149 159.5 120.049 158.4 119.249 157.75C119.149 157.65 118.949 157.6 118.799 157.6C118.299 157.65 118.249 158.3 118.349 158.8L118.799 161.8C118.849 162.05 118.799 162.45 118.549 162.5L117.499 159.55C117.399 159.3 117.149 159.1 116.849 159.15C116.449 159.2 116.399 159.65 116.349 160L116.299 162.85L115.449 161.1C115.299 160.85 115.199 160.55 114.799 160.55C114.549 160.55 114.349 160.65 114.199 160.85C113.899 161.25 113.799 161.75 113.849 162.25C113.899 162.7 113.799 163.1 113.599 163.5L113.149 162.15C113.099 162 113.049 161.85 112.849 161.8C112.699 161.8 112.549 161.9 112.449 162.05L111.699 163.45C111.299 163.05 110.649 162.95 110.149 163.2C109.549 163.45 108.899 163.85 108.999 164.3C109.399 164.2 109.699 163.9 110.099 163.8C110.349 163.7 110.599 163.7 110.849 163.75C110.999 163.85 111.149 163.9 111.249 164.05C111.599 164.35 112.099 164.3 112.349 163.95C112.349 163.95 112.349 163.95 112.349 163.9Z" fill="#111111"/>
<path d="M118.999 148.55C117.099 145.65 109.199 144.1 106.249 143.75C102.549 143.3 90.7993 152.05 89.9493 154.85C89.4493 156.5 88.7993 158.15 88.5493 159.9C87.7993 165.2 89.5993 170.6 92.4993 175.1C93.4493 176.6 94.5493 178 95.8493 179.2C100.499 183.35 107.649 184.05 113.399 181.7C119.149 179.35 123.599 174.35 126.199 168.7C120.549 167.7 114.949 166.55 109.399 165.15C109.049 165.05 108.649 164.95 108.349 164.75C107.899 164.5 107.549 164.15 107.249 163.75C110.749 160.3 114.949 157.65 119.099 155L122.599 152.75C121.899 151 119.999 150.1 118.999 148.55Z" fill="#8A0B24"/>
<path d="M106.799 146.2C106.649 146.2 106.549 146.1 106.549 145.95V145.45H106.799H107.049V145.95C107.049 146.05 106.949 146.2 106.799 146.2Z" fill="#111111"/>
<path d="M106.549 162.05C106.399 162.05 106.299 161.95 106.299 161.8V160.8C106.299 160.65 106.399 160.55 106.499 160.55C106.499 160.55 106.499 160.55 106.549 160.55C106.699 160.55 106.799 160.65 106.799 160.8V161.8C106.799 161.95 106.699 162.05 106.549 162.05ZM106.599 160.05C106.449 160.05 106.349 159.95 106.349 159.8V158.8C106.349 158.65 106.449 158.55 106.599 158.55C106.749 158.55 106.849 158.65 106.849 158.8V159.8C106.849 159.95 106.749 160.1 106.599 160.05C106.599 160.1 106.599 160.1 106.599 160.05ZM106.599 158.05C106.449 158.05 106.349 157.95 106.349 157.8V156.8C106.349 156.65 106.449 156.55 106.599 156.55C106.749 156.55 106.849 156.65 106.849 156.8V157.8C106.899 157.95 106.799 158.1 106.599 158.05C106.649 158.1 106.649 158.1 106.599 158.05ZM106.649 156.05C106.499 156.05 106.399 155.95 106.399 155.8V154.8C106.399 154.65 106.499 154.55 106.649 154.55C106.799 154.55 106.899 154.65 106.899 154.8V155.8C106.949 155.95 106.849 156.1 106.649 156.05C106.699 156.1 106.649 156.1 106.649 156.05ZM106.699 154.05C106.549 154.05 106.449 153.95 106.449 153.8V152.8C106.449 152.65 106.549 152.55 106.699 152.55C106.849 152.55 106.949 152.65 106.949 152.8V153.8C106.999 153.95 106.899 154.05 106.749 154.1H106.699V154.05ZM106.699 152.05C106.549 152.05 106.449 151.95 106.449 151.8V150.8C106.449 150.65 106.549 150.55 106.699 150.55C106.849 150.55 106.949 150.65 106.949 150.8V151.8C106.999 151.95 106.899 152.05 106.749 152.1H106.699V152.05ZM106.749 150.05C106.599 150.05 106.499 149.95 106.499 149.8V148.8C106.499 148.65 106.599 148.55 106.749 148.55C106.899 148.55 106.999 148.65 106.999 148.8V149.8C107.049 149.95 106.949 150.05 106.849 150.1C106.799 150.1 106.799 150.1 106.749 150.1V150.05ZM106.749 148.05C106.599 148.05 106.499 147.95 106.499 147.8V146.8C106.499 146.65 106.599 146.55 106.749 146.55C106.899 146.55 106.999 146.65 106.999 146.8V147.8C107.049 147.95 106.999 148.05 106.849 148.15C106.799 148.15 106.749 148.15 106.749 148.15V148.05Z" fill="#111111"/>
<path d="M106.099 163.8C105.999 163.8 105.949 163.75 105.899 163.65C105.849 163.55 105.899 163.4 105.999 163.3L106.299 163.15V162.8C106.299 162.65 106.399 162.55 106.549 162.55C106.699 162.55 106.799 162.65 106.799 162.8V163.3C106.799 163.4 106.749 163.5 106.649 163.55L106.199 163.8C106.199 163.8 106.149 163.8 106.099 163.8Z" fill="#111111"/>
<path d="M92.75 173.6C92.6 173.6 92.5 173.5 92.5 173.35C92.5 173.3 92.55 173.2 92.6 173.15L93.35 172.45C93.45 172.35 93.6 172.35 93.7 172.45C93.8 172.55 93.8 172.7 93.7 172.8L92.95 173.5C92.9 173.55 92.85 173.6 92.75 173.6ZM94.25 172.2C94.1 172.2 94 172.1 94 171.95C94 171.9 94.05 171.8 94.1 171.75L94.9 171.05C95 170.95 95.15 170.95 95.25 171.1C95.35 171.2 95.35 171.35 95.2 171.45C94.95 171.7 94.7 171.9 94.4 172.15C94.4 172.15 94.35 172.2 94.25 172.2ZM95.85 170.8C95.8 170.8 95.7 170.75 95.65 170.7C95.55 170.6 95.55 170.45 95.65 170.35L96.45 169.7C96.55 169.6 96.7 169.65 96.8 169.75C96.9 169.85 96.85 170 96.75 170.1L95.95 170.75C95.95 170.8 95.9 170.8 95.85 170.8ZM97.45 169.5C97.35 169.5 97.3 169.45 97.25 169.4C97.15 169.3 97.2 169.15 97.3 169.05L98.1 168.4C98.2 168.3 98.35 168.35 98.45 168.45C98.55 168.55 98.5 168.7 98.4 168.8C98.1 169 97.85 169.2 97.6 169.45C97.55 169.5 97.5 169.5 97.45 169.5ZM99.1 168.25C98.95 168.25 98.85 168.15 98.85 168C98.85 167.9 98.9 167.85 98.95 167.8C99.25 167.6 99.5 167.4 99.8 167.2C99.9 167.1 100.05 167.15 100.15 167.25C100.25 167.35 100.2 167.5 100.1 167.6L99.25 168.2C99.2 168.25 99.15 168.25 99.1 168.25ZM100.8 167.05C100.7 167.05 100.65 167 100.6 166.95C100.5 166.85 100.55 166.7 100.65 166.6L101.5 166C101.6 165.95 101.75 165.95 101.85 166.05C101.95 166.15 101.9 166.3 101.8 166.4L100.95 166.95C100.9 167.05 100.85 167.05 100.8 167.05ZM102.5 165.9C102.4 165.9 102.35 165.85 102.3 165.8C102.25 165.7 102.25 165.55 102.35 165.45C102.65 165.25 102.95 165.1 103.25 164.9C103.35 164.85 103.5 164.85 103.6 164.95C103.65 165.05 103.65 165.2 103.5 165.3L102.6 165.85C102.6 165.9 102.6 165.9 102.5 165.9ZM104.3 164.85C104.2 164.85 104.15 164.8 104.1 164.75C104.05 164.65 104.05 164.5 104.2 164.4L105.1 163.9C105.2 163.85 105.35 163.9 105.45 164C105.5 164.1 105.5 164.25 105.35 164.35L104.45 164.85C104.4 164.8 104.35 164.8 104.3 164.85Z" fill="#111111"/>
<path d="M91.65 174.65C91.6 174.65 91.5 174.6 91.45 174.6C91.35 174.5 91.35 174.35 91.45 174.25L91.8 173.9C91.9 173.8 92.05 173.8 92.15 173.9C92.25 174 92.25 174.15 92.15 174.25L91.8 174.6C91.8 174.65 91.75 174.65 91.65 174.65Z" fill="#111111"/>
<path d="M133 148.25C132.85 148.25 132.75 148.15 132.75 148C132.75 147.85 132.85 147.75 133 147.75L151.7 147.2C151.85 147.2 151.95 147.3 151.95 147.45C151.95 147.6 151.85 147.7 151.7 147.7L133 148.25Z" fill="#111111"/>
<path d="M133 150.55C132.85 150.55 132.75 150.45 132.75 150.3C132.75 150.15 132.85 150.05 133 150.05L153 149.25C153.15 149.25 153.25 149.35 153.25 149.5C153.25 149.65 153.15 149.75 153 149.75L133.05 150.55H133Z" fill="#111111"/>
<path d="M133 152.75C132.85 152.75 132.75 152.65 132.75 152.5C132.75 152.35 132.85 152.25 132.95 152.25C139.05 151.9 145.2 151.8 151.3 152C151.45 152 151.55 152.1 151.55 152.25C151.55 152.4 151.45 152.5 151.3 152.5C145.25 152.35 139.1 152.4 133 152.75Z" fill="#111111"/>
<path d="M133 154.5C132.85 154.5 132.75 154.4 132.75 154.25C132.75 154.1 132.85 154 133 154L152.6 153.6C152.75 153.6 152.85 153.7 152.85 153.85C152.85 154 152.75 154.1 152.6 154.1L133 154.5Z" fill="#111111"/>
<path d="M142.299 179.3C142.149 179.3 142.049 179.2 142.049 179.05C142.049 178.9 142.149 178.8 142.249 178.8C145.899 178.45 149.549 178.35 153.199 178.55C153.349 178.55 153.449 178.7 153.449 178.8C153.449 178.95 153.349 179.05 153.199 179.05C149.599 178.9 145.949 178.95 142.299 179.3Z" fill="#111111"/>
<path d="M142.299 181.05C142.149 181.05 142.049 180.95 142.049 180.8C142.049 180.65 142.149 180.55 142.299 180.55L153.999 180.15C154.149 180.15 154.249 180.25 154.249 180.4C154.249 180.55 154.149 180.65 153.999 180.65L142.299 181.05Z" fill="#111111"/>
<path d="M133 179.3C132.85 179.3 132.75 179.2 132.75 179.05C132.75 178.9 132.85 178.8 133 178.8C135.05 178.45 137.1 178.35 139.15 178.55C139.3 178.55 139.4 178.7 139.4 178.8C139.4 178.95 139.25 179.05 139.15 179.05C137.05 178.9 135.05 178.95 133 179.3Z" fill="#111111"/>
<path d="M133 181.05C132.85 181.05 132.75 180.95 132.75 180.8C132.75 180.65 132.85 180.55 133 180.55L139.5 180.15C139.65 180.15 139.75 180.25 139.75 180.35C139.75 180.5 139.65 180.6 139.5 180.6L133 181.05Z" fill="#111111"/>
</svg>
