<svg width="308" height="105" viewBox="0 0 308 105" fill="none" xmlns="http://www.w3.org/2000/svg">
<path d="M0.999904 38.1462L48.1987 11.8109C72.7082 -1.86452 102.38 -2.59322 127.531 9.86267L165.35 28.5917C183.802 37.7301 192.137 59.5119 184.5 78.6343L182.668 83.2212C175.699 100.669 156.039 109.32 138.467 102.673V102.673C121.405 96.2182 112.328 77.5869 117.761 60.173L122.883 43.7542C125.636 34.9306 130.66 26.986 137.453 20.7171L138.779 19.4929C160.854 -0.881746 194.659 -1.58976 217.568 17.8428L222.363 21.9107C237.913 35.1004 258.649 40.4361 278.634 36.3893L307.761 30.4909" stroke="black" stroke-dasharray="15 15"/>
</svg>
