<svg width="42" height="42" viewBox="0 0 42 42" fill="none" xmlns="http://www.w3.org/2000/svg">
<path d="M32.8132 10.5V27.5625C32.8132 27.9106 32.675 28.2444 32.4288 28.4906C32.1827 28.7367 31.8488 28.875 31.5007 28.875C31.1526 28.875 30.8188 28.7367 30.5727 28.4906C30.3265 28.2444 30.1882 27.9106 30.1882 27.5625V13.668L11.4293 32.4286C11.183 32.6749 10.849 32.8132 10.5007 32.8132C10.1524 32.8132 9.81841 32.6749 9.57214 32.4286C9.32586 32.1823 9.1875 31.8483 9.1875 31.5C9.1875 31.1517 9.32586 30.8177 9.57214 30.5714L28.3327 11.8125H14.4382C14.0901 11.8125 13.7563 11.6742 13.5102 11.4281C13.264 11.1819 13.1257 10.8481 13.1257 10.5C13.1257 10.1519 13.264 9.81806 13.5102 9.57192C13.7563 9.32578 14.0901 9.1875 14.4382 9.1875H31.5007C31.8488 9.1875 32.1827 9.32578 32.4288 9.57192C32.675 9.81806 32.8132 10.1519 32.8132 10.5Z" fill="white"/>
</svg>
