<svg width="385" height="385" viewBox="0 0 385 385" fill="none" xmlns="http://www.w3.org/2000/svg">
<path d="M46.9695 300.531C43.3505 301.84 39.2695 304.227 39.2695 308C39.2695 312.389 44.5055 314.622 48.8175 315.623C89.0115 324.786 130.438 326.634 171.325 321.244C203.819 316.932 236.159 307.923 268.807 310.695C282.128 311.773 295.218 314.853 308.616 315.546C322.014 316.239 336.028 314.391 346.885 306.614C348.425 305.536 349.888 304.227 350.273 302.379C351.043 298.452 346.346 295.911 342.419 295.064C321.475 290.444 299.761 294.833 278.355 296.219C245.399 298.452 212.443 293.678 179.487 290.829C156.541 288.827 133.364 287.826 110.418 290.752C100.254 292.061 89.8585 295.988 79.7715 295.68C68.5295 295.295 57.5955 296.681 46.9695 300.531Z" fill="white"/>
<path d="M125.51 324.863C99.6382 324.863 73.8432 321.937 48.6642 316.162C44.9682 315.315 38.6542 313.159 38.7312 308C38.7312 303.765 43.1202 301.301 46.8162 299.992C56.9802 296.296 67.8372 294.679 79.9262 295.064C86.0862 295.295 92.4772 293.832 98.7142 292.446C102.564 291.599 106.568 290.675 110.495 290.213C134.75 287.133 159.082 288.519 179.641 290.29C186.725 290.906 193.963 291.599 200.97 292.292C226.38 294.833 252.637 297.374 278.432 295.68C283.668 295.295 288.981 294.756 294.14 294.294C310.156 292.677 326.711 290.983 342.65 294.525C347.27 295.526 351.813 298.452 350.966 302.533C350.581 304.535 348.887 305.998 347.347 307.076C337.722 313.929 324.709 317.009 308.693 316.085C301.378 315.7 293.986 314.622 286.902 313.544C281.05 312.697 274.89 311.773 268.884 311.234C245.63 309.309 221.991 313.39 199.276 317.394C190.19 318.934 180.796 320.628 171.556 321.86C156.156 323.785 140.833 324.863 125.51 324.863ZM46.9702 300.531L47.2012 301.07C43.8902 302.302 39.8862 304.458 39.8862 308C39.8862 312.312 45.5842 314.237 48.9722 315.007C89.0892 324.17 130.515 326.095 171.248 320.628C180.488 319.396 189.805 317.779 198.891 316.162C221.76 312.158 245.399 308.077 268.807 310.002C274.89 310.541 280.973 311.465 286.902 312.312C293.986 313.39 301.301 314.468 308.616 314.853C324.401 315.7 337.183 312.697 346.577 305.998C347.963 304.997 349.426 303.765 349.734 302.148C350.504 298.375 345.191 296.142 342.342 295.449C326.634 291.984 310.156 293.601 294.217 295.218C289.058 295.757 283.668 296.296 278.432 296.604C252.56 298.375 226.226 295.757 200.816 293.216C193.809 292.523 186.571 291.83 179.487 291.214C158.928 289.443 134.75 288.057 110.572 291.137C106.722 291.599 102.795 292.523 98.9452 293.37C92.6312 294.756 86.1632 296.219 79.8492 296.065C67.9142 295.68 57.2882 297.297 47.2012 300.916L46.9702 300.531Z" fill="#363636"/>
<path d="M34.8037 125.51C38.1147 150.689 52.9757 275.814 56.4407 302.302C56.8257 305.151 57.6727 308.462 60.9067 309.232C62.4467 309.463 63.9867 309.386 65.5267 309.001L88.0877 304.766C111.573 300.377 273.966 277.354 292.677 273.735C296.527 272.965 300.993 271.81 302.533 268.345C303.38 266.42 302.995 264.264 302.687 262.185C299.068 241.472 282.051 132.594 278.586 112.728C278.201 110.572 277.739 108.262 276.045 106.645C273.504 104.181 269.269 104.258 265.65 104.566C250.25 105.644 94.2477 113.036 75.0747 113.344C65.4497 113.498 55.6707 113.806 45.8147 113.806C36.8827 113.806 33.9567 119.119 34.8037 125.51Z" fill="white"/>
<path d="M62.3699 310.002C61.8309 310.002 61.2919 309.925 60.7529 309.848C57.1339 309.001 56.2869 305.459 55.9019 302.456C54.1309 289.135 49.4339 250.404 44.9679 212.905C40.5019 176.176 35.8819 138.138 34.2649 125.664C33.8029 121.968 34.4959 118.811 36.4209 116.655C38.3459 114.499 41.5029 113.267 45.6609 113.267H45.7379C52.8989 113.267 60.1369 113.113 67.0669 112.959L74.9979 112.805C94.5559 112.42 249.788 105.182 265.496 104.027C269.269 103.719 273.581 103.642 276.276 106.26C278.201 108.108 278.663 110.726 278.971 112.728C280.665 122.584 285.901 155.078 290.829 186.494C295.911 218.603 301.224 251.713 302.995 262.185C303.303 264.11 303.765 266.497 302.841 268.653C301.301 272.272 296.758 273.581 292.6 274.351C283.514 276.122 240.933 282.359 195.965 288.981C148.841 295.911 100.1 303.149 88.0879 305.382L65.5269 309.54C64.5259 309.848 63.4479 309.925 62.3699 310.002ZM35.4199 125.433C37.0369 137.907 41.6569 175.945 46.1229 212.674C50.6659 250.173 55.3629 288.904 57.0569 302.225C57.3649 304.843 58.1349 308 61.0609 308.693C62.5239 308.924 63.9869 308.847 65.3729 308.462L87.9339 304.227C100.023 301.994 148.764 294.756 195.888 287.826C240.933 281.204 283.437 274.89 292.523 273.196C296.373 272.426 300.531 271.271 301.917 268.114C302.687 266.266 302.302 264.033 301.994 262.262C300.146 251.867 294.91 218.68 289.828 186.571C284.823 155.155 279.664 122.661 277.97 112.805C277.585 110.495 277.123 108.493 275.583 107.03C273.196 104.72 269.192 104.797 265.65 105.105C249.865 106.26 94.5559 113.575 74.9979 113.96L67.0669 114.114C60.0599 114.268 52.8219 114.422 45.6609 114.422C41.8109 114.422 38.9619 115.423 37.1909 117.425C35.4199 119.427 34.9579 122.122 35.4199 125.433Z" fill="#363636"/>
<path d="M279.819 120.736C279.357 118.041 278.895 115.423 278.433 112.805C278.048 110.649 277.586 108.339 275.892 106.722C273.351 104.258 269.116 104.335 265.497 104.643C250.097 105.721 94.0946 113.113 74.9216 113.421C65.2966 113.575 55.5176 113.883 45.6616 113.883C36.8066 113.883 33.8806 119.196 34.7276 125.587C35.0356 128.051 35.3436 130.515 35.6516 132.979L279.819 120.736Z" fill="#8A0B24"/>
<path d="M46.4316 122.353C46.1236 124.047 46.8166 125.818 48.2026 126.819C49.6656 127.897 51.5136 128.051 53.1306 127.281C54.5936 126.511 55.4406 124.817 55.1326 123.2C54.2856 118.58 47.4326 117.656 46.4316 122.353Z" fill="#363636"/>
<path d="M57.7501 121.352C57.3651 123.431 59.0591 125.818 61.2921 126.357C63.5251 126.896 65.7581 125.587 66.3741 123.431C67.5291 118.195 58.6741 115.885 57.7501 121.352Z" fill="#363636"/>
<path d="M68.9913 119.812C68.7603 120.813 68.9143 121.891 69.2993 122.892C70.2233 124.74 72.3023 125.818 74.3813 125.356C76.3063 124.817 77.5383 122.892 77.0763 120.89C76.0753 117.271 69.7613 115.269 68.9913 119.812Z" fill="#363636"/>
<path d="M176.868 254.485C116.808 261.569 119.041 261.338 82.004 265.958C79.155 266.343 75.459 266.959 74.997 267.729C74.381 268.73 79.617 268.499 83.313 268.037C143.989 260.722 141.833 261.03 178.1 256.41C180.641 256.102 183.875 255.563 184.26 254.793C184.722 253.869 180.179 254.1 176.868 254.485Z" fill="#363636"/>
<path d="M167.553 187.572C109.649 192.115 111.882 191.961 73.3817 195.195C70.5327 195.426 66.9137 195.888 66.4517 196.658C65.9127 197.582 70.9947 197.582 74.6907 197.274C134.905 192.5 132.749 192.654 168.785 189.574C171.326 189.343 174.56 188.958 174.945 188.265C175.407 187.264 170.864 187.264 167.553 187.572Z" fill="#363636"/>
<path d="M73.3036 155.001L67.9906 150.304C68.6066 149.072 68.8376 147.609 68.6836 146.223C68.6836 144.529 68.0676 142.835 66.9896 141.526C64.5256 138.831 58.8276 138.831 56.3636 140.833C54.8236 142.065 53.9766 143.913 53.9766 145.915C54.0536 149.303 56.2096 152.306 59.3666 153.384C61.6766 154.231 64.2176 153.846 66.2196 152.383L71.3786 156.926C71.6866 157.234 72.0716 157.311 72.5336 157.311C72.9186 157.311 73.2266 157.157 73.4576 156.849C73.9966 156.387 73.9196 155.54 73.3036 155.001C73.3806 155.001 73.3806 155.001 73.3036 155.001ZM60.2906 150.843C58.3656 150.073 56.9796 148.225 56.9796 146.146C56.9796 144.991 57.4416 143.836 58.3656 143.066C59.6746 141.988 63.6016 141.988 64.8336 143.374C65.5266 144.221 65.8346 145.222 65.8346 146.3C65.9116 147.301 65.7576 148.302 65.3726 149.149C64.5256 150.689 62.2156 151.536 60.2906 150.843Z" fill="#8A0B24"/>
<path d="M161.623 135.443C112.189 137.214 114.114 137.291 81.6203 139.909C79.2333 140.063 76.2303 141.372 76.1533 145.915C76.0763 151.844 80.5423 154.154 83.6993 154C134.904 151.69 133.056 151.613 163.779 148.918C165.935 148.764 168.63 147.532 168.63 143.22C168.553 137.599 164.395 135.366 161.623 135.443Z" fill="#363636"/>
<path d="M177.871 261.723C119.505 268.884 121.738 268.653 82.9298 273.658C80.0808 274.043 76.3848 274.659 75.9228 275.429C75.3068 276.43 80.5428 276.199 84.2388 275.737C144.992 268.191 142.759 268.422 179.103 263.725C181.644 263.417 184.955 262.801 185.263 262.108C185.802 261.184 181.182 261.338 177.871 261.723Z" fill="#363636"/>
<path d="M168.861 197.043C110.88 201.894 113.19 201.74 74.6132 205.205C71.7642 205.436 68.1452 205.975 67.6832 206.668C67.0672 207.592 72.2262 207.592 75.9222 207.284C136.213 202.125 134.057 202.279 170.093 199.045C172.634 198.814 175.868 198.352 176.253 197.659C176.715 196.735 172.172 196.735 168.861 197.043Z" fill="#363636"/>
<path d="M170.17 206.514C112.112 211.75 114.422 211.519 75.7675 215.215C72.9185 215.523 69.2995 215.985 68.8375 216.755C68.2215 217.679 73.3805 217.602 77.0765 217.294C137.445 211.827 135.289 211.981 171.325 208.516C173.866 208.285 177.1 207.823 177.485 207.13C178.024 206.206 173.481 206.206 170.17 206.514Z" fill="#363636"/>
<path d="M63.8336 170.093C63.6796 168.861 63.6026 167.475 64.6036 166.474C65.8356 165.242 68.1456 165.011 70.1476 164.857L164.858 157.85C166.629 157.696 168.631 157.696 169.786 158.774C170.479 159.544 170.941 160.545 171.018 161.623L173.251 174.636C173.405 175.175 173.405 175.714 173.251 176.253C172.789 177.716 170.402 178.024 168.554 178.101C143.991 179.025 78.5406 187.11 71.7646 187.957C68.1456 188.419 64.9886 186.417 64.9886 183.799C64.9886 182.721 64.9886 181.643 64.9116 180.642C64.6036 177.023 64.2186 173.558 63.8336 170.093Z" fill="white"/>
<path d="M70.8401 188.496C69.0691 188.573 67.3751 187.957 66.0661 186.802C65.1421 186.032 64.5261 184.877 64.5261 183.645V183.414C64.5261 182.413 64.5261 181.489 64.4491 180.488L63.2941 170.17C63.1401 169.015 62.9861 167.321 64.2181 166.089C65.4501 164.857 67.9911 164.472 70.1471 164.241L164.857 157.234C166.859 157.08 168.938 157.08 170.247 158.312C171.017 159.159 171.556 160.314 171.633 161.469L173.866 174.482C174.02 175.098 174.02 175.714 173.866 176.33C173.173 178.409 169.785 178.486 168.707 178.563C145.299 179.41 84.0071 186.879 71.9181 188.419C71.5331 188.496 71.2251 188.496 70.8401 188.496ZM64.4491 170.016L65.6041 180.411C65.6811 181.412 65.7581 182.413 65.6811 183.414V183.645C65.6811 184.569 66.1431 185.416 66.8361 185.955C68.2221 187.033 70.0701 187.572 71.8411 187.264C83.9301 185.801 145.299 178.255 168.707 177.408C171.787 177.331 172.634 176.561 172.865 175.945C172.942 175.483 172.942 175.021 172.865 174.636L170.632 161.623C170.555 160.699 170.247 159.775 169.631 159.082C168.63 158.158 166.859 158.158 165.088 158.312L70.3781 165.319C68.3761 165.473 66.2201 165.704 65.1421 166.782C64.2951 167.706 64.2951 168.784 64.4491 170.016Z" fill="#363636"/>
<path d="M72.6109 243.012C72.4569 241.78 72.3799 240.317 73.3809 239.239C74.6129 237.93 76.9229 237.545 79.0019 237.314L174.482 226.303C176.253 226.072 178.255 225.995 179.487 227.073C180.18 227.843 180.642 228.921 180.719 229.999L182.952 243.32C183.106 243.859 183.106 244.398 182.952 244.937C182.49 246.477 180.103 246.862 178.255 247.016C153.538 248.941 87.6259 259.875 80.6959 261.03C77.0769 261.646 73.9199 259.721 73.8429 256.949C73.8429 255.871 73.8429 254.793 73.7659 253.638C73.3809 250.173 72.9959 246.554 72.6109 243.012Z" fill="white"/>
<path d="M79.3875 261.723C77.7705 261.8 76.1535 261.261 74.9215 260.26C73.9205 259.49 73.3815 258.258 73.3815 257.026V256.795C73.3815 255.794 73.3815 254.793 73.3045 253.792L72.1495 243.166C71.9955 242.011 71.8415 240.317 73.0735 238.931C74.3055 237.545 76.8465 237.083 79.0795 236.852L174.56 225.841C176.562 225.61 178.641 225.533 180.027 226.765C180.874 227.612 181.336 228.767 181.413 229.999L183.723 243.32C183.877 243.936 183.877 244.629 183.723 245.245C183.03 247.324 179.642 247.632 178.487 247.709C154.848 249.48 93.0165 259.721 80.9275 261.723C80.3885 261.646 79.8495 261.723 79.3875 261.723ZM176.408 226.765C175.792 226.765 175.176 226.842 174.56 226.919L79.0795 237.93C77.0775 238.161 74.9215 238.469 73.8435 239.624C72.9965 240.471 73.0735 241.626 73.2275 242.935L74.3825 253.561C74.4595 254.562 74.5365 255.64 74.4595 256.641V256.949C74.4595 257.873 74.9215 258.72 75.6145 259.336C77.0005 260.414 78.8485 260.799 80.6195 260.491C92.7855 258.489 154.617 248.248 178.179 246.477C180.643 246.323 182.029 245.707 182.337 244.783C182.414 244.321 182.414 243.859 182.337 243.397L180.027 230.076C179.95 229.152 179.642 228.228 179.026 227.535C178.333 226.919 177.332 226.688 176.408 226.765Z" fill="#363636"/>
<path d="M184.493 138.523C184.339 137.368 184.185 136.136 184.878 135.212C185.725 134.134 187.342 133.903 188.805 133.826L256.873 129.591C258.105 129.514 259.568 129.514 260.569 130.592C261.108 131.362 261.493 132.286 261.57 133.287C262.34 137.291 279.357 244.937 280.127 249.095C280.281 249.634 280.281 250.096 280.204 250.635C279.896 252.021 278.202 252.406 276.816 252.483C258.798 253.869 211.597 262.878 206.746 263.802C204.436 264.264 202.203 262.801 201.741 260.491C201.664 260.26 201.664 260.106 201.664 259.875C201.587 258.797 201.587 257.796 201.433 256.795C200.894 253.638 184.878 141.68 184.493 138.523Z" fill="white"/>
<path d="M205.821 264.572C204.743 264.572 203.665 264.187 202.818 263.571C201.74 262.724 201.047 261.415 200.97 260.106V259.875C200.893 258.874 200.893 257.95 200.739 257.103C200.508 255.409 196.273 226.072 192.269 197.582C188.265 169.4 184.107 140.294 183.876 138.677C183.722 137.676 183.568 136.136 184.338 134.981C185.262 133.672 187.11 133.441 188.65 133.364L256.718 129.129C258.258 129.052 259.798 129.129 260.876 130.361C261.492 131.208 261.877 132.286 261.954 133.364C262.339 135.366 266.805 163.625 271.194 190.96C275.583 218.526 280.126 247.093 280.511 249.172C280.665 249.788 280.665 250.327 280.588 250.943C280.28 252.329 278.971 253.099 276.738 253.253C259.567 254.562 215.369 262.878 206.668 264.572C206.437 264.495 206.129 264.572 205.821 264.572ZM185.031 138.446C185.262 140.063 189.42 169.169 193.424 197.351C197.505 225.764 201.663 255.178 201.894 256.872C201.971 257.796 202.048 258.797 202.125 259.721V259.952C202.202 261.03 202.664 261.954 203.511 262.57C204.358 263.263 205.436 263.494 206.514 263.263C215.215 261.569 259.413 253.253 276.661 251.944C278.432 251.79 279.356 251.328 279.51 250.558C279.587 250.096 279.51 249.634 279.433 249.249C279.048 247.093 274.505 218.603 270.116 191.037C265.727 163.702 261.261 135.443 260.876 133.441C260.799 132.594 260.491 131.747 260.029 131.054C259.259 130.207 257.95 130.207 256.872 130.284L188.804 134.519C187.495 134.596 185.955 134.75 185.339 135.674C184.8 136.29 184.877 137.368 185.031 138.446Z" fill="#363636"/>
<path d="M255.717 144.529C258.797 146.377 260.722 149.688 260.799 153.307C261.107 157.927 257.642 161.854 253.099 162.162C252.021 162.239 250.866 162.085 249.788 161.7C246.4 160.545 243.782 157.696 242.858 154.231C241.703 149.534 244.552 144.837 249.249 143.605C251.482 143.066 253.792 143.374 255.717 144.529Z" fill="#8A0B24"/>
<path d="M253.021 147.763C253.56 148.533 253.714 149.611 253.406 150.458C252.944 151.151 252.02 151.459 251.25 151.074C250.403 150.689 249.787 149.919 249.556 149.072C248.709 146.146 251.481 145.145 253.021 147.763Z" fill="#363636"/>
<path d="M253.33 152.999C252.637 152.768 251.867 152.768 251.251 153.076C250.712 153.461 250.327 154 250.25 154.616L249.557 156.849C249.403 157.234 249.403 157.619 249.557 158.004C249.865 158.466 250.712 158.62 251.405 158.774C253.407 159.005 257.488 159.39 257.873 157.234C258.181 155.309 255.178 153.461 253.33 152.999Z" fill="#363636"/>
<path d="M260.875 178.563C263.955 180.411 265.88 183.722 266.034 187.341C266.188 190.806 264.34 193.963 261.337 195.657C259.335 196.658 257.102 196.812 255.023 196.119C251.558 194.964 249.017 192.192 248.093 188.65C246.168 180.95 254.407 174.944 260.875 178.563Z" fill="#8A0B24"/>
<path d="M258.181 181.874C258.72 182.644 258.874 183.722 258.566 184.646C258.104 185.416 257.18 185.724 256.41 185.339C255.563 184.954 254.947 184.184 254.716 183.337C253.869 180.411 256.641 179.256 258.181 181.874Z" fill="#363636"/>
<path d="M258.488 187.264C257.795 187.033 257.025 187.11 256.409 187.341C255.87 187.726 255.485 188.265 255.408 188.881L254.715 191.114C254.561 191.499 254.561 191.884 254.715 192.269C255.023 192.808 255.87 192.885 256.563 192.962C258.565 193.193 262.646 193.501 263.108 191.268C263.416 189.497 260.336 187.726 258.488 187.264Z" fill="#363636"/>
<path d="M267.729 214.137C270.886 215.985 272.811 219.373 272.888 222.992C273.042 226.457 271.194 229.768 268.191 231.539C266.266 232.54 263.956 232.771 261.877 232.155C258.412 231.077 255.794 228.228 254.87 224.686C252.945 216.909 261.261 210.595 267.729 214.137Z" fill="#8A0B24"/>
<path d="M265.034 217.602C265.573 218.449 265.727 219.45 265.419 220.374C264.957 221.144 264.033 221.452 263.263 221.144C262.416 220.759 261.8 220.066 261.569 219.142C260.645 216.216 263.417 214.984 265.034 217.602Z" fill="#363636"/>
<path d="M265.342 223.069C264.649 222.838 263.879 222.915 263.186 223.223C262.647 223.608 262.262 224.224 262.185 224.84L261.492 227.15C261.338 227.535 261.338 227.92 261.492 228.305C261.8 228.844 262.647 228.921 263.34 228.998C265.342 229.152 269.423 229.383 269.885 227.15C270.27 225.225 267.19 223.454 265.342 223.069Z" fill="#363636"/>
<path d="M232.771 145.915C234.234 145.838 236.005 145.915 236.929 147.224C237.853 148.61 237.468 150.535 236.159 151.536C234.927 152.46 233.31 152.614 231.693 152.691L210.98 154.077C207.977 154.308 204.897 154.385 201.894 154.308C200.585 154.308 199.353 154 198.198 153.461C195.272 151.767 196.042 148.918 198.352 147.609C200.123 146.685 201.663 146.762 203.665 146.839C209.902 147.07 216.216 146.454 222.299 146.223L232.771 145.915Z" fill="#363636"/>
<path d="M197.967 159.929C197.736 159.929 197.582 159.775 197.582 159.544C197.582 159.313 197.736 159.159 197.967 159.159C208.362 157.619 218.911 157.234 229.075 156.849L238.007 156.541C238.238 156.541 238.392 156.695 238.392 156.926C238.392 157.157 238.238 157.311 238.007 157.311L229.075 157.619C218.834 158.004 208.362 158.389 197.967 159.929Z" fill="#363636"/>
<path d="M199.199 165.935C198.968 165.935 198.814 165.781 198.814 165.55C198.814 165.319 198.968 165.165 199.199 165.165C212.905 163.009 226.765 161.315 240.317 160.16C240.548 160.16 240.702 160.314 240.702 160.545C240.702 160.776 240.548 160.93 240.317 160.93C226.842 162.085 212.982 163.779 199.199 165.935Z" fill="#363636"/>
<path d="M203.819 169.785C203.665 169.785 203.511 169.631 203.434 169.477C203.357 169.246 203.511 169.092 203.742 169.015C215.6 166.705 227.612 165.242 239.701 164.626C239.932 164.626 240.086 164.78 240.086 164.934C240.086 165.165 239.932 165.319 239.701 165.319C227.689 166.012 215.754 167.475 203.819 169.785Z" fill="#363636"/>
<path d="M237.93 180.488C239.393 180.411 241.164 180.411 242.165 181.72C243.089 183.183 242.781 185.031 241.395 186.109C240.163 187.11 238.546 187.264 236.929 187.418L216.139 189.266C213.136 189.574 210.056 189.728 206.976 189.651C205.744 189.651 204.435 189.42 203.28 188.881C200.277 187.264 201.124 184.261 203.434 182.952C205.205 181.951 206.822 182.028 208.747 182.105C215.061 182.182 221.298 181.489 227.458 181.104L237.93 180.488Z" fill="#363636"/>
<path d="M202.971 195.426C202.817 195.426 202.586 195.272 202.586 195.118C202.509 194.887 202.663 194.733 202.894 194.656C213.289 192.885 223.838 192.269 234.079 191.576L243.088 191.037C243.319 191.037 243.473 191.191 243.473 191.422C243.473 191.653 243.319 191.807 243.088 191.807L234.079 192.346C223.992 192.962 213.443 193.578 202.971 195.426Z" fill="#363636"/>
<path d="M204.203 201.509C203.972 201.509 203.818 201.355 203.818 201.124C203.818 200.893 203.972 200.739 204.203 200.739C217.986 198.275 231.846 196.273 245.475 194.81C245.706 194.81 245.86 194.964 245.86 195.118C245.86 195.349 245.706 195.503 245.552 195.58C231.923 197.043 218.063 199.045 204.203 201.509Z" fill="#363636"/>
<path d="M208.901 205.282C208.67 205.282 208.516 205.128 208.439 204.974C208.362 204.82 208.593 204.589 208.747 204.512C220.605 201.971 232.694 200.2 244.783 199.276C245.014 199.276 245.168 199.43 245.168 199.661C245.168 199.892 245.014 200.046 244.783 200.046C232.694 200.97 220.682 202.664 208.824 205.282H208.901Z" fill="#363636"/>
<path d="M244.706 216.678C246.169 216.601 247.94 216.601 248.941 217.833C249.942 219.065 249.403 221.298 248.171 222.299C246.939 223.3 245.322 223.531 243.705 223.685L222.915 225.995C219.912 226.38 216.832 226.611 213.752 226.611C212.443 226.688 211.211 226.457 210.056 225.841C207.053 224.224 207.9 221.221 210.21 219.835C211.981 218.757 213.598 218.834 215.523 218.834C221.837 218.834 228.151 217.91 234.311 217.448L244.706 216.678Z" fill="#363636"/>
<path d="M209.749 232.54C209.595 232.54 209.364 232.386 209.364 232.232C209.287 232.001 209.441 231.847 209.672 231.77C220.067 229.768 230.693 228.844 240.934 227.997L249.943 227.227C250.174 227.227 250.328 227.381 250.328 227.612C250.328 227.843 250.174 227.997 249.943 227.997L240.934 228.767C230.693 229.614 220.144 230.461 209.749 232.54Z" fill="#363636"/>
<path d="M210.979 238.7C210.825 238.7 210.671 238.546 210.594 238.392C210.517 238.161 210.671 238.007 210.902 237.93C224.685 235.158 238.622 232.771 252.251 231C252.482 231 252.636 231.154 252.713 231.308C252.713 231.539 252.559 231.693 252.405 231.77C238.776 233.541 224.916 235.928 211.133 238.7H210.979Z" fill="#363636"/>
<path d="M215.677 242.473C215.446 242.473 215.292 242.319 215.215 242.165C215.138 242.011 215.369 241.78 215.523 241.703C227.381 238.854 239.47 236.775 251.636 235.62C251.867 235.62 252.021 235.774 252.021 236.005C252.021 236.236 251.867 236.39 251.636 236.39C239.47 237.545 227.458 239.547 215.6 242.473H215.677Z" fill="#363636"/>
<path d="M302.763 159.621C303.456 162.316 304.149 165.165 303.379 167.86C301.993 172.403 296.911 175.098 292.214 176.715C269.499 184.338 242.626 178.101 227.149 161.546C211.672 144.991 208.438 119.196 219.449 99.099C225.378 88.242 235.234 79.464 246.707 73.843C254.022 70.224 272.271 62.678 278.97 69.762C282.897 73.92 283.205 84.084 284.668 89.551L290.828 113.421L302.763 159.621Z" fill="white"/>
<path d="M271.964 180.488C254.793 180.488 237.776 173.866 226.611 161.854C210.903 145.068 207.669 119.119 218.834 98.791C224.609 88.165 234.388 79.156 246.323 73.304C252.175 70.455 271.964 61.677 279.279 69.377C282.205 72.457 283.206 78.54 284.053 83.853C284.361 85.932 284.669 87.857 285.131 89.397L303.303 159.467C303.919 161.931 304.766 165.088 303.919 168.014C302.764 171.941 298.837 175.098 292.369 177.254C285.747 179.41 278.894 180.488 271.964 180.488ZM270.347 67.375C261.954 67.375 250.943 72.303 246.862 74.305C235.158 80.08 225.533 88.935 219.835 99.33C208.901 119.273 212.058 144.683 227.458 161.084C242.858 177.485 269.346 183.722 291.907 176.099C298.067 174.02 301.686 171.171 302.764 167.629C303.534 165.011 302.841 162.239 302.148 159.698L283.976 89.628C283.591 88.088 283.206 86.086 282.898 84.007C282.051 78.848 281.05 72.996 278.432 70.147C276.507 68.145 273.658 67.375 270.347 67.375Z" fill="#363636"/>
<path d="M265.343 101.024C274.968 106.722 280.589 118.811 278.048 129.668C275.507 140.525 264.341 148.995 253.253 147.686C243.089 146.531 234.773 137.984 231.616 128.282C229.691 122.199 229.461 115.346 232.233 109.571C238.316 96.866 254.024 94.325 265.343 101.024Z" fill="#8A0B24"/>
<path d="M255.87 105.567C257.333 106.337 258.488 107.492 259.181 108.955C259.951 111.034 259.412 113.344 257.795 114.884C256.178 116.347 253.945 116.886 251.789 116.347C249.71 115.808 247.939 114.422 246.861 112.497C243.088 105.875 250.711 102.487 255.87 105.567Z" fill="#363636"/>
<path d="M259.644 119.966C256.949 118.734 253.561 118.118 251.251 119.966C250.25 120.89 249.48 122.045 248.941 123.354C247.863 125.741 246.862 128.205 246.092 130.746C245.476 132.748 244.937 135.058 246.015 136.983C247.478 139.678 251.097 139.986 254.177 139.986C257.411 139.986 260.722 139.909 263.725 138.677C267.267 137.214 270.963 133.287 269.269 129.36C267.267 125.279 263.879 121.891 259.644 119.966Z" fill="#363636"/>
<path d="M208.285 117.117C213.829 92.785 231.77 70.84 255.64 63.371C279.51 55.902 308.385 64.911 321.398 86.24C329.868 100.177 331.254 117.579 327.789 133.518C325.633 143.528 321.629 153.076 316.778 162.008C314.468 166.243 310.541 170.632 308.924 175.098C307.076 180.257 308.77 181.874 311.542 187.033C322.553 207.515 333.641 228.074 344.652 248.556C347.116 253.099 349.657 257.95 349.503 263.109C349.349 268.268 345.422 273.735 340.263 273.581C334.642 273.427 331.254 267.421 329.021 262.185C317.856 236.005 306.691 209.825 295.526 183.645C280.203 190.344 262.493 192.115 246.554 187.187C230.615 182.259 216.601 170.401 210.364 154.847C205.513 143.066 205.359 129.668 208.285 117.117ZM251.713 171.787C271.348 179.256 295.449 172.711 308.77 156.464C322.091 140.217 323.785 115.423 312.851 97.482C302.61 80.696 276.738 66.528 257.18 74.767C237.622 83.006 220.605 100.408 219.45 122.43C218.372 143.451 232.078 164.318 251.713 171.787Z" fill="white"/>
<path d="M340.417 274.197H340.186C334.103 274.043 330.561 267.421 328.482 262.493L295.218 184.492C279.356 191.345 261.569 192.577 246.323 187.88C229.537 182.721 215.908 170.478 209.748 155.232C204.05 141.064 205.513 126.588 207.746 116.963C213.675 91.322 232.386 70.07 255.486 62.755C280.511 54.901 309.078 64.834 321.86 85.855C329.791 98.791 332.101 116.193 328.328 133.518C326.326 142.758 322.707 152.075 317.24 162.162C316.239 163.933 315.161 165.627 313.929 167.321C312.158 169.862 310.31 172.557 309.386 175.175C307.846 179.333 308.77 181.027 310.849 184.646C311.234 185.262 311.542 185.955 312.004 186.648C319.319 200.2 326.634 213.829 333.949 227.381L345.114 248.171C347.347 252.329 350.119 257.565 350.042 263.032C349.888 268.422 345.884 274.197 340.417 274.197ZM295.449 183.183C295.526 183.183 295.603 183.183 295.68 183.183C295.834 183.26 295.911 183.337 295.988 183.491L329.483 262.031C331.485 266.651 334.719 272.888 340.186 273.042C345.114 273.119 348.656 267.96 348.81 263.109C348.964 257.95 346.346 253.099 344.036 248.864L332.871 228.074L310.926 187.341C310.541 186.648 310.156 185.955 309.771 185.339C307.692 181.643 306.537 179.564 308.231 174.944C309.232 172.172 311.08 169.477 312.928 166.859C314.083 165.242 315.161 163.548 316.162 161.777C321.552 151.767 325.094 142.527 327.096 133.441C330.869 116.347 328.559 99.253 320.782 86.625C308.308 65.912 280.28 56.21 255.794 63.91C233.079 70.994 214.599 91.938 208.824 117.271C206.668 126.742 205.205 140.91 210.826 154.847C216.832 169.785 230.23 181.797 246.631 186.802C261.8 191.422 279.51 190.19 295.218 183.26C295.295 183.183 295.372 183.183 295.449 183.183ZM268.884 175.483C262.955 175.483 257.026 174.405 251.482 172.326C231.462 164.703 217.756 143.759 218.834 122.43C219.373 111.958 223.531 101.794 230.923 93.093C238.007 84.854 246.939 78.386 256.949 74.305C276.276 66.22 302.61 79.772 313.313 97.251C324.401 115.423 322.63 140.525 309.155 156.926C299.453 168.707 284.13 175.406 268.884 175.483ZM269.5 72.996C265.342 72.919 261.184 73.766 257.334 75.306C231 86.317 220.759 106.953 219.989 122.507C218.911 143.374 232.309 163.856 251.867 171.248C271.271 178.64 294.987 172.249 308.231 156.156C321.475 140.063 323.092 115.577 312.235 97.867C303.996 84.161 285.978 72.996 269.5 72.996Z" fill="#363636"/>
<path d="M343.035 267.96C342.958 267.96 342.881 267.96 342.804 267.883C340.802 266.343 339.647 263.956 338.646 261.877L297.836 179.487C276.43 190.498 248.248 186.725 230.538 170.401C212.828 154.077 206.745 125.972 216.216 103.719C216.293 103.488 216.524 103.411 216.678 103.488C216.909 103.565 216.986 103.796 216.909 104.027C207.592 125.972 213.521 153.692 231.077 169.862C248.633 186.032 276.738 189.728 297.836 178.64C297.913 178.64 298.067 178.64 298.144 178.64C298.221 178.64 298.298 178.717 298.375 178.794L339.339 261.492C340.34 263.494 341.418 265.727 343.266 267.267C343.42 267.421 343.497 267.652 343.343 267.806C343.266 267.883 343.112 267.96 343.035 267.96Z" fill="#363636"/>
<path d="M301.301 281.358C299.761 280.126 297.836 278.894 297.528 276.892C297.528 276.045 297.528 275.275 297.451 274.428C296.989 272.503 294.525 271.964 293.37 270.424C291.676 268.191 293.062 264.957 292.138 262.339C291.291 260.029 288.827 258.566 288.288 256.179C288.134 255.024 288.211 253.869 288.442 252.714C288.673 251.559 288.442 250.404 287.826 249.403C289.058 249.711 289.751 250.943 290.136 252.175C290.521 253.407 290.829 254.639 291.676 255.563C292.985 256.949 295.218 256.949 296.989 257.642C299.299 258.566 300.916 260.645 301.224 263.109C301.455 264.803 300.993 266.728 301.994 268.191C302.995 269.654 304.997 269.962 306.075 271.271C308 273.658 305.844 277.508 307.307 280.28C307.769 281.127 308.462 281.743 308.924 282.59C309.925 284.361 309.54 286.594 308.77 288.519C308 290.444 307.076 292.369 307.076 294.371C307.153 289.597 305.074 284.438 301.301 281.358Z" fill="#8A0B24"/>
<path d="M303.073 243.012C302.303 244.937 301.995 247.247 303.073 249.018C304.074 250.558 306.076 251.405 306.384 253.176C306.692 254.562 305.845 255.871 304.921 256.949C303.997 258.027 302.996 259.105 302.842 260.491C302.534 262.647 304.305 264.495 305.537 266.343C306.615 268.191 307.462 270.27 308.001 272.349C308.617 274.428 309.31 276.507 309.926 278.586C310.696 281.05 311.466 283.822 310.388 286.209C312.313 282.821 313.006 278.817 312.159 274.967C311.851 273.504 311.312 272.041 311.466 270.578C311.62 268.422 313.16 266.343 312.775 264.187C312.467 262.724 311.312 261.492 311.235 259.952C311.081 258.104 312.467 256.641 313.083 254.87C313.93 252.329 313.16 249.48 311.004 247.863C309.772 246.939 308.078 246.323 307.539 244.86C306.769 242.627 309.233 240.317 308.694 238.007C308.309 236.313 306.384 235.235 304.844 234.773C305.075 236.236 305.614 237.083 305.075 238.546C304.536 240.009 303.458 241.472 303.073 243.012Z" fill="#8A0B24"/>
<path d="M333.025 247.863C331.562 248.787 329.791 249.018 328.097 249.557C326.403 250.096 324.632 250.866 323.939 252.483C322.938 254.639 324.17 257.411 322.784 259.336C321.937 260.645 320.166 261.03 318.857 261.877C316.932 263.186 315.931 265.419 316.239 267.729C316.393 268.73 316.855 269.808 316.624 270.809C316.393 271.81 315.392 272.734 314.776 273.658C313.621 275.429 313.775 277.739 313.929 279.895C314.083 282.051 314.083 284.361 312.697 286.055C317.394 284.284 319.627 278.894 323.708 275.891C324.632 275.121 325.71 274.582 326.634 273.812C327.635 273.119 328.328 272.041 328.636 270.886C329.098 268.653 327.404 266.42 327.789 264.187C328.251 261.646 331.1 259.952 331.023 257.411C331.023 255.486 329.329 253.638 330.176 251.944C330.715 250.866 332.101 250.481 333.102 249.788C334.488 248.864 336.028 246.323 335.181 244.629C334.873 245.938 334.18 247.17 333.025 247.863Z" fill="#8A0B24"/>
<path d="M299.838 301.686C300.454 303.303 301.301 305.074 302.841 305.921C303.919 306.46 305.151 306.691 306.383 306.614C308.693 306.691 311.003 306.614 313.236 306.46C314.545 306.46 315.854 306.152 317.009 305.613C318.241 304.766 319.242 303.611 319.935 302.302C322.168 298.221 323.631 293.755 324.247 289.135C324.401 287.749 324.478 286.209 323.477 285.285C322.476 284.361 321.167 284.284 319.935 284.207C314.083 284.207 308.154 283.822 302.302 283.591C300.839 283.514 297.528 282.821 296.758 284.515C295.911 286.363 296.989 290.444 297.374 292.369C297.836 295.526 298.683 298.683 299.838 301.686Z" fill="#363636"/>
<path d="M304.843 283.129C304.612 283.129 304.458 282.898 304.535 282.744C304.689 281.589 304.227 280.28 302.995 278.663L302.455 278.047C301.531 277.046 300.762 275.891 300.3 274.582C300.146 273.966 300.069 273.273 299.992 272.58C299.992 271.579 299.761 270.578 299.222 269.731C298.837 269.346 298.452 268.961 297.99 268.73C297.759 268.576 297.528 268.422 297.297 268.268C294.679 266.189 294.294 262.57 294.062 259.259C294.062 259.105 294.216 258.951 294.37 258.874C294.524 258.874 294.678 258.951 294.755 259.182C294.755 259.182 294.755 259.182 294.755 259.259C294.986 262.57 295.372 265.881 297.759 267.806C297.99 267.96 298.144 268.114 298.375 268.268C299.915 269.115 300.839 270.809 300.608 272.58C300.608 273.196 300.685 273.812 300.839 274.428C301.301 275.583 301.916 276.738 302.84 277.585L303.38 278.201C304.766 279.895 305.305 281.435 305.074 282.821C305.151 282.975 304.997 283.129 304.843 283.129Z" fill="#363636"/>
<path d="M310.156 276.199C310.002 276.199 309.848 276.122 309.848 275.891L308.077 265.958C307.692 264.11 307.538 262.262 307.615 260.414C307.769 259.49 307.923 258.566 308.231 257.642C308.462 256.795 308.693 255.871 308.847 255.024C309.155 252.329 308.308 249.634 306.537 247.632C306.46 247.478 306.46 247.247 306.614 247.17C306.768 247.093 306.922 247.093 307.076 247.17C309.001 249.326 309.925 252.175 309.54 255.101C309.386 256.025 309.232 256.949 308.924 257.796C308.077 260.414 308 263.186 308.77 265.881L310.541 275.814C310.541 275.968 310.464 276.199 310.156 276.199Z" fill="#363636"/>
<path d="M315.315 281.743C315.161 281.743 314.93 281.589 314.93 281.435C314.93 279.433 316.316 277.816 317.625 276.276C318.703 275.198 319.55 273.889 320.089 272.426C320.243 271.887 320.32 271.271 320.32 270.655C320.32 268.653 321.321 266.728 323.015 265.573C323.4 265.188 323.785 264.88 324.17 264.418C326.48 261.877 326.711 258.104 326.788 254.177C326.788 254.023 326.942 253.869 327.096 253.869C327.25 253.869 327.404 254.023 327.404 254.254C327.327 258.335 327.096 262.185 324.555 264.957C324.17 265.342 323.785 265.727 323.323 266.112C321.783 267.113 320.859 268.884 320.859 270.732C320.782 271.348 320.705 271.964 320.551 272.58C320.012 274.12 319.088 275.506 317.933 276.738C316.624 278.201 315.469 279.664 315.469 281.435C315.623 281.589 315.469 281.743 315.315 281.743Z" fill="#363636"/>
</svg>
