<svg width="47" height="47" viewBox="0 0 47 47" fill="none" xmlns="http://www.w3.org/2000/svg">
<path d="M44.618 31.5136L33.5766 26.5659L33.5461 26.5519C32.9729 26.3067 32.3476 26.2083 31.7268 26.2656C31.106 26.3229 30.5093 26.5341 29.9906 26.88C29.9295 26.9203 29.8708 26.9641 29.8149 27.0112L24.1102 31.8745C20.4961 30.1191 16.7649 26.4159 15.0094 22.8487L19.8797 17.0573C19.9266 16.9987 19.9711 16.9402 20.0133 16.8769C20.3518 16.3596 20.5572 15.7667 20.6112 15.1509C20.6651 14.5351 20.566 13.9154 20.3227 13.3472V13.3191L15.361 2.2589C15.0393 1.51655 14.4861 0.898155 13.7841 0.496022C13.082 0.0938896 12.2687 -0.0704096 11.4656 0.0276507C8.28979 0.445557 5.37466 2.00523 3.26471 4.41537C1.15476 6.82552 -0.00572093 9.9213 2.12078e-05 13.1245C2.12078e-05 31.7339 15.1406 46.8745 33.75 46.8745C36.9532 46.8803 40.049 45.7198 42.4592 43.6098C44.8693 41.4999 46.429 38.5848 46.8469 35.4089C46.9451 34.6061 46.7812 33.793 46.3795 33.091C45.9778 32.389 45.3599 31.8357 44.618 31.5136ZM33.75 43.1245C25.7962 43.1158 18.1706 39.9523 12.5464 34.3281C6.9222 28.7039 3.75871 21.0784 3.75002 13.1245C3.7412 10.8358 4.56577 8.62217 6.06972 6.89696C7.57367 5.17175 9.65417 4.05296 11.9227 3.74953C11.9217 3.75888 11.9217 3.7683 11.9227 3.77765L16.8446 14.7933L12 20.5917C11.9508 20.6482 11.9061 20.7086 11.8664 20.7722C11.5137 21.3134 11.3068 21.9365 11.2658 22.5812C11.2247 23.2259 11.3509 23.8703 11.6321 24.4519C13.7555 28.7948 18.1313 33.1378 22.5211 35.2589C23.107 35.5375 23.7551 35.6593 24.4021 35.6124C25.0491 35.5656 25.6729 35.3517 26.2125 34.9917C26.2728 34.9514 26.3307 34.9075 26.386 34.8605L32.0836 29.9995L43.0992 34.9331H43.125C42.8253 37.2048 41.7082 39.2895 39.9826 40.7972C38.2571 42.3049 36.0414 43.1322 33.75 43.1245Z" fill="#7E7E7E"/>
</svg>
