<svg width="250" height="250" viewBox="0 0 250 250" fill="none" xmlns="http://www.w3.org/2000/svg">
<path d="M219.8 87.95C228.25 88.4 236.75 87.9 245.05 86.4L245.3 56.35C245.3 55.8 224 55.8 222.05 55.9C220.1 56 220.25 55.95 220.4 57.6C220.6 59.2 220.65 60.85 220.6 62.45C220.3 66.45 220.1 70.4 219.95 74.4C219.8 78.95 219.75 83.45 219.8 87.95Z" fill="#111111"/>
<path d="M230.5 59.55L237.05 59.5999C236.7 57.3499 236.6 55.05 236.7 52.75C235.4 52.6 232 52.1 231 53.25C230.6 53.75 230.7 59.55 230.5 59.55Z" fill="white"/>
<path d="M237.05 59.95L230.5 59.9C230.3 59.9 230.15 59.75 230.1 59.5C230.1 59.45 230.1 59.4 230.15 59.35C230.2 59.15 230.2 58.3 230.25 57.55C230.35 54.6 230.45 53.3 230.75 52.95C231.7 51.8 234.3 51.95 236.65 52.3H236.75C236.95 52.35 237.1 52.5 237.05 52.7C236.95 54.95 237.05 57.25 237.4 59.5C237.4 59.6 237.4 59.7 237.3 59.8C237.25 59.9 237.15 59.95 237.05 59.95ZM230.95 59.15H236.6C236.35 57.1 236.25 55.05 236.3 53C234.95 52.8 232.1 52.5 231.3 53.45C231.1 53.8 231.05 56.25 231 57.6C231 58.3 230.95 58.8 230.95 59.15Z" fill="#111111"/>
<path d="M224.6 64.65C224.5 64.65 224.4 64.5 224.4 64.4C224.4 64.3 224.5 64.25 224.6 64.2L242.65 63.6C242.75 63.6 242.85 63.7 242.85 63.8C242.85 63.9 242.75 64 242.65 64L224.6 64.65Z" fill="white"/>
<path d="M225.3 68.35C225.2 68.35 225.1 68.2 225.1 68.1C225.1 68 225.2 67.95 225.3 67.9C230.45 67.8 235.55 67.3 240.65 66.45C240.75 66.45 240.85 66.5 240.9 66.6C240.9 66.7 240.85 66.8 240.7 66.85C235.6 67.75 230.45 68.25 225.3 68.35Z" fill="white"/>
<path d="M226.95 72.85C226.85 72.85 226.75 72.7 226.75 72.6C226.75 72.5 226.85 72.45 226.95 72.4L241.45 71.4C241.55 71.4 241.7 71.45 241.7 71.55C241.7 71.65 241.65 71.8 241.55 71.8H241.5L226.95 72.85Z" fill="white"/>
<path d="M230.201 76.6C229.151 76.6 228.051 76.55 227.001 76.5C226.901 76.5 226.801 76.4 226.801 76.3C226.801 76.2 226.901 76.1 227.051 76.1C231.401 76.45 235.751 76.1 239.951 75.1C240.051 75.05 240.151 75.15 240.201 75.25C240.251 75.35 240.151 75.5 240.051 75.5C236.801 76.2 233.501 76.6 230.201 76.6Z" fill="white"/>
<path d="M227.001 79.65C226.901 79.65 226.801 79.55 226.801 79.45C226.801 79.35 226.901 79.25 227.001 79.25L241.351 79.15C241.451 79.15 241.551 79.25 241.551 79.35C241.551 79.45 241.451 79.55 241.351 79.55L227.001 79.65Z" fill="white"/>
<path d="M204 67.15L204.15 95.55C210.95 96.2 217.75 96.6 224.6 96.65C224.2 87.9 224.25 79.2 224.7 70.45C224.8 68.2 225.55 67.05 223.35 66.7C221.3 66.35 218.7 66.8 216.6 66.85C215.45 66.85 204 67.1 204 67.15Z" fill="#8A0B24"/>
<path d="M209.85 70.75C211.7 70.2 213.65 70 215.55 70.25C215.4 68.05 215.6 65.85 216.25 63.75C216.05 64.3 211.35 63.45 210.6 64.25C209.6 65.25 210 69.35 209.85 70.75Z" fill="white"/>
<path d="M209.849 71.0999C209.749 71.0999 209.699 71.0499 209.599 70.9999C209.499 70.8999 209.449 70.7999 209.449 70.6999C209.499 70.3499 209.499 69.7999 209.449 69.1999C209.449 66.7999 209.499 64.7499 210.249 63.9999C210.749 63.4999 212.049 63.4999 213.949 63.5499C214.599 63.5999 215.249 63.5999 215.849 63.5499C215.949 63.4499 216.099 63.3999 216.249 63.4499C216.449 63.4999 216.549 63.6999 216.499 63.8999C215.899 65.9499 215.649 68.0999 215.849 70.2499C215.849 70.3499 215.799 70.4499 215.749 70.5499C215.649 70.6499 215.549 70.6499 215.449 70.6499C213.599 70.3999 211.699 70.5999 209.899 71.1499C209.899 71.1499 209.899 71.0999 209.849 71.0999ZM212.649 64.2499C211.849 64.2499 211.049 64.2999 210.849 64.4999C210.249 65.1499 210.249 67.6999 210.249 69.1999C210.249 69.5999 210.249 69.9499 210.249 70.2499C211.849 69.8499 213.499 69.6999 215.149 69.8499C215.049 67.9999 215.249 66.1499 215.699 64.3499C215.299 64.3499 214.749 64.3499 213.999 64.3499C213.649 64.2499 213.149 64.2499 212.649 64.2499Z" fill="#111111"/>
<path d="M219.899 75.45L206.149 74.75C206.049 74.75 205.949 74.65 205.949 74.55C205.949 74.45 206.049 74.35 206.199 74.35L219.949 75.05C220.049 75.05 220.149 75.2 220.149 75.3C220.049 75.35 219.999 75.4 219.899 75.45Z" fill="#111111"/>
<path d="M214.751 77.85C212.251 77.85 209.751 77.8 207.251 77.65C207.151 77.65 207.051 77.55 207.051 77.45C207.051 77.35 207.151 77.25 207.251 77.25C211.501 77.5 215.851 77.55 220.101 77.35C220.201 77.35 220.301 77.45 220.301 77.55C220.301 77.65 220.201 77.75 220.101 77.75C218.351 77.8 216.551 77.85 214.751 77.85Z" fill="#111111"/>
<path d="M221.1 81.05L207.8 80.9C207.7 80.9 207.6 80.8 207.6 80.7C207.6 80.6 207.7 80.5 207.8 80.5L221.1 80.65C221.2 80.65 221.3 80.8 221.3 80.9C221.25 80.95 221.2 81.05 221.1 81.05Z" fill="#111111"/>
<path d="M220.501 85.0999C216.451 84.8499 212.401 84.7999 208.301 84.9999C208.201 84.9999 208.101 84.8999 208.051 84.7999C208.051 84.6999 208.151 84.5999 208.251 84.5999C212.301 84.4499 216.401 84.4999 220.501 84.6999C220.601 84.6999 220.701 84.7999 220.701 84.8999C220.701 85.0499 220.601 85.1499 220.501 85.0999Z" fill="#111111"/>
<path d="M221.599 88.65C217.149 88.25 212.699 88.2 208.199 88.5C208.099 88.5 207.999 88.4 207.949 88.3C207.949 88.2 208.049 88.1 208.149 88.05C212.649 87.75 217.099 87.8 221.599 88.2C221.699 88.2 221.799 88.3 221.799 88.4C221.849 88.55 221.749 88.65 221.599 88.65Z" fill="#111111"/>
<path d="M51.2506 119.55C51.8506 121.5 51.7006 123.6 52.2506 125.55C52.7006 127.05 53.5506 128.45 53.5006 130C53.4006 131.2 52.9006 132.3 52.0506 133.2C51.2006 134.05 50.3006 134.8 49.2506 135.45C47.7506 136.5 46.1006 137.55 44.3006 137.65C42.5006 137.75 40.7506 136.8 39.2006 135.8C37.0506 134.4 35.1006 132.8 33.2506 131C31.9506 129.7 30.7006 128.25 30.2006 126.5C29.7506 124.65 29.9506 122.65 30.7506 120.95C32.2006 117.5 35.0506 114.95 38.4006 113.4C41.2506 112.05 44.9006 113.25 47.4506 114.9C49.2006 115.9 50.5506 117.6 51.2506 119.55Z" fill="#8A0B24"/>
<path d="M59.3508 139.5C59.8008 140.6 60.2008 141.8 60.0008 143C59.7508 144.45 58.6008 145.55 57.4508 146.45C56.3508 147.4 55.1008 148.15 53.7508 148.7C52.4008 149.25 50.9008 149.3 49.5008 148.8C48.2508 148.3 47.2508 147.35 46.4008 146.35C45.2008 145 44.1508 143.6 43.1508 142.15C42.6508 141.55 42.3508 140.8 42.3008 140C42.3008 138.9 43.1008 138 43.9008 137.25C46.6008 134.6 49.7008 132.4 53.0508 130.65C55.3008 129.45 55.8008 131.35 56.6508 133.05C57.5508 135.15 58.5008 137.3 59.3508 139.5Z" fill="#111111"/>
<path d="M44.8007 140C44.1007 139.95 43.3507 139.8 42.7007 139.55C40.1507 138.7 37.5507 137.8 35.2507 136.25C30.8507 133.2 28.2507 128.1 28.4007 122.75C28.4507 120.45 29.1007 118.25 30.2507 116.25C32.1507 113.15 35.3507 111 38.9507 110.45C42.5507 109.9 46.2007 110.85 49.0507 113.1C51.9007 115.35 53.8007 118.55 54.3507 122.15C54.5507 123.95 54.6007 125.7 54.6007 127.8C54.6007 128.4 54.6507 129 54.7507 129.6C54.8507 130.45 54.9007 131.3 54.8507 132.15C54.7507 133.6 53.7007 134.35 52.7007 135.1C51.6007 135.9 50.5007 136.7 49.4007 137.5L47.7007 138.75C47.0007 139.25 46.1007 139.9 45.1007 140.05C45.0507 139.95 44.9507 140 44.8007 140ZM40.9507 110.7C40.3007 110.7 39.7007 110.75 39.0507 110.85C35.5507 111.4 32.5007 113.45 30.6007 116.45C29.5007 118.35 28.8507 120.55 28.8007 122.75C28.6507 127.95 31.1507 132.9 35.4507 135.9C37.7007 137.4 40.3007 138.3 42.8007 139.15C43.5507 139.45 44.3007 139.6 45.1007 139.6C46.0007 139.4 46.8507 139 47.5507 138.4L49.2507 137.15C50.3507 136.35 51.4507 135.55 52.5507 134.75C53.5507 134 54.4507 133.35 54.5507 132.1C54.6007 131.3 54.5507 130.45 54.4507 129.65C54.4007 129.05 54.3507 128.4 54.3007 127.8C54.3007 125.75 54.2007 124 54.0507 122.2C53.5007 118.75 51.6507 115.6 48.9007 113.4C46.6507 111.65 43.8507 110.7 40.9507 110.7Z" fill="#111111"/>
<path d="M47.0997 138.05C46.9997 138.05 46.8997 137.95 46.9497 137.8C47.2997 135.25 45.9497 132.85 44.4997 130.8C44.0497 130.9 43.5997 131 43.1497 131C42.5997 131.05 42.0497 130.95 41.5497 130.7C40.9997 130.4 40.7497 129.8 40.8497 129.2C40.9497 128.9 41.1997 128.65 41.4997 128.5C41.8997 128.3 42.3997 128.3 42.7997 128.45C43.3997 128.75 43.9497 129.25 44.2997 129.85L44.6497 130.3C45.3997 130.05 46.0997 129.7 46.7497 129.25C46.5997 128.4 46.5997 127.55 46.7497 126.7C46.7997 126.25 46.9997 125.85 47.2497 125.5C47.5997 125 48.2997 124.85 48.7997 125.2C49.1497 125.45 49.2997 125.85 49.2997 126.25C49.2497 126.7 49.0997 127.15 48.8997 127.5C48.4497 128.25 47.8997 128.9 47.1997 129.4C47.6497 131.65 49.1497 133.5 51.2497 134.45C51.3497 134.5 51.3997 134.6 51.3497 134.7C51.2997 134.8 51.1997 134.85 51.0997 134.8C48.9497 133.85 47.3997 131.95 46.8997 129.65C46.2997 130.05 45.6497 130.4 44.9497 130.6C46.4997 132.85 47.7497 135.25 47.3997 137.8C47.2497 137.95 47.1997 138 47.0997 138.05ZM42.1497 128.75C41.9497 128.75 41.7997 128.8 41.5997 128.85C41.3997 128.95 41.2497 129.1 41.1997 129.3C41.1497 129.7 41.3497 130.15 41.6997 130.35C42.0997 130.55 42.5997 130.65 43.0497 130.6C43.4497 130.6 43.7997 130.5 44.1997 130.45L43.9497 130.1C43.6497 129.55 43.1497 129.1 42.5997 128.85C42.4497 128.75 42.2997 128.75 42.1497 128.75ZM48.1497 125.45C47.8997 125.45 47.6497 125.6 47.4997 125.8C47.2997 126.1 47.1497 126.45 47.0997 126.8C46.9497 127.5 46.9497 128.25 47.0497 129C47.5997 128.55 48.0997 128 48.4997 127.35C48.6997 127.05 48.8497 126.7 48.8497 126.3C48.8497 125.95 48.6997 125.65 48.3997 125.5C48.3497 125.45 48.2497 125.45 48.1497 125.45Z" fill="#111111"/>
<path d="M44.1008 140.2C44.0508 140.2 44.0508 140.15 44.0508 140.15L44.1008 140.1C48.3508 138.95 51.9008 136.05 53.8008 132.1C53.9508 131.85 54.0008 131.55 53.9008 131.3C53.8008 131.15 53.6508 131.1 53.5008 131.1C53.4008 131.1 53.3508 131.15 53.3008 131.25C53.3008 131.3 53.2508 131.3 53.2508 131.3C53.2008 131.3 53.2008 131.25 53.2008 131.25C53.2508 131.1 53.3508 131 53.5008 131C53.7008 130.95 53.9008 131.05 54.0008 131.25C54.1008 131.55 54.0508 131.9 53.9008 132.15C52.0008 136.1 48.4508 139.05 44.1008 140.2Z" fill="white"/>
<path d="M50.6008 140.2C50.6008 140.2 50.5508 140.2 50.5508 140.15C50.5508 140.1 50.5508 140.1 50.5508 140.05C53.0508 138.6 55.0008 136.45 56.2008 133.8C56.2008 133.75 56.2508 133.75 56.3008 133.75C56.3508 133.75 56.3508 133.8 56.3508 133.85C55.1008 136.55 53.1008 138.75 50.6008 140.2Z" fill="white"/>
<path d="M55.1008 139.95C55.0508 139.95 55.0508 139.9 55.0508 139.85L56.8008 137.95C56.8508 137.95 56.8508 137.95 56.9008 137.95C56.9008 138 56.9008 138 56.9008 138.05L55.1508 139.95C55.1508 139.95 55.1508 139.95 55.1008 139.95Z" fill="white"/>
<path d="M52.05 145.8C52 145.8 52 145.8 52 145.75C52 145.7 52 145.7 52.05 145.65C54.85 144.85 57.15 142.75 58.1 140C58.1 139.95 58.15 139.95 58.2 139.95C58.25 139.95 58.25 140 58.25 140.05C57.25 142.85 54.95 145 52.05 145.8Z" fill="white"/>
<path d="M26.05 107.15C26.45 108.15 27.15 109.3 28.2 109.25C27.7 106.1 26.75 103.1 25.4 100.2C24.55 98.35 22.2 96.1 22.8 99.5C23.2 102 25.05 104.85 26.05 107.15Z" fill="#111111"/>
<path d="M40.8 105.9C42.1 105.4 42.4 103.7 42.5 102.3L42.8 97.4C43 94.4 41.1 95.2 40.5 97.45C39.8 100.1 40.1 103.25 40.8 105.9Z" fill="#111111"/>
<path d="M52.9004 109.6C53.4004 109.05 57.7004 108.8 58.7504 108.3C59.5004 107.95 62.9504 106.1 62.4504 105.1C61.1504 102.45 53.7004 108.65 52.9004 109.6Z" fill="#111111"/>
<path d="M59 120.9C60.05 121.45 65.55 124.15 65.65 121.6C65.75 118.5 59.8 121.3 59 120.9Z" fill="#111111"/>
<path d="M21.7506 117.35C22.1006 117.55 22.4506 117.95 22.2506 118.25C22.1006 118.4 21.9006 118.5 21.6506 118.5C19.0506 118.7 16.3006 118.95 13.8006 118.1C13.0006 117.9 12.3506 117.5 11.8006 116.9C11.3006 116.25 11.1006 115 11.9506 114.55C12.7506 114.15 14.3006 114.65 15.1006 114.85C17.4506 115.3 19.7006 116.15 21.7506 117.35Z" fill="#111111"/>
<path d="M15.4997 129.9C15.2997 129.95 15.1497 130.1 14.9997 130.2C14.8497 130.35 14.7997 130.55 14.8997 130.75C15.0497 131.05 15.4997 131 15.8497 130.95C16.9997 130.65 18.0997 130.25 19.1497 129.8C19.5997 129.6 22.1997 128.65 22.1997 128.15C22.1497 127.6 16.0997 129.65 15.4997 129.9Z" fill="#111111"/>
<path d="M22.3008 137.45C21.8508 138 21.6008 138.7 21.6508 139.45C22.2508 139.45 22.7508 138.95 23.1008 138.45C23.4508 137.95 26.3508 134.45 25.7508 133.85C25.1008 133.1 22.6508 136.95 22.3008 137.45Z" fill="#111111"/>
<path d="M29.6506 146.3C29.7506 146.65 29.9006 147.05 30.2506 147.1C30.7006 147.15 30.9006 146.6 31.0006 146.15C31.2006 145.15 32.1506 137.9 31.0506 137.9C29.2506 137.9 29.4006 145.2 29.6506 146.3Z" fill="#111111"/>
<path d="M10.9499 212.85C8.54992 213.6 5.79992 214.8 5.39992 217.25C4.84992 220.75 9.29992 222.7 12.8499 223.3C85.1999 235.35 159.35 225.2 231.25 210.7C234.7 210 238.25 209.25 241.15 207.25C244.05 205.25 246.15 201.65 245.3 198.25C243.85 192.2 235.7 191.4 229.5 191.95L141.1 199.35C112.9 201.7 84.1999 205.75 55.9499 205.8C40.6999 205.8 25.5499 208.4 10.9499 212.85Z" fill="white"/>
<path d="M80.4506 229C57.9506 229 35.2506 227.45 12.7506 223.7C8.80055 223.05 4.40055 220.95 5.00055 217.25C5.45055 214.5 8.55055 213.25 10.8006 212.55C26.1006 207.85 41.2506 205.45 55.9006 205.45C75.8006 205.4 96.2506 203.35 116.001 201.35C124.201 200.55 132.751 199.65 141.051 198.95L229.451 191.55C233.751 191.2 243.951 191.1 245.651 198.15C246.601 201.95 244.151 205.65 241.351 207.55C238.301 209.65 234.601 210.4 231.301 211.05C185.151 220.35 133.251 229 80.4506 229ZM11.0506 213.2C8.95055 213.85 6.15055 214.95 5.75055 217.3C5.20055 220.7 9.95055 222.4 12.9006 222.9C35.3506 226.65 58.0006 228.2 80.4506 228.2C133.201 228.2 185.001 219.6 231.151 210.3C234.351 209.65 238.001 208.9 240.901 206.9C243.401 205.15 245.751 201.7 244.901 198.3C243.351 191.8 233.601 191.9 229.451 192.25L141.051 199.65C132.751 200.35 124.251 201.2 116.001 202.05C96.2506 204.05 75.8006 206.1 55.8506 206.15C41.4006 206.15 26.3006 208.55 11.0506 213.2Z" fill="#111111"/>
<path d="M193.3 222.55C191.8 223.35 191.15 225.2 191.95 226.7C192.45 227.65 193.35 228.25 194.35 228.35C201.55 229.05 208.8 228.75 215.9 227.55C219.3 227 240.35 223.75 232.9 216.55C229.85 213.6 215.7 217 211.95 217.4C207.05 217.95 202.25 219 197.55 220.45C196.15 221.1 194.7 221.8 193.3 222.55Z" fill="white"/>
<path d="M201.75 229.15C199.25 229.15 196.8 229 194.3 228.75C192.4 228.55 191 226.8 191.25 224.9C191.4 223.75 192.1 222.7 193.1 222.2C194.5 221.45 195.95 220.75 197.45 220.15C202.15 218.65 207.05 217.6 211.95 217.05C212.7 216.95 213.9 216.75 215.3 216.5C223.05 215.15 230.85 214 233.2 216.3C234.65 217.7 235.15 219.1 234.75 220.4C233.75 223.5 227.35 226.1 216.15 227.9L215.95 227.95C211.35 228.7 206.55 229.1 201.75 229.15ZM227.9 215.75C224 215.75 218.8 216.65 215.45 217.25C213.95 217.5 212.8 217.7 212.05 217.8C207.2 218.35 202.4 219.4 197.7 220.85C196.25 221.45 194.85 222.1 193.5 222.85C192.15 223.55 191.6 225.15 192.3 226.5C192.7 227.3 193.5 227.9 194.45 228C201.6 228.7 208.8 228.4 215.9 227.2L216.1 227.15C230.55 224.85 233.6 221.75 234.1 220.15C234.4 219.1 233.95 218 232.75 216.8C231.9 216 230.1 215.75 227.9 215.75Z" fill="#111111"/>
<path d="M89.5009 44.5999C82.0509 57.9499 81.4009 74.3999 85.6009 89.0999C88.6009 99.6499 94.2509 109.7 102.901 116.45C114.851 125.75 131.801 127.65 145.901 122.05C160.001 116.45 170.801 103.85 175.151 89.3999C179.501 74.9499 177.601 58.8499 170.851 45.2999C167.051 37.6499 161.551 30.6499 154.301 26.1499C133.301 13.1999 101.001 23.8499 89.5009 44.5999Z" fill="white"/>
<path d="M129.301 125.55C119.651 125.55 110.151 122.5 102.701 116.7C92.5507 108.8 87.6007 97.35 85.2507 89.15C80.7007 73.35 82.1507 57 89.2007 44.35C95.1007 33.75 106.701 25.3 120.201 21.8C132.651 18.55 145.151 20 154.551 25.8C161.201 29.9 167.001 36.6 171.251 45.1C178.251 59.15 179.851 75.3 175.551 89.45C171.001 104.5 160.001 116.8 146.051 122.35C140.701 124.5 135.001 125.6 129.301 125.55ZM133.101 20.9C128.801 20.9 124.501 21.5 120.351 22.55C107.051 26.05 95.6007 34.3 89.8007 44.75C82.8507 57.25 81.4507 73.35 85.9007 88.95C88.2007 97.05 93.1007 108.3 103.051 116.1C114.651 125.15 131.401 127.35 145.651 121.65C159.351 116.2 170.201 104.1 174.701 89.25C178.901 75.3 177.351 59.3 170.401 45.45C166.201 37.05 160.551 30.5 154.001 26.45C148.151 22.8 140.851 20.9 133.101 20.9Z" fill="#111111"/>
<path d="M142.751 119.8C142.601 119.8 142.501 119.75 142.401 119.6C142.301 119.4 142.351 119.15 142.551 119.05C156.301 110.35 166.001 94.8999 167.751 78.6999C169.501 62.4999 163.451 45.2999 151.901 33.8499C148.001 29.9999 140.051 23.5999 130.651 23.9999C130.451 24.0499 130.201 23.8999 130.201 23.6499C130.151 23.4499 130.301 23.1999 130.551 23.1999C130.601 23.1999 130.601 23.1999 130.651 23.1999C137.901 22.8999 145.651 26.4499 152.501 33.2999C164.251 44.9499 170.401 62.3999 168.601 78.8499C166.801 95.2999 157.001 110.95 143.001 119.8C142.951 119.8 142.851 119.8 142.751 119.8Z" fill="#111111"/>
<path d="M129.6 75.3C129.5 75.3 129.4 75.2499 129.3 75.1999C124.45 70.6999 117.1 63.8999 111.75 54.7999C111.65 54.5999 111.75 54.35 111.95 54.25C112.15 54.15 112.35 54.2 112.45 54.4C117.45 62.95 124.35 69.4999 129.15 73.9499L128.4 30.6C128.4 30.4 128.6 30.2 128.8 30.2C129 30.2 129.2 30.35 129.2 30.6C129.2 30.6 129.2 30.6 129.2 30.65L129.95 74.9499C129.95 75.0999 129.85 75.25 129.7 75.3499C129.75 75.2999 129.7 75.3 129.6 75.3Z" fill="#111111"/>
<path d="M146.601 36.65C146.451 36.65 146.351 36.6 146.251 36.45C146.101 36.25 146.151 36 146.351 35.9L148.151 34.7C148.351 34.55 148.601 34.6 148.701 34.8C148.801 35 148.801 35.25 148.601 35.35L146.801 36.55C146.751 36.65 146.701 36.65 146.601 36.65Z" fill="#111111"/>
<path d="M161.601 55.45L157.201 55.4C156.951 55.4 156.801 55.2 156.801 55C156.801 54.75 157.001 54.6 157.201 54.6L161.601 54.65C161.851 54.65 162.001 54.85 162.001 55.05C162.001 55.3 161.851 55.45 161.601 55.45Z" fill="#111111"/>
<path d="M163.6 74.75C163.5 74.75 163.4 74.7 163.3 74.65C162.3 73.65 160.95 73.15 159.55 73.25C159.3 73.25 159.15 73.05 159.15 72.85C159.15 72.65 159.3 72.5 159.5 72.45C161.15 72.35 162.7 72.95 163.85 74.1C164 74.25 164 74.5 163.85 74.7C163.8 74.7 163.7 74.75 163.6 74.75Z" fill="#111111"/>
<path d="M157.2 97.8C157.1 97.8 156.95 97.75 156.9 97.65L154.15 94.55C154 94.4 154 94.15 154.2 94C154.35 93.85 154.65 93.85 154.8 94.05L157.55 97.15C157.7 97.3 157.7 97.6 157.5 97.75C157.4 97.75 157.3 97.8 157.2 97.8Z" fill="#111111"/>
<path d="M144.95 111.2C144.8 111.2 144.651 111.1 144.601 111L142.2 106.85C142.05 106.65 142.101 106.4 142.301 106.3C142.501 106.15 142.751 106.2 142.851 106.4C142.851 106.4 142.85 106.45 142.9 106.45L145.301 110.6C145.401 110.8 145.35 111.05 145.15 111.15C145.1 111.2 145 111.2 144.95 111.2Z" fill="#111111"/>
<path d="M128.502 120.7C128.302 120.7 128.102 120.5 128.102 120.25L128.502 114.35C128.552 114.15 128.752 113.95 128.952 114C129.152 114.05 129.302 114.2 129.302 114.4L128.902 120.3C128.902 120.55 128.702 120.75 128.502 120.7Z" fill="#111111"/>
<path d="M108.152 117.9C108.052 117.9 107.952 117.85 107.852 117.8C107.702 117.65 107.652 117.4 107.802 117.2L112.152 112.35C112.302 112.2 112.552 112.15 112.752 112.3C112.902 112.45 112.952 112.7 112.802 112.9L108.402 117.75C108.352 117.9 108.252 117.95 108.152 117.9Z" fill="#111111"/>
<path d="M92.8004 99.45C92.5504 99.45 92.4004 99.25 92.4004 99.05C92.4004 98.9 92.4504 98.8 92.6004 98.7L96.2504 96.35C96.4504 96.25 96.7004 96.3 96.8004 96.45C96.9004 96.65 96.8504 96.9 96.7004 97L93.0504 99.35C92.9504 99.4 92.9004 99.45 92.8004 99.45Z" fill="#111111"/>
<path d="M93.7498 77.65C93.6998 77.65 93.6498 77.65 93.5998 77.6L88.5499 75.65C88.3499 75.55 88.2499 75.35 88.2999 75.1C88.3999 74.9 88.5998 74.8 88.8498 74.85L93.8998 76.8C94.0998 76.9 94.1998 77.1 94.1498 77.35C94.0498 77.55 93.8998 77.65 93.7498 77.65Z" fill="#111111"/>
<path d="M94.8004 58.4501C93.5504 58.4501 92.3504 58.0001 91.4504 57.1501C91.3004 57.0001 91.3004 56.75 91.4504 56.6C91.6004 56.45 91.8504 56.45 92.0004 56.6C93.0004 57.5 94.3004 57.85 95.6004 57.6C95.8004 57.55 96.0504 57.7001 96.1004 57.9001C96.1504 58.1001 96.0504 58.3501 95.8004 58.4001C95.8004 58.4001 95.8004 58.4001 95.7504 58.4001C95.5004 58.4501 95.1504 58.4501 94.8004 58.4501Z" fill="#111111"/>
<path d="M107.15 46.4499C107 46.4499 106.85 46.3499 106.8 46.2499L104.35 41.6499C104.25 41.4499 104.35 41.1999 104.55 41.0999C104.75 40.9999 104.95 41.0999 105.05 41.2499L107.45 45.8499C107.55 46.0499 107.5 46.2999 107.3 46.3999C107.25 46.4499 107.2 46.4499 107.15 46.4499Z" fill="#111111"/>
<path d="M118.1 34.5999C117.9 34.5999 117.7 34.45 117.7 34.25L117.25 29.9C117.2 29.7 117.4 29.5 117.6 29.45C117.85 29.45 118.05 29.5999 118.05 29.7999L118.5 34.15C118.55 34.4 118.35 34.5999 118.1 34.5999Z" fill="#111111"/>
<path d="M113.901 64.3C113.751 64.3 113.601 64.2 113.551 64.1C111.751 60.95 110.401 57.5 109.551 53.95C109.501 53.8 109.551 53.7 109.651 53.55C109.751 53.45 109.851 53.4 110.001 53.45C113.901 54.15 117.851 54.25 121.751 53.7C122.001 53.7 122.151 53.85 122.201 54.1C122.201 54.3 122.101 54.5 121.901 54.55C118.151 55.1 114.301 55.05 110.551 54.4C111.401 57.65 112.651 60.8 114.351 63.7C114.451 63.9 114.401 64.15 114.201 64.25C114.051 64.3 114.001 64.3 113.901 64.3Z" fill="#111111"/>
<path d="M122.65 41.9C122.6 41.9 122.5 41.9 122.45 41.85C122.25 41.75 122.2 41.5 122.3 41.3L128 30.65C128.1 30.5 128.25 30.4 128.4 30.45C128.55 30.45 128.7 30.6 128.75 30.75C129.55 34.1 131.2 37.2 133.6 39.7C133.75 39.85 133.75 40.1 133.6 40.3C133.45 40.45 133.2 40.45 133.05 40.3C130.8 37.95 129.15 35.1 128.25 32L123.05 41.75C122.95 41.8 122.8 41.9 122.65 41.9Z" fill="#111111"/>
<path d="M184.351 138.5L204.601 137C205.801 136.9 207.001 136.85 208.101 137.25C209.901 137.95 210.851 139.85 212.151 141.25C215.401 144.85 220.701 145.6 225.501 146.05C230.301 146.5 235.551 147.1 239.051 150.5C235.801 150.7 233.651 154.15 230.451 154.9C227.251 155.65 224.301 153.65 221.201 152.65C216.701 151.25 211.901 152.05 207.251 152.55C202.651 153.05 196.451 153.25 192.401 150.5C190.901 149.5 189.801 147.95 188.751 146.5C188.301 145.85 184.251 138.5 184.351 138.5Z" fill="#111111"/>
<path d="M230.401 186.4C231.351 186 232.351 185.65 233.401 185.45C233.451 183.4 233.501 181.4 233.601 179.35C233.701 176.25 233.751 173.15 233.851 170.1C233.951 167.55 234.551 166.7 235.051 164.5C235.551 162.4 235.701 162.9 234.551 161.2C233.201 159.2 230.751 157.75 229.051 156.35C228.201 155.65 218.551 148.3 218.551 148.3C214.901 162.35 211.451 177 212.101 191.95C212.251 195.05 212.651 198.35 214.151 200.55C216.451 203.95 220.351 203.6 223.501 202.1C226.651 200.6 229.701 198.15 233.001 198.2L233.351 186.8C232.301 186.8 231.301 186.7 230.401 186.4Z" fill="#111111"/>
<path d="M218.9 148.15C218.9 149.25 201.4 152.5 199.7 152.85C196.4 153.5 193.1 154.1 189.8 154.65C185.6 155.35 184.65 154.65 184.8 159.1C184.95 163.9 185.05 168.65 185.05 173.45L188.1 174.15L185.05 174.9C185 183.45 184.75 192 184.15 200.55L218.9 204.35C218.95 185.6 218.95 166.9 218.9 148.15Z" fill="white"/>
<path d="M218.951 204.7L184.151 200.9C183.951 200.9 183.801 200.7 183.801 200.5C184.351 192 184.651 183.4 184.701 174.9C184.701 174.7 184.851 174.55 185.001 174.55L186.501 174.2L185.001 173.85C184.851 173.8 184.701 173.65 184.701 173.5C184.701 168.6 184.601 163.8 184.451 159.15C184.301 155.2 185.101 154.95 188.051 154.6C188.551 154.55 189.101 154.45 189.751 154.35C193.051 153.8 196.351 153.2 199.651 152.55L200.701 152.35C215.201 149.55 218.151 148.5 218.601 148.1C218.651 147.9 218.901 147.8 219.101 147.85C219.251 147.9 219.351 148.05 219.351 148.2V204.35C219.351 204.45 219.301 204.55 219.251 204.65C219.151 204.65 219.051 204.7 218.951 204.7ZM184.601 200.2L218.601 203.9V148.9C217.151 149.55 213.001 150.65 200.851 153L199.851 153.2C196.551 153.85 193.251 154.45 189.951 155C189.301 155.1 188.751 155.2 188.251 155.25C185.501 155.6 185.201 155.65 185.301 159.05C185.451 163.6 185.551 168.35 185.551 173.1L188.301 173.7C188.451 173.75 188.601 173.9 188.601 174.05C188.601 174.2 188.501 174.4 188.301 174.4L185.501 175.1C185.401 183.5 185.101 191.9 184.601 200.2Z" fill="#111111"/>
<path d="M209.551 162.55C214.901 161.1 220.601 162 225.251 165C222.901 163.65 221.301 160.35 218.601 159.8C215.901 159.25 211.751 161.25 209.551 162.55Z" fill="#111111"/>
<path d="M219.651 196.3L210.701 195.6C212.601 196.25 214.551 196.85 216.501 197.35C217.251 197.55 218.051 197.65 218.901 197.65C221.401 197.5 223.201 195.4 224.751 193.45C223.301 194.55 221.651 195.4 219.951 196" fill="#111111"/>
<path d="M137.299 159.55C142.199 160.85 147.449 161.45 151.599 164.35C155.749 167.25 158.199 173.45 155.049 177.4C151.899 181.35 145.599 180.45 140.849 178.5C127.149 172.8 116.399 161.8 106.449 150.8C104.499 148.65 99.0491 143.2 102.249 140.3C105.049 137.75 109.149 140.95 111.049 142.8C118.849 150.45 126.499 156.7 137.299 159.55Z" fill="#8A0B24"/>
<path d="M108.199 130.6C108.249 132.8 108.399 135.05 109.249 137.1C110.099 139.15 111.699 140.95 113.799 141.55C117.649 142.65 121.349 139.55 123.899 136.55C133.049 125.85 138.949 112.9 144.799 100.1C145.749 98.05 146.649 95.7 145.749 93.65C144.899 91.75 142.699 90.85 140.699 90.15C135.549 88.45 130.249 87.05 124.949 85.95C123.199 85.6 121.349 85.3 119.599 85.75C116.049 86.7 115.699 90.85 114.799 93.85C113.599 97.9 112.399 102 111.349 106.1C109.399 114.1 107.999 122.35 108.199 130.6Z" fill="white"/>
<path d="M115.4 142.15C114.85 142.15 114.25 142.05 113.7 141.9C111.65 141.3 109.85 139.55 108.9 137.2C108.05 135.1 107.85 132.75 107.8 130.6C107.65 123.25 108.65 115.45 111 106C112.1 101.55 113.35 97.2999 114.45 93.6999C114.6 93.1999 114.75 92.6499 114.9 92.0499C115.6 89.3499 116.35 86.2499 119.5 85.3499C121.3 84.8499 123.15 85.1499 125 85.5499C130.35 86.5999 135.65 88.0499 140.8 89.7499C143 90.4999 145.2 91.4499 146.1 93.4499C147.1 95.5999 146.15 98.0499 145.15 100.2C139.4 112.85 133.45 125.9 124.2 136.75C121.2 140.35 118.2 142.15 115.4 142.15ZM121.5 85.8999C120.9 85.8999 120.3 85.9499 119.7 86.0999C116.95 86.8499 116.3 89.5999 115.6 92.2499C115.45 92.8499 115.3 93.3999 115.15 93.9499C114.05 97.4999 112.8 101.8 111.7 106.2C109.4 115.55 108.4 123.3 108.55 130.6C108.6 132.7 108.75 134.95 109.6 136.95C110.5 139.1 112.1 140.7 113.9 141.2C117.6 142.25 121.2 139.1 123.6 136.3C132.8 125.55 138.7 112.5 144.45 99.9499C145.35 97.9499 146.25 95.6999 145.4 93.7999C144.6 92.0499 142.6 91.1999 140.55 90.4999C135.4 88.7999 130.15 87.3999 124.85 86.3499C123.75 86.0999 122.65 85.9499 121.5 85.8999Z" fill="#111111"/>
<path d="M149.999 93.15C159.699 90.95 168.599 86 175.499 78.85C178.099 76.15 180.599 72.4 179.399 68.8C178.599 66.35 176.249 64.7 173.899 63.7C168.899 61.55 163.249 61.3 157.849 61.8C143.949 63.2 130.899 69.15 120.799 78.85C117.699 77.85 114.499 76.85 111.199 76.95C107.899 77.05 104.499 78.55 102.899 81.4C101.449 84 101.749 87.2 102.199 90.15C103.249 97.3 105.249 104.95 110.849 109.5C112.899 106.55 114.699 103.45 116.349 100.2C117.149 98.6 117.899 96.95 118.649 95.3C119.099 94.3 119.449 92.25 120.499 91.65C122.299 90.6 126.799 92.95 128.749 93.35C132.049 94.05 135.449 94.4 138.849 94.4C142.599 94.35 146.349 93.95 149.999 93.15Z" fill="#111111"/>
<path d="M127.949 111.6C127.949 111.9 128.149 112.15 128.399 112.3C128.799 112.4 129.199 112.05 129.399 111.7C129.799 111.1 131.199 108.6 129.899 108.6C128.799 108.55 127.899 110.75 127.949 111.6Z" fill="#111111"/>
<path d="M132.7 113.5C132.9 113.7 133.25 113.8 133.55 113.7C133.85 113.6 134.1 113.45 134.3 113.2C134.95 112.6 136.9 110.35 135 110.25C133.8 110.15 131.85 112.45 132.7 113.5Z" fill="#111111"/>
<path d="M112.801 132.45C113.751 134.1 115.651 135.15 117.451 134.7C118.651 134.4 119.651 133.45 120.501 132.45C120.801 132.2 120.951 131.85 121.001 131.5C121.001 130.95 120.401 130.65 119.951 130.45C118.501 129.8 117.251 128.85 116.251 127.65C115.701 127 114.551 124.5 113.501 124.5C111.001 124.5 111.951 131.05 112.801 132.45Z" fill="#111111"/>
<path d="M113.65 106.7C112.7 105.6 111.65 104.4 110.2 104.15C109.15 104 108.05 104.4 107.3 105.15C106.55 105.9 106.1 106.9 106.05 107.95C105.9 109.45 106.5 110.95 107.6 111.95C108.75 112.95 110.35 113.25 111.75 112.7" fill="white"/>
<path d="M110.35 113.35C109.25 113.35 108.2 112.95 107.35 112.25C106.15 111.15 105.55 109.55 105.7 107.95C105.8 106.8 106.25 105.7 107.1 104.9C107.95 104.05 109.15 103.65 110.3 103.8C111.85 104.05 112.9 105.2 113.95 106.5C114.1 106.65 114.1 106.9 113.95 107.05C113.8 107.2 113.55 107.2 113.4 107.05L113.35 107C112.4 105.85 111.4 104.8 110.15 104.6C109.2 104.5 108.25 104.8 107.6 105.5C106.9 106.2 106.5 107.1 106.45 108.1C106.3 109.5 106.85 110.85 107.85 111.8C108.9 112.7 110.3 112.95 111.6 112.5C111.8 112.4 112 112.5 112.1 112.65C112.1 112.65 112.1 112.65 112.1 112.7C112.2 112.9 112.1 113.1 111.9 113.2C111.4 113.25 110.9 113.35 110.35 113.35Z" fill="#111111"/>
<path d="M91.5987 146.7C93.6987 143.35 96.1487 140 99.6487 138.25C103.149 136.5 108.049 136.85 110.349 140.05C111.899 142.2 111.949 145.05 112.049 147.7C112.449 164.85 115.399 181.85 117.199 198.9C117.399 200.95 117.549 203.3 116.199 204.9C115.149 206.1 113.449 206.6 111.899 206.5C110.299 206.35 108.749 206 107.249 205.45C100.899 203.5 94.2987 202.4 87.6487 202.25C83.8987 202.15 75.5487 204.1 74.3987 198.9C73.3987 194.3 75.6487 188.05 76.6987 183.6C78.0987 177.4 79.9987 171.3 82.2987 165.4C84.7987 158.9 87.9487 152.6 91.5987 146.7Z" fill="#8A0B24"/>
<path d="M97.2487 176.3C99.4487 172.9 102.399 169.85 106.099 168.25C109.799 166.65 114.299 166.5 117.749 168.65C120.749 170.5 122.599 173.65 123.999 176.9C126.049 181.65 127.399 186.65 127.899 191.8C128.049 192.9 127.999 194 127.749 195.05C127.449 196.1 126.549 196.95 125.499 197.15C124.499 197.3 123.499 196.7 122.699 196.1C120.199 194.2 118.249 191.65 116.999 188.8C116.599 190.5 116.149 192.3 115.049 193.65C113.949 195 111.899 195.85 110.349 195C108.799 194.15 108.249 192.1 106.849 191C103.049 188 96.3987 194.4 93.5987 189.75C91.2487 185.75 95.1987 179.45 97.2487 176.3Z" fill="white"/>
<path d="M125.201 197.5C124.201 197.4 123.251 197 122.501 196.35C120.251 194.6 118.4 192.4 117.101 189.85C116.801 191.3 116.201 192.65 115.351 193.85C114.201 195.25 112 196.25 110.2 195.3C109.25 194.8 108.651 193.9 108.051 193.05C107.651 192.4 107.201 191.8 106.601 191.3C104.951 190 102.65 190.6 100.45 191.2C97.7505 191.9 94.9005 192.65 93.3005 189.95C90.8005 185.75 95.1005 179 96.9505 176.15C99.4505 172.3 102.55 169.45 105.95 167.95C110 166.15 114.6 166.3 117.95 168.35C121.3 170.4 123.201 174.1 124.351 176.75C126.451 181.5 127.751 186.6 128.301 191.75C128.501 192.9 128.401 194.05 128.101 195.15C127.751 196.35 126.751 197.3 125.551 197.5C125.451 197.5 125.351 197.5 125.201 197.5ZM117.001 188.3C117.151 188.3 117.301 188.4 117.351 188.55C118.601 191.4 120.5 193.85 122.95 195.7C123.65 196.2 124.55 196.8 125.451 196.7C126.401 196.5 127.151 195.8 127.401 194.85C127.651 193.85 127.701 192.8 127.551 191.75C127.051 186.65 125.751 181.65 123.651 176.95C122.551 174.4 120.701 170.85 117.551 168.9C114.401 166.95 110.051 166.85 106.251 168.55C103.001 170 100.001 172.7 97.5505 176.5C95.7505 179.25 91.6005 185.7 93.9005 189.5C95.2505 191.75 97.5505 191.1 100.2 190.4C102.6 189.75 105.101 189.1 107.001 190.6C107.651 191.15 108.201 191.8 108.601 192.55C109.15 193.35 109.65 194.15 110.45 194.55C111.9 195.3 113.7 194.45 114.7 193.3C115.8 192 116.201 190.2 116.601 188.6C116.65 188.45 116.801 188.3 117.001 188.3Z" fill="#111111"/>
<path d="M83.0998 200.1C81.2498 200 79.3498 199.85 77.6998 200.6C76.0498 201.35 74.6998 203.2 75.2498 204.95C75.8498 206.9 78.1998 207.55 80.1998 207.95L93.4998 210.5C101.15 212 108.8 213.45 116.6 213.9C124.6 214.4 132.6 213.8 140.6 213.2L172.9 210.8C174.5 210.7 176.2 210.55 177.5 209.6C178.8 208.65 179.5 206.65 178.5 205.4C177.9 204.65 176.95 204.4 176 204.15C163.95 201.05 151.6 199.35 139.2 199.15C133.8 199.05 128.65 199.95 123.25 200.25C116.85 200.6 110.4 200.75 104 200.75C96.9998 200.8 90.0498 200.55 83.0998 200.1Z" fill="#111111"/>
<path d="M109.699 110.7C109.649 110.7 109.599 110.7 109.499 110.65C108.749 110.1 108.249 109.35 107.999 108.5C107.749 107.55 108.149 106.5 108.999 106C109.499 105.75 110.099 105.75 110.599 106.05C111.049 106.25 111.299 106.65 111.399 107.1C111.399 107.25 111.299 107.4 111.149 107.4C110.999 107.4 110.849 107.3 110.849 107.15C110.799 106.85 110.599 106.6 110.349 106.5C109.999 106.3 109.649 106.3 109.299 106.45C108.699 106.85 108.399 107.6 108.549 108.35C108.799 109.1 109.249 109.75 109.899 110.2C109.999 110.3 110.049 110.45 109.949 110.6C109.849 110.7 109.749 110.75 109.699 110.7Z" fill="white"/>
<path d="M56.1496 170.85C54.5496 172.95 53.0496 175.15 52.1496 177.65C51.2496 180.15 50.9996 182.9 51.9496 185.4C53.2496 188.9 56.5996 191.25 60.0996 192.65C65.2996 194.75 71.0496 195.15 76.6496 195C81.7996 194.85 86.9496 194.2 91.9996 193.05C93.0496 192.8 94.1996 192.45 94.6496 191.5C94.8496 190.85 94.8996 190.2 94.7496 189.55C94.3996 186.8 94.0496 184.05 93.6996 181.3L74.4996 181.85C72.6996 181.9 70.6996 181.85 69.4996 180.55C67.9496 178.9 68.5496 176.25 69.5496 174.2C72.5496 168.05 78.0996 163.55 83.1996 158.95C88.3996 154.25 93.3496 149.25 97.8996 143.95C100.3 141.15 99.2996 138.35 95.5496 139.7C91.9996 141 88.6496 143.55 85.4496 145.6C78.3996 150.05 71.5996 154.9 65.4996 160.6C62.1496 163.7 58.9996 167.15 56.1496 170.85Z" fill="#8A0B24"/>
<path d="M84.9488 157.7C84.8488 157.7 84.7988 157.65 84.7488 157.6C84.6488 157.5 84.6488 157.3 84.7488 157.2C89.3988 153 93.7488 148.5 97.7488 143.7C97.8488 143.6 98.0488 143.55 98.1488 143.7C98.2488 143.8 98.2988 144 98.1988 144.1C94.1488 148.9 89.7988 153.45 85.1488 157.65C85.0488 157.65 84.9988 157.7 84.9488 157.7Z" fill="white"/>
<path d="M77.4504 195.5C77.3004 195.5 77.1504 195.35 77.1504 195.2C77.1504 195.05 77.3004 194.9 77.4504 194.9C82.3504 194.75 86.4504 194 91.9504 192.75C93.0004 192.5 94.0504 192.2 94.4004 191.35C94.6004 190.75 94.6504 190.15 94.5004 189.55L93.5004 181.55C90.4504 181.65 88.3004 181.8 86.2504 181.95C84.2004 182.1 81.9504 182.25 78.7004 182.35C78.5504 182.35 78.4004 182.25 78.4004 182.1C78.4004 181.95 78.5004 181.8 78.7004 181.8C81.9004 181.7 84.1004 181.55 86.2004 181.4C88.3004 181.25 90.5004 181.1 93.7504 181C93.9004 181 94.0004 181.1 94.0504 181.25L95.1004 189.5C95.2504 190.2 95.2004 190.95 94.9504 191.6C94.4504 192.65 93.2504 193.05 92.1004 193.35C86.6004 194.6 82.4004 195.35 77.4504 195.5Z" fill="white"/>
<path d="M116.95 189.35C116.8 189.35 116.7 189.25 116.65 189.1C116.3 183.4 113.8 178.1 109.6 174.2C109.5 174.1 109.5 173.9 109.6 173.8C109.7 173.7 109.9 173.7 110 173.8C114.3 177.75 116.85 183.25 117.2 189.05C117.25 189.2 117.15 189.35 116.95 189.35Z" fill="#111111"/>
<path d="M111.999 156.8C111.849 156.8 111.749 156.7 111.699 156.55L111.049 147.65C111.049 147.5 111.149 147.35 111.299 147.35C111.449 147.35 111.599 147.45 111.599 147.6L112.249 156.5C112.299 156.65 112.199 156.8 111.999 156.8Z" fill="white"/>
<path d="M119.15 209.95C114.75 209.95 110.4 209.3 106.1 208.65L81.3 204.85C80.4 204.7 79.45 204.5 78.9 203.75C78.55 203.25 78.55 202.6 78.85 202.05C79.05 201.65 79.5 201.45 79.9 201.5C80.05 201.55 80.15 201.7 80.1 201.85C80.05 202 79.95 202.05 79.8 202.05C79.6 202.05 79.4 202.15 79.3 202.3C79.1 202.65 79.1 203.05 79.3 203.35C79.7 203.9 80.55 204.1 81.35 204.2L106.15 208C111.95 208.9 117.95 209.8 123.85 209C124 209 124.15 209.1 124.15 209.25C124.15 209.4 124.05 209.55 123.9 209.55C122.35 209.85 120.75 209.95 119.15 209.95Z" fill="white"/>
<path d="M128.799 205C128.349 206.25 127.949 207.7 128.649 208.85C129.499 210.2 131.349 210.3 132.899 210.25C145.449 209.85 157.999 208.95 170.499 207.55C174.349 207.1 178.399 206.6 181.549 204.4C184.549 202.3 186.449 199 188.149 195.75C194.899 182.65 199.749 168.7 202.599 154.3C202.799 153.35 202.949 152.3 202.599 151.35C201.799 149.3 199.049 149 196.849 149.05L153.999 150.2C150.949 150.3 148.099 149.4 146.599 152.15C144.999 155.15 144.299 159.05 143.199 162.25L136.499 182.15L128.799 205Z" fill="white"/>
<path d="M132.35 210.6C130.85 210.6 129.15 210.35 128.3 209.05C127.45 207.75 127.95 206.25 128.4 204.9L142.85 162.15C143.2 161.1 143.5 160 143.85 158.85C144.5 156.5 145.2 154.05 146.3 152C147.55 149.6 149.8 149.7 152.1 149.8C152.7 149.8 153.35 149.85 154 149.85L196.85 148.7C200.3 148.6 202.3 149.45 203 151.25C203.4 152.25 203.2 153.3 203 154.4C200.15 168.85 195.25 182.85 188.5 195.95C186.8 199.2 184.9 202.6 181.8 204.75C178.7 206.9 174.85 207.5 170.55 208C158.1 209.4 145.45 210.3 132.9 210.7C132.75 210.6 132.55 210.6 132.35 210.6ZM150.75 150.45C149.1 150.45 147.8 150.7 146.95 152.3C145.9 154.25 145.2 156.65 144.55 159C144.2 160.2 143.9 161.3 143.55 162.35L129.1 205.1C128.7 206.3 128.3 207.65 128.95 208.6C129.7 209.75 131.45 209.85 132.9 209.8C145.4 209.4 158.05 208.45 170.45 207.1C174.6 206.65 178.3 206.1 181.35 204C184.4 201.9 186.2 198.65 187.8 195.5C194.5 182.45 199.4 168.55 202.25 154.15C202.45 153.15 202.6 152.25 202.3 151.45C201.75 150 199.95 149.3 196.9 149.4L154.05 150.55C153.4 150.55 152.75 150.55 152.1 150.5C151.65 150.5 151.2 150.45 150.75 150.45Z" fill="#111111"/>
<path d="M19.2999 199.2C20.8999 196.45 23.9999 195.45 26.9999 195.75C26.4499 191.65 29.9499 190.45 33.0999 190.75C37.6999 191.2 42.3999 190.35 47.0499 190.65C48.8499 190.75 50.7999 191.05 52.1499 192.2C53.8999 193.75 54.2499 196.3 54.2999 198.65C54.3999 202.35 54.1999 206.2 52.3999 209.45C50.0999 213.65 45.2499 216.25 40.4499 216.05C35.5999 215.75 31.1499 213.1 28.5999 209C25.0999 210.75 20.8499 209.35 19.0999 205.9C18.0499 203.8 18.1499 201.25 19.2999 199.2ZM26.1999 206.35C26.8499 206.4 27.4999 206.05 27.7999 205.45C27.8999 205.1 27.8999 204.75 27.7999 204.4C27.5499 202.95 27.5999 200.2 25.6999 199.9C24.0999 199.65 22.7999 201.6 22.7999 203C22.8499 204.85 24.3499 206.3 26.1999 206.35Z" fill="#8A0B24"/>
<path d="M39.1494 197.65C36.9494 197.65 34.7494 197.45 32.5494 197.05C31.4994 196.85 29.6994 196.35 29.5994 194.9C29.4994 193.9 30.3994 193.05 31.3494 192.8C32.2494 192.65 33.1994 192.7 34.0994 192.95L34.0494 193.25C33.1994 193 32.2994 192.95 31.4494 193.1C30.6494 193.3 29.8994 194 29.9494 194.85C30.0494 196.1 31.6994 196.55 32.6494 196.7C38.2494 197.7 43.4494 197.45 48.0994 196C48.7994 195.85 49.3994 195.5 49.9494 195.05C50.4494 194.6 50.5994 193.9 50.3494 193.25C50.1494 192.95 49.8494 192.75 49.4994 192.75C49.2494 192.75 48.9994 192.85 48.8494 193.05L48.5994 192.9C48.7994 192.6 49.1494 192.4 49.5494 192.45C49.9994 192.45 50.4494 192.7 50.6494 193.1C50.9494 193.85 50.7994 194.7 50.1994 195.25C49.6494 195.75 48.9494 196.1 48.2494 196.25C45.2494 197.25 42.1994 197.65 39.1494 197.65Z" fill="white"/>
<path d="M184.85 110C183.5 110.2 182.1 110.45 181 111.2C178.9 112.65 178.25 115.4 177.8 117.9C177.55 119 177.45 120.1 177.55 121.2C177.65 122.3 178.3 123.35 179.25 123.9C180.2 124.35 181.25 124.25 182.3 124.1L197.05 122.15C198.35 121.95 199.75 121.8 200.8 121C202.95 119.5 203.15 116.45 203.15 113.85C203.15 112.4 203.4 110 202.15 108.9C201.1 108 199.3 108.35 198.1 108.45C193.65 108.8 189.25 109.3 184.85 110Z" fill="white"/>
<path d="M180.85 124.65C178.9 124.75 177.25 123.3 177.15 121.35V121.3C177.05 120.15 177.15 119 177.4 117.85C177.9 115.15 178.6 112.4 180.75 110.9C181.9 110.1 183.3 109.85 184.75 109.6C189.2 108.9 193.7 108.4 198.05 108.1L198.65 108.05C199.85 107.95 201.4 107.8 202.4 108.65C203.6 109.65 203.55 111.7 203.5 113.2C203.5 113.45 203.5 113.65 203.5 113.85C203.5 116.8 203.2 119.75 201 121.3C199.8 122.15 198.35 122.35 197.05 122.5L182.3 124.45C181.85 124.6 181.35 124.6 180.85 124.65ZM184.85 110L184.9 110.35C183.5 110.55 182.25 110.8 181.2 111.5C179.25 112.8 178.65 115.4 178.15 117.95C177.9 119 177.8 120.05 177.9 121.15C178 122.15 178.55 123.05 179.4 123.55C180.2 123.95 181.15 123.85 182.25 123.7L197 121.75C198.2 121.6 199.55 121.4 200.6 120.7C202.5 119.35 202.8 116.6 202.8 113.85C202.8 113.65 202.8 113.4 202.8 113.15C202.85 111.8 202.85 110 201.95 109.2C201.2 108.55 199.85 108.7 198.8 108.8C198.55 108.85 198.35 108.85 198.15 108.85C193.8 109.15 189.35 109.65 184.9 110.3L184.85 110Z" fill="#111111"/>
<path d="M181.85 111.8C184 113.55 186.25 115.25 188.55 116.85C189.15 117.35 189.85 117.65 190.6 117.7C191.6 117.7 192.4 116.85 193.05 116.1C194.95 113.95 196.85 111.75 198.75 109.6" fill="white"/>
<path d="M190.55 118.1C189.75 118 188.95 117.7 188.3 117.15C186 115.55 183.75 113.85 181.6 112.1C181.45 111.95 181.4 111.75 181.55 111.55C181.7 111.4 181.9 111.35 182.1 111.5C184.25 113.25 186.5 114.95 188.8 116.55C189.3 117 189.95 117.25 190.65 117.35C191.5 117.35 192.2 116.6 192.8 115.9L198.5 109.4C198.65 109.25 198.85 109.25 199.05 109.35C199.2 109.5 199.2 109.7 199.1 109.9L193.4 116.4C192.7 117.2 191.85 118.1 190.7 118.1H190.55Z" fill="#111111"/>
<path d="M190.55 117.9C189.75 117.85 189 117.5 188.45 117C186.15 115.4 183.9 113.7 181.75 111.95L182 111.65C184.15 113.4 186.4 115.1 188.7 116.7C189.25 117.15 189.9 117.45 190.65 117.5C191.55 117.5 192.3 116.75 192.95 116L198.65 109.5L198.95 109.75L193.25 116.25C192.55 117.05 191.75 117.9 190.65 117.9H190.55Z" fill="#111111"/>
<path d="M174.8 119.2C172.85 118.9 170.7 118.9 169.05 120.05C167.25 121.25 166.5 123.5 165.85 125.55C165.45 126.9 165.05 128.55 166 129.55C166.6 130.25 167.6 130.4 168.5 130.55L180.35 132.3C181.6 132.5 182.9 132.65 184 132.1C185.6 131.3 186.15 129.3 186.4 127.5C186.65 125.7 186.7 123.8 185.95 122.2C185.05 120.4 183.15 119.35 181.15 119.5C179.05 119.65 176.9 119.55 174.8 119.2Z" fill="#8A0B24"/>
<path d="M169.75 121L174.4 126.8C174.8 127.3 175.25 127.8 175.9 127.9C176.55 128 177.2 127.5 177.7 127.05C179.55 125.35 181.25 123.5 182.8 121.5" fill="#8A0B24"/>
<path d="M176.05 128.1H175.85C175.15 128 174.65 127.5 174.25 126.95L169.6 121.15L169.9 120.9L174.55 126.7C174.95 127.2 175.35 127.65 175.9 127.7C176.45 127.75 177 127.35 177.55 126.9C179.4 125.2 181.1 123.35 182.65 121.35L182.95 121.6C181.4 123.6 179.7 125.5 177.8 127.2C177.35 127.7 176.7 128.05 176.05 128.1Z" fill="white"/>
<path d="M20.7 54.3L31.4 42.8L29.25 40.6L20.85 50.25L17.35 45.35C17.1 45 15.3 46.25 15.2 46.6C15 47.45 16.2 48.5 16.65 49.1L20.7 54.3Z" fill="#111111"/>
<path d="M27.2502 49.3999C27.2502 49.6499 27.2002 49.8999 27.1502 50.1499C26.5002 53.7999 23.0002 56.2499 19.3502 55.5999C15.7002 54.9499 13.2502 51.4499 13.9002 47.7999C14.5502 44.1499 18.0002 41.6999 21.7002 42.3499C22.7002 42.5499 23.6502 42.9499 24.4502 43.4999C24.9002 43.0499 25.3002 42.5999 25.7502 42.1999L25.9502 41.9999C22.1002 38.9999 16.5502 39.6999 13.5502 43.5499C10.5502 47.3999 11.2502 52.9499 15.1002 55.9499C18.9502 58.9499 24.5002 58.2499 27.5002 54.3999C28.9502 52.5499 29.6002 50.1999 29.3002 47.8499L27.2502 49.3999Z" fill="#111111"/>
<path d="M21.2508 77.45L31.9508 65.95L29.8008 63.75C27.0008 66.95 24.2008 70.2 21.4008 73.4C20.2508 71.75 19.0508 70.15 17.9008 68.5C17.6508 68.15 15.8508 69.4 15.7508 69.75C15.5508 70.6 16.7508 71.65 17.2008 72.25L21.2508 77.45Z" fill="#111111"/>
<path d="M27.7999 72.5499C27.7999 72.7999 27.7499 73.0499 27.6999 73.2999C27.0499 76.9999 23.5999 79.4499 19.8999 78.7999C16.1999 78.1499 13.7499 74.6999 14.3999 70.9999C15.0499 67.2999 18.4999 64.8499 22.1999 65.4999C23.1999 65.6499 24.1499 66.0499 24.9999 66.6499L26.2999 65.3499L26.4999 65.1499C22.6499 62.1499 17.0499 62.7999 14.0499 66.6999C11.0499 70.5999 11.6999 76.1499 15.5999 79.1499C19.4999 82.1499 25.0499 81.4999 28.0499 77.5999C28.9499 76.4499 29.5499 75.0999 29.7999 73.6499C29.9499 72.7499 29.9499 71.8999 29.8499 70.9999L27.7999 72.5499Z" fill="#111111"/>
<path d="M62.8921 42.8531L36.3027 43.6508L36.3162 44.1006L62.9056 43.3029L62.8921 42.8531Z" fill="#111111"/>
<path d="M63.7262 46.0276L35.3574 47.3754L35.3788 47.8249L63.7475 46.4771L63.7262 46.0276Z" fill="#111111"/>
<path d="M36.1504 51.3999V50.9999C44.8504 50.3999 53.5004 50.2999 62.2004 50.5499V50.9999C53.5504 50.6999 44.8504 50.8499 36.1504 51.3999Z" fill="#111111"/>
<path d="M61.6385 53.182L33.7969 53.8138L33.8071 54.2637L61.6487 53.6319L61.6385 53.182Z" fill="#111111"/>
<path d="M63.8413 64.7049L37.252 65.5026L37.2654 65.9524L63.8548 65.1547L63.8413 64.7049Z" fill="#111111"/>
<path d="M64.777 67.8775L36.4082 69.2252L36.4296 69.6747L64.7983 68.327L64.777 67.8775Z" fill="#111111"/>
<path d="M37.2004 73.2499L37.1504 72.7999C45.8504 72.1999 54.5004 72.0999 63.2004 72.3499V72.7999C54.5504 72.5499 45.8504 72.6999 37.2004 73.2499Z" fill="#111111"/>
<path d="M62.6893 75.0306L34.8477 75.6625L34.8579 76.1123L62.6995 75.4805L62.6893 75.0306Z" fill="#111111"/>
</svg>
